<?xml version="1.0" standalone="no"?>
<!DOCTYPE svg PUBLIC "-//W3C//DTD SVG 20010904//EN"
 "http://www.w3.org/TR/2001/REC-SVG-20010904/DTD/svg10.dtd">
<svg version="1.0" xmlns="http://www.w3.org/2000/svg"
 width="300.000000pt" height="290.000000pt" viewBox="0 0 300.000000 290.000000"
 preserveAspectRatio="xMidYMid meet">
<metadata>
Created by potrace 1.10, written by Peter Selinger 2001-2011
</metadata>
<g transform="translate(0.000000,290.000000) scale(0.100000,-0.100000)"
fill="#000000" stroke="none">
<path d="M185 2311 c-42 -26 -158 -146 -172 -179 -16 -37 -16 -86 1 -125 8
-18 308 -326 712 -729 690 -687 700 -697 746 -703 26 -4 61 -2 80 4 24 8 231
209 735 713 621 622 702 707 708 740 14 73 -1 106 -83 191 -42 44 -91 86 -109
93 -39 17 -91 18 -130 3 -15 -5 -285 -267 -600 -582 l-573 -572 -572 572
c-316 315 -586 577 -601 582 -44 17 -109 13 -142 -8z"/>
</g>
</svg>
