<?xml version="1.0" standalone="no"?>
<!DOCTYPE svg PUBLIC "-//W3C//DTD SVG 20010904//EN"
 "http://www.w3.org/TR/2001/REC-SVG-20010904/DTD/svg10.dtd">
<svg version="1.0" xmlns="http://www.w3.org/2000/svg"
 width="300.000000pt" height="300.000000pt" viewBox="0 0 300.000000 300.000000"
 preserveAspectRatio="xMidYMid meet">
<metadata>
Created by potrace 1.10, written by Peter Selinger 2001-2011
</metadata>
<g transform="translate(0.000000,300.000000) scale(0.100000,-0.100000)"
fill="#000000" stroke="none">
<path d="M840 2482 c-94 -35 -147 -82 -186 -166 l-18 -36 -113 0 c-126 0 -154
-10 -172 -60 -14 -41 0 -82 39 -107 29 -20 45 -23 141 -23 l108 0 23 -46 c29
-60 105 -128 165 -148 72 -25 177 -21 240 8 62 29 123 88 149 144 l19 41 682
3 681 3 25 23 c30 28 39 65 25 103 -21 61 8 59 -736 59 l-678 0 -12 34 c-19
52 -87 122 -148 152 -71 35 -169 41 -234 16z m160 -187 c86 -44 75 -183 -17
-221 -99 -42 -201 59 -160 159 30 70 108 98 177 62z"/>
<path d="M1951 1792 c-59 -23 -137 -94 -167 -153 l-24 -49 -676 0 c-465 0
-682 -3 -696 -11 -11 -6 -26 -26 -34 -45 -12 -29 -12 -39 0 -68 8 -19 23 -39
34 -45 14 -8 231 -11 696 -11 l676 0 24 -49 c14 -26 48 -69 76 -94 66 -60 130
-81 224 -75 115 8 200 63 252 163 l29 55 113 0 c62 0 122 5 134 11 11 6 26 26
34 45 12 29 12 39 0 68 -8 19 -23 39 -34 45 -12 6 -72 11 -134 11 l-113 0 -29
56 c-54 104 -158 165 -279 163 -34 0 -82 -8 -106 -17z m188 -197 c62 -53 62
-137 0 -190 -36 -30 -106 -34 -145 -9 -48 32 -68 107 -43 157 35 69 130 90
188 42z"/>
<path d="M823 1103 c-56 -19 -133 -89 -161 -146 l-23 -45 -119 -4 c-108 -3
-121 -5 -143 -26 -30 -28 -39 -65 -25 -103 17 -49 45 -59 171 -59 l114 0 12
-27 c55 -124 183 -202 313 -190 110 10 227 92 260 183 l12 34 678 0 c744 0
715 -2 736 59 14 38 5 75 -25 103 l-25 23 -681 3 -682 3 -19 41 c-26 56 -87
115 -149 144 -62 28 -175 32 -244 7z m161 -177 c69 -29 96 -107 61 -176 -32
-62 -129 -80 -184 -35 -71 60 -60 169 22 209 40 19 59 20 101 2z"/>
</g>
</svg>
