<svg width="32" height="32" viewBox="0 0 32 32" fill="none" xmlns="http://www.w3.org/2000/svg">
<path d="M6.66667 13.3335C5.2 13.3335 4 14.5335 4 16.0002C4 17.4668 5.2 18.6668 6.66667 18.6668C8.13333 18.6668 9.33333 17.4668 9.33333 16.0002C9.33333 14.5335 8.13333 13.3335 6.66667 13.3335ZM25.3333 13.3335C23.8667 13.3335 22.6667 14.5335 22.6667 16.0002C22.6667 17.4668 23.8667 18.6668 25.3333 18.6668C26.8 18.6668 28 17.4668 28 16.0002C28 14.5335 26.8 13.3335 25.3333 13.3335ZM16 13.3335C14.5333 13.3335 13.3333 14.5335 13.3333 16.0002C13.3333 17.4668 14.5333 18.6668 16 18.6668C17.4667 18.6668 18.6667 17.4668 18.6667 16.0002C18.6667 14.5335 17.4667 13.3335 16 13.3335Z" fill="#252525"/>
</svg>
