<svg xmlns="http://www.w3.org/2000/svg" width="21" height="18" viewBox="0 0 21 18" fill="none">
<g clip-path="url(#clip0_392_88)">
<path d="M10.2706 2.0863C14.7298 2.0863 18.4398 4.8851 19.218 8.57836C18.4406 12.2716 14.7298 15.0704 10.2706 15.0704C5.8114 15.0704 2.10145 12.2716 1.32324 8.57836C2.10063 4.8851 5.8114 2.0863 10.2706 2.0863ZM10.2706 13.6277C11.9573 13.6274 13.5938 13.1277 14.9125 12.2104C16.2311 11.2931 17.1537 10.0126 17.5292 8.57836C17.1523 7.14528 16.2291 5.86613 14.9106 4.95004C13.5921 4.03395 11.9563 3.53513 10.2706 3.53513C8.58492 3.53513 6.9491 4.03395 5.6306 4.95004C4.31209 5.86613 3.38891 7.14528 3.01199 8.57836C3.38753 10.0126 4.31012 11.2931 5.62875 12.2104C6.94739 13.1277 8.58396 13.6274 10.2706 13.6277ZM10.2706 11.8244C9.2836 11.8244 8.33702 11.4824 7.6391 10.8736C6.94118 10.2649 6.54909 9.43926 6.54909 8.57836C6.54909 7.71746 6.94118 6.89182 7.6391 6.28307C8.33702 5.67432 9.2836 5.33233 10.2706 5.33233C11.2576 5.33233 12.2042 5.67432 12.9021 6.28307C13.6 6.89182 13.9921 7.71746 13.9921 8.57836C13.9921 9.43926 13.6 10.2649 12.9021 10.8736C12.2042 11.4824 11.2576 11.8244 10.2706 11.8244ZM10.2706 10.3817C10.8189 10.3817 11.3448 10.1917 11.7326 9.85352C12.1203 9.51533 12.3381 9.05664 12.3381 8.57836C12.3381 8.10008 12.1203 7.64139 11.7326 7.3032C11.3448 6.96501 10.8189 6.77501 10.2706 6.77501C9.72227 6.77501 9.19639 6.96501 8.80866 7.3032C8.42092 7.64139 8.2031 8.10008 8.2031 8.57836C8.2031 9.05664 8.42092 9.51533 8.80866 9.85352C9.19639 10.1917 9.72227 10.3817 10.2706 10.3817Z" fill="black"/>
</g>
<defs>
<clipPath id="clip0_392_88">
<rect width="20" height="17.4446" fill="white" transform="translate(0.270996 0.25)"/>
</clipPath>
</defs>
</svg>