<svg version="1.1" id="Layer_1" xmlns="http://www.w3.org/2000/svg" xmlns:xlink="http://www.w3.org/1999/xlink" x="0px" y="0px"
	 width="100%" viewBox="0 0 400 416" enable-background="new 0 0 400 416" xml:space="preserve">
<path fill="#000000" opacity="1.000000" stroke="none" 
	d="
M401.000000,137.000000 
	C401.000000,230.295883 401.000000,323.591766 401.000000,416.943848 
	C267.757629,416.943848 134.515228,416.943848 1.000000,416.943848 
	C1.000000,284.977478 1.000000,152.954788 1.468657,20.466042 
	C16.266329,20.000000 30.595345,20.000002 44.924358,20.000000 
	C54.078255,19.999998 54.077839,20.000038 55.002731,28.969929 
	C55.053154,29.458958 55.105152,29.948614 55.181190,30.434099 
	C56.785328,40.676414 58.384678,50.919487 60.002689,61.159611 
	C61.291191,69.314339 62.568607,77.471077 63.914875,85.616348 
	C65.234406,93.599899 66.840294,101.541626 67.949760,109.553047 
	C69.490021,120.675217 70.536087,131.865723 72.069489,142.988968 
	C73.529030,153.576462 75.322281,164.118393 77.007469,174.674194 
	C78.282570,182.661255 79.599953,190.641724 80.932579,198.619431 
	C82.266220,206.603241 83.843590,214.552155 84.950813,222.566559 
	C86.487022,233.686111 87.465996,244.884354 89.085815,255.990219 
	C90.812927,267.831757 93.033714,279.600769 94.992065,291.409210 
	C96.687309,301.631165 98.694572,311.825043 99.757462,322.114594 
	C100.099907,325.429688 103.147118,329.057220 98.257393,332.940094 
	C91.093437,338.628906 86.163261,346.236298 83.511734,355.628815 
	C78.731171,372.563049 85.347221,395.620117 101.864525,405.620758 
	C112.299339,411.938721 122.640144,415.566010 134.860260,413.063995 
	C143.833038,411.226868 151.597427,407.581818 158.441788,401.328491 
	C165.446350,394.928772 169.689240,387.288605 171.654892,378.000061 
	C212.446472,378.000061 253.258133,377.971436 294.069092,378.128387 
	C295.390015,378.133453 297.171051,379.766357 297.937775,381.100189 
	C300.862854,386.188812 302.827179,391.946198 306.328705,396.559418 
	C311.510132,403.385864 318.531555,407.821960 326.724670,411.214508 
	C341.447479,417.310730 361.451416,412.291870 371.952850,402.453003 
	C379.645111,395.246094 385.817749,386.922455 386.004883,375.714905 
	C386.124115,368.571869 387.442108,360.932922 385.428772,354.373962 
	C380.748688,339.127533 369.985565,328.256836 354.506073,324.258331 
	C338.952209,320.240570 323.790344,322.303894 311.401947,334.128387 
	C306.084076,339.204193 301.260986,344.640564 299.441711,352.082947 
	C298.351349,356.543457 295.954712,358.204407 290.875092,358.164276 
	C252.720200,357.862732 214.561813,358.000000 176.404526,358.000000 
	C174.630905,358.000000 172.857285,358.000000 171.407669,358.000000 
	C169.874115,347.606934 164.746872,339.544830 157.588516,333.443878 
	C146.713364,324.175140 133.531815,320.888153 119.680290,323.291382 
	C118.389969,314.369110 117.223808,306.305359 116.019020,297.974518 
	C199.252396,297.974518 281.872772,297.974518 365.210297,297.974518 
	C367.815033,284.850891 370.249115,271.745209 373.052155,258.718933 
	C375.484650,247.414673 378.515045,236.239227 380.957520,224.936920 
	C384.458771,208.735077 387.643005,192.464920 391.005615,176.232849 
	C393.651031,163.462891 396.344940,150.702789 399.114014,137.959320 
	C399.208679,137.523514 400.347717,137.314651 401.000000,137.000000 
z"/>
<path fill="#FFFFFF" opacity="1.000000" stroke="none" 
	d="
M401.000000,136.531342 
	C400.347717,137.314651 399.208679,137.523514 399.114014,137.959320 
	C396.344940,150.702789 393.651031,163.462891 391.005615,176.232849 
	C387.643005,192.464920 384.458771,208.735077 380.957520,224.936920 
	C378.515045,236.239227 375.484650,247.414673 373.052155,258.718933 
	C370.249115,271.745209 367.815033,284.850891 365.210297,297.974518 
	C281.872772,297.974518 199.252396,297.974518 116.019020,297.974518 
	C117.223808,306.305359 118.389969,314.369110 119.680290,323.291382 
	C133.531815,320.888153 146.713364,324.175140 157.588516,333.443878 
	C164.746872,339.544830 169.874115,347.606934 171.407669,358.000000 
	C172.857285,358.000000 174.630905,358.000000 176.404526,358.000000 
	C214.561813,358.000000 252.720200,357.862732 290.875092,358.164276 
	C295.954712,358.204407 298.351349,356.543457 299.441711,352.082947 
	C301.260986,344.640564 306.084076,339.204193 311.401947,334.128387 
	C323.790344,322.303894 338.952209,320.240570 354.506073,324.258331 
	C369.985565,328.256836 380.748688,339.127533 385.428772,354.373962 
	C387.442108,360.932922 386.124115,368.571869 386.004883,375.714905 
	C385.817749,386.922455 379.645111,395.246094 371.952850,402.453003 
	C361.451416,412.291870 341.447479,417.310730 326.724670,411.214508 
	C318.531555,407.821960 311.510132,403.385864 306.328705,396.559418 
	C302.827179,391.946198 300.862854,386.188812 297.937775,381.100189 
	C297.171051,379.766357 295.390015,378.133453 294.069092,378.128387 
	C253.258133,377.971436 212.446472,378.000061 171.654892,378.000061 
	C169.689240,387.288605 165.446350,394.928772 158.441788,401.328491 
	C151.597427,407.581818 143.833038,411.226868 134.860260,413.063995 
	C122.640144,415.566010 112.299339,411.938721 101.864525,405.620758 
	C85.347221,395.620117 78.731171,372.563049 83.511734,355.628815 
	C86.163261,346.236298 91.093437,338.628906 98.257393,332.940094 
	C103.147118,329.057220 100.099907,325.429688 99.757462,322.114594 
	C98.694572,311.825043 96.687309,301.631165 94.992065,291.409210 
	C93.033714,279.600769 90.812927,267.831757 89.085815,255.990219 
	C87.465996,244.884354 86.487022,233.686111 84.950813,222.566559 
	C83.843590,214.552155 82.266220,206.603241 80.932579,198.619431 
	C79.599953,190.641724 78.282570,182.661255 77.007469,174.674194 
	C75.322281,164.118393 73.529030,153.576462 72.069489,142.988968 
	C70.536087,131.865723 69.490021,120.675217 67.949760,109.553047 
	C66.840294,101.541626 65.234406,93.599899 63.914875,85.616348 
	C62.568607,77.471077 61.291191,69.314339 60.002689,61.159611 
	C58.384678,50.919487 56.785328,40.676414 55.181190,30.434099 
	C55.105152,29.948614 55.053154,29.458958 55.002731,28.969929 
	C54.077839,20.000038 54.078255,19.999998 44.924358,20.000000 
	C30.595345,20.000002 16.266329,20.000000 1.468657,20.000000 
	C1.000000,13.697614 1.000000,7.395227 1.000000,1.000000 
	C24.354155,1.000000 47.708420,1.000000 71.204613,1.383417 
	C71.897469,6.276696 72.367302,10.798268 73.016548,15.293930 
	C74.290604,24.116022 75.606850,32.932915 77.014389,41.734562 
	C78.266556,49.564644 79.749229,57.358120 80.977440,65.191696 
	C82.321686,73.765289 83.490746,82.366348 84.742615,91.000000 
	C190.741333,91.000000 295.870667,91.000000 401.000000,91.000000 
	C401.000000,106.020897 401.000000,121.041786 401.000000,136.531342 
M111.500031,110.000000 
	C103.712761,110.000000 95.925491,110.000000 88.132393,110.000000 
	C88.467216,115.402397 88.385712,120.360153 89.148071,125.184555 
	C91.241936,138.435181 93.855492,151.603592 95.955185,164.853394 
	C98.467476,180.706818 100.655556,196.611542 102.992935,212.492752 
	C105.990814,232.861694 109.052696,253.221527 111.941811,273.605835 
	C112.382324,276.713898 113.323265,278.073120 116.769356,278.069031 
	C192.911606,277.978729 269.054016,277.981659 345.196289,278.066803 
	C348.257507,278.070251 349.471954,277.093964 350.051849,274.147125 
	C353.284485,257.720062 356.630341,241.314651 360.044434,224.924133 
	C362.964264,210.906525 365.940765,196.899414 369.058289,182.924698 
	C371.226959,173.203461 373.789917,163.570358 375.972626,153.852036 
	C378.756927,141.455231 381.343079,129.013824 383.995239,116.587509 
	C384.439026,114.508484 384.784424,112.408447 385.234741,110.000000 
	C293.749298,110.000000 203.124649,110.000000 111.500031,110.000000 
M120.075485,392.592926 
	C129.591660,396.042389 138.128235,393.148315 144.854294,386.791656 
	C154.077530,378.075012 156.600052,366.076843 148.675598,354.234070 
	C138.189865,338.563477 120.345169,338.395416 108.471649,350.438599 
	C100.266174,358.761292 98.561363,371.316132 106.151001,382.100037 
	C109.331871,386.619629 112.970444,391.478302 120.075485,392.592926 
M319.936890,381.405792 
	C328.709045,395.126007 343.338715,397.193268 354.422607,390.546692 
	C368.076965,382.358704 371.474731,367.495300 363.428802,354.375977 
	C356.251251,342.672577 342.973022,337.766968 329.010101,345.714111 
	C316.013763,353.111084 312.554260,367.542419 319.936890,381.405792 
z"/>
<path fill="#000000" opacity="1.000000" stroke="none" 
	d="
M401.000000,90.531342 
	C295.870667,91.000000 190.741333,91.000000 84.742615,91.000000 
	C83.490746,82.366348 82.321686,73.765289 80.977440,65.191696 
	C79.749229,57.358120 78.266556,49.564644 77.014389,41.734562 
	C75.606850,32.932915 74.290604,24.116022 73.016548,15.293930 
	C72.367302,10.798268 71.897469,6.276696 71.673271,1.383417 
	C181.552063,1.000000 291.104126,1.000000 401.000000,1.000000 
	C401.000000,30.686676 401.000000,60.374680 401.000000,90.531342 
z"/>
<path fill="#000000" opacity="1.000000" stroke="none" 
	d="
M112.000015,110.000000 
	C203.124649,110.000000 293.749298,110.000000 385.234741,110.000000 
	C384.784424,112.408447 384.439026,114.508484 383.995239,116.587509 
	C381.343079,129.013824 378.756927,141.455231 375.972626,153.852036 
	C373.789917,163.570358 371.226959,173.203461 369.058289,182.924698 
	C365.940765,196.899414 362.964264,210.906525 360.044434,224.924133 
	C356.630341,241.314651 353.284485,257.720062 350.051849,274.147125 
	C349.471954,277.093964 348.257507,278.070251 345.196289,278.066803 
	C269.054016,277.981659 192.911606,277.978729 116.769356,278.069031 
	C113.323265,278.073120 112.382324,276.713898 111.941811,273.605835 
	C109.052696,253.221527 105.990814,232.861694 102.992935,212.492752 
	C100.655556,196.611542 98.467476,180.706818 95.955185,164.853394 
	C93.855492,151.603592 91.241936,138.435181 89.148071,125.184555 
	C88.385712,120.360153 88.467216,115.402397 88.132393,110.000000 
	C95.925491,110.000000 103.712761,110.000000 112.000015,110.000000 
z"/>
<path fill="#000000" opacity="1.000000" stroke="none" 
	d="
M119.756073,392.321472 
	C112.970444,391.478302 109.331871,386.619629 106.151001,382.100037 
	C98.561363,371.316132 100.266174,358.761292 108.471649,350.438599 
	C120.345169,338.395416 138.189865,338.563477 148.675598,354.234070 
	C156.600052,366.076843 154.077530,378.075012 144.854294,386.791656 
	C138.128235,393.148315 129.591660,396.042389 119.756073,392.321472 
z"/>
<path fill="#000000" opacity="1.000000" stroke="none" 
	d="
M319.652618,381.149353 
	C312.554260,367.542419 316.013763,353.111084 329.010101,345.714111 
	C342.973022,337.766968 356.251251,342.672577 363.428802,354.375977 
	C371.474731,367.495300 368.076965,382.358704 354.422607,390.546692 
	C343.338715,397.193268 328.709045,395.126007 319.652618,381.149353 
z"/>
</svg>