<svg version="1.1" id="Layer_1" xmlns="http://www.w3.org/2000/svg" xmlns:xlink="http://www.w3.org/1999/xlink" x="0px" y="0px"
	 width="100%" viewBox="0 0 700 700" enable-background="new 0 0 700 700" xml:space="preserve">
<path fill="#FFFFFF" opacity="1.000000" stroke="none" 
	d="
M394.000000,701.000000 
	C365.312439,701.000000 336.624878,701.000000 307.461121,700.570190 
	C303.754761,699.095337 300.576324,697.381104 297.285034,697.126709 
	C285.934967,696.249451 275.005157,693.876221 264.268127,690.092163 
	C257.635040,687.754517 250.551147,686.691040 243.928925,684.328796 
	C236.421082,681.650635 229.214584,678.132629 221.854645,675.032959 
	C216.988327,672.983398 212.049789,671.103210 207.205231,669.004761 
	C203.561371,667.426575 199.845825,665.903503 196.459961,663.862000 
	C188.515930,659.072327 180.673203,654.103455 172.931732,648.991699 
	C162.243607,641.934204 151.313736,635.161316 141.194275,627.350708 
	C133.481674,621.397766 126.694527,614.192871 119.805733,607.237854 
	C109.117546,596.446960 97.732506,586.322571 89.473541,573.256653 
	C85.116898,566.364319 79.079308,560.552734 74.481506,553.790283 
	C67.681847,543.789246 61.080494,533.604370 55.176552,523.060059 
	C51.091103,515.763489 48.898232,507.408508 44.824841,500.103485 
	C39.522961,490.595367 35.661224,480.639648 32.680214,470.258972 
	C32.325615,469.024109 32.173389,467.728149 31.780045,466.507965 
	C28.539799,456.456940 24.894062,446.517975 22.123684,436.340271 
	C20.098774,428.901215 19.061077,421.176208 17.853088,413.536011 
	C16.107485,402.495605 13.379245,391.431763 13.242276,380.351044 
	C12.901628,352.792908 11.401186,325.132751 16.007387,297.719086 
	C16.088001,297.239319 16.224928,296.769257 16.325289,296.292511 
	C17.550791,290.470825 18.722282,284.637207 20.013285,278.830109 
	C21.266420,273.193359 23.116913,267.645599 23.858469,261.948578 
	C25.160618,251.944794 28.865219,242.714218 32.008842,233.282516 
	C34.389076,226.141190 36.107315,218.709534 39.183704,211.886612 
	C43.589989,202.114243 48.916298,192.752777 53.942314,183.264893 
	C58.449154,174.757050 62.529049,165.953384 67.790672,157.931824 
	C75.182434,146.662750 83.172874,135.744400 91.510773,125.151070 
	C98.305229,116.518684 105.763588,108.372513 113.340515,100.403389 
	C119.847206,93.559906 126.689949,86.983665 133.843918,80.823250 
	C140.408493,75.170372 147.468918,70.065041 154.528275,65.022842 
	C161.813644,59.819206 169.320770,54.921036 176.808121,50.006920 
	C181.927277,46.647118 187.054459,43.264259 192.405762,40.303265 
	C197.876022,37.276459 203.566284,34.623615 209.269562,32.049271 
	C213.607956,30.091009 218.144501,28.576933 222.544662,26.749109 
	C229.498825,23.860365 236.323242,20.634857 243.371933,18.006006 
	C248.911789,15.939889 254.677795,14.450257 260.396362,12.900208 
	C269.206573,10.512171 278.013153,8.073757 286.914856,6.072938 
	C293.361084,4.624029 299.962463,3.869197 306.476807,2.705152 
	C306.744232,2.657371 306.829742,1.591531 307.000000,1.000000 
	C335.687561,1.000000 364.375122,1.000000 393.228882,1.373766 
	C397.205383,2.830814 400.971466,4.119428 404.835724,4.952386 
	C411.759369,6.444810 418.691437,8.198905 425.712738,8.862678 
	C434.860687,9.727501 443.163086,12.980840 451.715698,15.861440 
	C461.285126,19.084517 470.954437,21.704456 479.865814,26.808710 
	C486.210266,30.442686 493.587982,32.239334 500.065063,35.682621 
	C511.558990,41.792912 522.747437,48.482491 533.996887,55.044270 
	C536.479004,56.492092 538.726074,58.361526 541.005432,60.134506 
	C546.786316,64.631065 552.574158,69.121101 558.265869,73.729057 
	C564.898315,79.098541 571.904541,84.119232 577.900574,90.136246 
	C587.719910,99.989944 597.128967,110.290436 606.192383,120.847763 
	C613.663696,129.550629 621.035583,138.473480 627.286072,148.058807 
	C637.031128,163.003128 646.488525,178.226669 654.724060,194.032028 
	C660.369141,204.865799 663.765015,216.876282 668.088745,228.389877 
	C668.932312,230.636368 669.328979,233.046753 670.085938,235.330460 
	C673.358704,245.204178 677.121277,254.940826 679.856812,264.959137 
	C681.930481,272.553436 682.837952,280.479858 684.056030,288.290924 
	C685.803467,299.496185 688.841248,310.749817 688.698730,321.949341 
	C688.380066,347.000519 691.784180,372.211670 686.097961,397.125610 
	C684.159729,405.617676 683.550232,414.404236 681.942810,422.982971 
	C680.285645,431.827423 678.648376,440.728851 676.109863,449.342285 
	C672.410400,461.894745 668.107727,474.282043 663.680176,486.602509 
	C661.139282,493.673004 658.204895,500.656097 654.800476,507.349304 
	C650.044922,516.698975 644.988586,525.927429 639.507446,534.868347 
	C632.439026,546.398254 625.204224,557.866394 617.313721,568.838074 
	C611.795471,576.511230 605.199890,583.436096 598.826355,590.460083 
	C592.485840,597.447571 585.972595,604.294617 579.248962,610.912537 
	C574.383728,615.701355 569.124878,620.102478 563.904785,624.514771 
	C559.240662,628.457092 554.594666,632.477356 549.570679,635.923950 
	C542.635742,640.681641 535.387756,644.989136 528.211060,649.386963 
	C519.000732,655.031128 509.910583,660.911011 500.419983,666.044861 
	C493.735260,669.660950 486.448486,672.155151 479.470245,675.240112 
	C473.006592,678.097595 466.729431,681.433655 460.122406,683.893616 
	C453.985443,686.178589 447.528778,687.611938 441.195984,689.358948 
	C439.646027,689.786499 438.005341,689.880798 436.448883,690.289917 
	C429.327667,692.161865 422.282257,694.374146 415.092346,695.918152 
	C408.308044,697.374939 401.374268,698.131897 394.522888,699.294983 
	C394.259705,699.339661 394.170349,700.408447 394.000000,701.000000 
M515.516968,86.000252 
	C514.525574,85.070953 513.671753,83.895195 512.520447,83.252403 
	C505.080414,79.098694 497.661987,74.891075 490.068481,71.031609 
	C481.782776,66.820351 473.419495,62.726650 464.897247,59.025719 
	C456.527313,55.390942 448.039490,51.931915 439.370697,49.110775 
	C432.252075,46.794113 424.783600,45.561176 417.485779,43.784012 
	C409.729797,41.895275 402.072723,39.449020 394.223572,38.136906 
	C386.491302,36.844322 378.566345,36.043034 370.736633,36.119667 
	C348.213898,36.340115 325.654694,34.788559 303.257812,39.737480 
	C292.624176,42.087135 281.771210,43.437725 271.397858,47.000992 
	C263.529083,49.703922 255.737656,52.714970 247.721466,54.886108 
	C235.911575,58.084759 225.603271,64.233574 214.913177,69.827545 
	C204.136429,75.466843 193.894882,81.787849 183.618652,88.263412 
	C173.798477,94.451591 165.524994,102.418266 156.032028,108.916748 
	C148.857651,113.828018 143.019806,120.872017 137.150452,127.468071 
	C127.823883,137.949387 118.275017,148.349487 110.088295,159.698700 
	C100.054535,173.608459 90.790878,188.151688 82.229446,203.017212 
	C76.834969,212.383850 73.034248,222.724274 69.076195,232.845917 
	C65.404640,242.234863 62.422512,251.896576 59.268970,261.481659 
	C58.769707,262.999207 59.191803,264.800873 58.806644,266.378052 
	C56.601528,275.407806 53.940178,284.341095 52.116413,293.443909 
	C50.838875,299.820404 50.759277,306.428772 49.947704,312.908905 
	C49.086384,319.786255 47.276749,326.619568 47.133751,333.498138 
	C46.699192,354.402222 46.401821,375.338806 49.989044,396.079437 
	C50.984058,401.832397 51.509697,407.683838 52.807907,413.362762 
	C54.590939,421.162445 56.804096,428.869751 59.017265,436.563629 
	C61.583530,445.484985 63.879017,454.526886 67.155884,463.189697 
	C70.716133,472.601746 75.667183,481.485352 79.277275,490.881561 
	C82.834328,500.139801 87.863472,508.508362 92.988861,516.872070 
	C96.176254,522.073303 99.366341,527.286682 102.849998,532.289368 
	C107.415710,538.845825 112.231384,545.231079 117.088531,551.575928 
	C117.438316,552.032837 119.530861,551.960022 119.914154,551.453369 
	C122.037956,548.646301 123.583176,545.365784 125.885231,542.736572 
	C130.976791,536.921387 136.274200,531.271667 141.718597,525.783508 
	C150.338089,517.094666 158.975143,508.408295 167.948517,500.091766 
	C172.377869,495.986633 177.848145,493.015381 182.357758,488.983398 
	C188.125717,483.826324 194.525131,479.739990 201.197739,475.958893 
	C209.335800,471.347382 217.317734,466.448364 225.569565,462.053711 
	C231.641815,458.819855 237.934540,455.936005 244.319992,453.371765 
	C251.137909,450.633789 258.103973,448.199585 265.143738,446.095764 
	C273.889160,443.482208 282.751160,441.240967 291.615265,439.051239 
	C295.063232,438.199493 298.647156,437.873566 302.181519,437.400696 
	C310.868134,436.238495 319.533478,434.623199 328.260315,434.132690 
	C338.390198,433.563354 348.578766,433.869202 358.737915,434.034729 
	C370.187073,434.221252 381.641205,433.307068 392.959503,436.819763 
	C400.297638,439.097168 408.252228,439.304596 415.774414,441.095612 
	C423.703278,442.983429 431.346893,446.096191 439.293823,447.875488 
	C451.496002,450.607483 462.666962,455.816406 473.892365,460.985535 
	C477.526276,462.658844 481.246307,464.218231 484.669006,466.261719 
	C491.498260,470.339081 498.215912,474.613983 504.856293,478.994354 
	C512.813843,484.243591 520.902649,489.350189 528.446472,495.153107 
	C534.696411,499.960663 540.428467,505.496613 546.048157,511.055420 
	C554.161194,519.080444 562.205505,527.203003 569.810608,535.703125 
	C574.351074,540.777893 577.960632,546.680847 582.100342,552.126648 
	C582.502686,552.655884 584.183838,553.017883 584.443054,552.724854 
	C586.732544,550.136353 589.066895,547.533569 590.947693,544.648010 
	C596.190002,536.605347 600.488098,527.820312 606.548035,520.474365 
	C612.269165,513.539062 615.531738,505.430084 619.801575,497.864258 
	C624.451111,489.625671 627.486755,480.462250 631.062683,471.635803 
	C634.492371,463.170380 638.048462,454.731628 640.923096,446.073334 
	C643.393860,438.631653 645.131531,430.931610 646.909363,423.279846 
	C648.183838,417.794312 649.139709,412.222046 649.963379,406.647949 
	C650.820923,400.844666 651.294495,394.985809 652.034485,389.163727 
	C652.970947,381.795624 654.740967,374.452209 654.861694,367.077026 
	C655.216614,345.393829 655.779358,323.673676 651.070374,302.236176 
	C648.683044,291.367920 647.355591,280.263733 644.877258,269.419708 
	C643.243958,262.273285 640.384705,255.409760 638.128845,248.402023 
	C636.361877,242.913101 635.125732,237.204025 632.850830,231.939713 
	C629.628296,224.482758 624.854980,217.627350 622.205566,210.006882 
	C617.856262,197.497330 610.559326,186.637924 603.632568,175.741089 
	C595.232727,162.526825 585.684082,149.854233 575.264343,138.167053 
	C565.363831,127.062332 553.853149,117.359200 542.750000,107.373932 
	C536.431091,101.691261 529.506836,96.682259 522.862427,91.360794 
	C520.664551,89.600586 518.489380,87.812080 515.516968,86.000252 
M433.683594,654.002502 
	C435.141418,653.830933 436.689423,653.916992 438.041687,653.443787 
	C444.383881,651.224304 450.727081,648.988403 456.965210,646.496216 
	C463.954590,643.703979 471.014069,640.989685 477.711548,637.588684 
	C486.317474,633.218628 494.638428,628.276306 502.994293,623.429138 
	C507.774628,620.656128 512.474365,617.720154 517.041382,614.609497 
	C522.807739,610.681946 528.442505,606.556580 534.057190,602.412476 
	C538.370422,599.229004 542.666748,596.006775 546.781433,592.574951 
	C550.425049,589.536011 554.012573,586.369568 557.185791,582.862122 
	C558.190613,581.751587 558.612000,578.825317 557.859619,577.660706 
	C555.828735,574.517151 552.994263,571.898560 550.529236,569.028320 
	C543.097107,560.374207 535.902893,551.502869 528.186829,543.110718 
	C523.935791,538.487244 518.838745,534.638489 514.095337,530.471924 
	C509.344421,526.298767 504.820190,521.805176 499.723053,518.104187 
	C493.251343,513.405090 486.393066,509.212585 479.532013,505.083160 
	C473.604370,501.515564 467.527893,498.166809 461.349579,495.054016 
	C457.104156,492.915100 452.550446,491.395264 448.172882,489.509705 
	C441.684174,486.714783 435.386749,483.372925 428.716431,481.131104 
	C421.898346,478.839661 414.745026,477.522827 407.708740,475.908997 
	C398.822113,473.870789 389.990723,471.127167 380.980469,470.208740 
	C369.320923,469.020264 357.493195,468.808075 345.765900,469.146576 
	C333.863251,469.490173 321.990448,470.969116 310.114471,472.058380 
	C307.383698,472.308838 304.651978,472.837311 301.992065,473.517151 
	C294.734375,475.372131 287.495300,477.307129 280.285919,479.341797 
	C273.660736,481.211609 266.830627,482.662994 260.547211,485.361511 
	C251.965225,489.047150 243.817200,493.742676 235.480057,497.999237 
	C229.499557,501.052612 223.158463,503.563690 217.613083,507.267273 
	C209.064163,512.976807 200.839752,519.233582 192.892426,525.763123 
	C186.547775,530.975769 180.614594,536.739563 174.877457,542.627686 
	C168.827713,548.836792 163.191620,555.452026 157.441223,561.948608 
	C152.686157,567.320679 147.905411,572.682007 143.469757,578.311035 
	C142.862305,579.081909 143.882660,581.563904 144.714081,582.903015 
	C145.365616,583.952393 146.972916,584.360474 148.012802,585.225220 
	C151.807114,588.380371 155.497421,591.661194 159.310974,594.792358 
	C163.157974,597.950928 167.063980,601.041321 171.017242,604.066040 
	C177.581787,609.088745 183.994125,614.352417 190.868317,618.915344 
	C196.604919,622.723022 202.932007,625.635376 208.960495,629.010498 
	C216.606949,633.291565 223.950165,638.231201 231.909348,641.806763 
	C241.525009,646.126465 251.544785,649.635376 261.584473,652.895325 
	C270.223022,655.700317 279.106201,657.780457 287.936279,659.957947 
	C294.178284,661.497192 300.457520,663.111450 306.818298,663.888977 
	C315.765839,664.982788 324.805023,665.898621 333.803833,665.887878 
	C355.826324,665.861572 377.871338,666.916687 399.739716,662.208984 
	C410.873047,659.812195 422.139221,658.196228 433.683594,654.002502 
z"/>
<path fill="#000000" opacity="1.000000" stroke="none" 
	d="
M394.468628,701.000000 
	C394.170349,700.408447 394.259705,699.339661 394.522888,699.294983 
	C401.374268,698.131897 408.308044,697.374939 415.092346,695.918152 
	C422.282257,694.374146 429.327667,692.161865 436.448883,690.289917 
	C438.005341,689.880798 439.646027,689.786499 441.195984,689.358948 
	C447.528778,687.611938 453.985443,686.178589 460.122406,683.893616 
	C466.729431,681.433655 473.006592,678.097595 479.470245,675.240112 
	C486.448486,672.155151 493.735260,669.660950 500.419983,666.044861 
	C509.910583,660.911011 519.000732,655.031128 528.211060,649.386963 
	C535.387756,644.989136 542.635742,640.681641 549.570679,635.923950 
	C554.594666,632.477356 559.240662,628.457092 563.904785,624.514771 
	C569.124878,620.102478 574.383728,615.701355 579.248962,610.912537 
	C585.972595,604.294617 592.485840,597.447571 598.826355,590.460083 
	C605.199890,583.436096 611.795471,576.511230 617.313721,568.838074 
	C625.204224,557.866394 632.439026,546.398254 639.507446,534.868347 
	C644.988586,525.927429 650.044922,516.698975 654.800476,507.349304 
	C658.204895,500.656097 661.139282,493.673004 663.680176,486.602509 
	C668.107727,474.282043 672.410400,461.894745 676.109863,449.342285 
	C678.648376,440.728851 680.285645,431.827423 681.942810,422.982971 
	C683.550232,414.404236 684.159729,405.617676 686.097961,397.125610 
	C691.784180,372.211670 688.380066,347.000519 688.698730,321.949341 
	C688.841248,310.749817 685.803467,299.496185 684.056030,288.290924 
	C682.837952,280.479858 681.930481,272.553436 679.856812,264.959137 
	C677.121277,254.940826 673.358704,245.204178 670.085938,235.330460 
	C669.328979,233.046753 668.932312,230.636368 668.088745,228.389877 
	C663.765015,216.876282 660.369141,204.865799 654.724060,194.032028 
	C646.488525,178.226669 637.031128,163.003128 627.286072,148.058807 
	C621.035583,138.473480 613.663696,129.550629 606.192383,120.847763 
	C597.128967,110.290436 587.719910,99.989944 577.900574,90.136246 
	C571.904541,84.119232 564.898315,79.098541 558.265869,73.729057 
	C552.574158,69.121101 546.786316,64.631065 541.005432,60.134506 
	C538.726074,58.361526 536.479004,56.492092 533.996887,55.044270 
	C522.747437,48.482491 511.558990,41.792912 500.065063,35.682621 
	C493.587982,32.239334 486.210266,30.442686 479.865814,26.808710 
	C470.954437,21.704456 461.285126,19.084517 451.715698,15.861440 
	C443.163086,12.980840 434.860687,9.727501 425.712738,8.862678 
	C418.691437,8.198905 411.759369,6.444810 404.835724,4.952386 
	C400.971466,4.119428 397.205383,2.830814 393.697540,1.373766 
	C496.299286,1.000000 598.598572,1.000000 700.948914,1.000000 
	C700.948914,234.221588 700.948914,467.443207 700.948914,701.000000 
	C598.979370,701.000000 496.958344,701.000000 394.468628,701.000000 
z"/>
<path fill="#000000" opacity="1.000000" stroke="none" 
	d="
M306.531342,1.000000 
	C306.829742,1.591531 306.744232,2.657371 306.476807,2.705152 
	C299.962463,3.869197 293.361084,4.624029 286.914856,6.072938 
	C278.013153,8.073757 269.206573,10.512171 260.396362,12.900208 
	C254.677795,14.450257 248.911789,15.939889 243.371933,18.006006 
	C236.323242,20.634857 229.498825,23.860365 222.544662,26.749109 
	C218.144501,28.576933 213.607956,30.091009 209.269562,32.049271 
	C203.566284,34.623615 197.876022,37.276459 192.405762,40.303265 
	C187.054459,43.264259 181.927277,46.647118 176.808121,50.006920 
	C169.320770,54.921036 161.813644,59.819206 154.528275,65.022842 
	C147.468918,70.065041 140.408493,75.170372 133.843918,80.823250 
	C126.689949,86.983665 119.847206,93.559906 113.340515,100.403389 
	C105.763588,108.372513 98.305229,116.518684 91.510773,125.151070 
	C83.172874,135.744400 75.182434,146.662750 67.790672,157.931824 
	C62.529049,165.953384 58.449154,174.757050 53.942314,183.264893 
	C48.916298,192.752777 43.589989,202.114243 39.183704,211.886612 
	C36.107315,218.709534 34.389076,226.141190 32.008842,233.282516 
	C28.865219,242.714218 25.160618,251.944794 23.858469,261.948578 
	C23.116913,267.645599 21.266420,273.193359 20.013285,278.830109 
	C18.722282,284.637207 17.550791,290.470825 16.325289,296.292511 
	C16.224928,296.769257 16.088001,297.239319 16.007387,297.719086 
	C11.401186,325.132751 12.901628,352.792908 13.242276,380.351044 
	C13.379245,391.431763 16.107485,402.495605 17.853088,413.536011 
	C19.061077,421.176208 20.098774,428.901215 22.123684,436.340271 
	C24.894062,446.517975 28.539799,456.456940 31.780045,466.507965 
	C32.173389,467.728149 32.325615,469.024109 32.680214,470.258972 
	C35.661224,480.639648 39.522961,490.595367 44.824841,500.103485 
	C48.898232,507.408508 51.091103,515.763489 55.176552,523.060059 
	C61.080494,533.604370 67.681847,543.789246 74.481506,553.790283 
	C79.079308,560.552734 85.116898,566.364319 89.473541,573.256653 
	C97.732506,586.322571 109.117546,596.446960 119.805733,607.237854 
	C126.694527,614.192871 133.481674,621.397766 141.194275,627.350708 
	C151.313736,635.161316 162.243607,641.934204 172.931732,648.991699 
	C180.673203,654.103455 188.515930,659.072327 196.459961,663.862000 
	C199.845825,665.903503 203.561371,667.426575 207.205231,669.004761 
	C212.049789,671.103210 216.988327,672.983398 221.854645,675.032959 
	C229.214584,678.132629 236.421082,681.650635 243.928925,684.328796 
	C250.551147,686.691040 257.635040,687.754517 264.268127,690.092163 
	C275.005157,693.876221 285.934967,696.249451 297.285034,697.126709 
	C300.576324,697.381104 303.754761,699.095337 306.992462,700.570190 
	C205.033981,701.000000 103.067970,701.000000 1.050978,701.000000 
	C1.050978,467.778412 1.050978,234.556793 1.050978,1.000000 
	C102.687317,1.000000 204.375000,1.000000 306.531342,1.000000 
z"/>
<path fill="#000000" opacity="1.000000" stroke="none" 
	d="
M515.910400,86.018379 
	C518.489380,87.812080 520.664551,89.600586 522.862427,91.360794 
	C529.506836,96.682259 536.431091,101.691261 542.750000,107.373932 
	C553.853149,117.359200 565.363831,127.062332 575.264343,138.167053 
	C585.684082,149.854233 595.232727,162.526825 603.632568,175.741089 
	C610.559326,186.637924 617.856262,197.497330 622.205566,210.006882 
	C624.854980,217.627350 629.628296,224.482758 632.850830,231.939713 
	C635.125732,237.204025 636.361877,242.913101 638.128845,248.402023 
	C640.384705,255.409760 643.243958,262.273285 644.877258,269.419708 
	C647.355591,280.263733 648.683044,291.367920 651.070374,302.236176 
	C655.779358,323.673676 655.216614,345.393829 654.861694,367.077026 
	C654.740967,374.452209 652.970947,381.795624 652.034485,389.163727 
	C651.294495,394.985809 650.820923,400.844666 649.963379,406.647949 
	C649.139709,412.222046 648.183838,417.794312 646.909363,423.279846 
	C645.131531,430.931610 643.393860,438.631653 640.923096,446.073334 
	C638.048462,454.731628 634.492371,463.170380 631.062683,471.635803 
	C627.486755,480.462250 624.451111,489.625671 619.801575,497.864258 
	C615.531738,505.430084 612.269165,513.539062 606.548035,520.474365 
	C600.488098,527.820312 596.190002,536.605347 590.947693,544.648010 
	C589.066895,547.533569 586.732544,550.136353 584.443054,552.724854 
	C584.183838,553.017883 582.502686,552.655884 582.100342,552.126648 
	C577.960632,546.680847 574.351074,540.777893 569.810608,535.703125 
	C562.205505,527.203003 554.161194,519.080444 546.048157,511.055420 
	C540.428467,505.496613 534.696411,499.960663 528.446472,495.153107 
	C520.902649,489.350189 512.813843,484.243591 504.856293,478.994354 
	C498.215912,474.613983 491.498260,470.339081 484.669006,466.261719 
	C481.246307,464.218231 477.526276,462.658844 473.892365,460.985535 
	C462.666962,455.816406 451.496002,450.607483 439.293823,447.875488 
	C431.346893,446.096191 423.703278,442.983429 415.774414,441.095612 
	C408.252228,439.304596 400.297638,439.097168 392.959503,436.819763 
	C381.641205,433.307068 370.187073,434.221252 358.737915,434.034729 
	C348.578766,433.869202 338.390198,433.563354 328.260315,434.132690 
	C319.533478,434.623199 310.868134,436.238495 302.181519,437.400696 
	C298.647156,437.873566 295.063232,438.199493 291.615265,439.051239 
	C282.751160,441.240967 273.889160,443.482208 265.143738,446.095764 
	C258.103973,448.199585 251.137909,450.633789 244.319992,453.371765 
	C237.934540,455.936005 231.641815,458.819855 225.569565,462.053711 
	C217.317734,466.448364 209.335800,471.347382 201.197739,475.958893 
	C194.525131,479.739990 188.125717,483.826324 182.357758,488.983398 
	C177.848145,493.015381 172.377869,495.986633 167.948517,500.091766 
	C158.975143,508.408295 150.338089,517.094666 141.718597,525.783508 
	C136.274200,531.271667 130.976791,536.921387 125.885231,542.736572 
	C123.583176,545.365784 122.037956,548.646301 119.914154,551.453369 
	C119.530861,551.960022 117.438316,552.032837 117.088531,551.575928 
	C112.231384,545.231079 107.415710,538.845825 102.849998,532.289368 
	C99.366341,527.286682 96.176254,522.073303 92.988861,516.872070 
	C87.863472,508.508362 82.834328,500.139801 79.277275,490.881561 
	C75.667183,481.485352 70.716133,472.601746 67.155884,463.189697 
	C63.879017,454.526886 61.583530,445.484985 59.017265,436.563629 
	C56.804096,428.869751 54.590939,421.162445 52.807907,413.362762 
	C51.509697,407.683838 50.984058,401.832397 49.989044,396.079437 
	C46.401821,375.338806 46.699192,354.402222 47.133751,333.498138 
	C47.276749,326.619568 49.086384,319.786255 49.947704,312.908905 
	C50.759277,306.428772 50.838875,299.820404 52.116413,293.443909 
	C53.940178,284.341095 56.601528,275.407806 58.806644,266.378052 
	C59.191803,264.800873 58.769707,262.999207 59.268970,261.481659 
	C62.422512,251.896576 65.404640,242.234863 69.076195,232.845917 
	C73.034248,222.724274 76.834969,212.383850 82.229446,203.017212 
	C90.790878,188.151688 100.054535,173.608459 110.088295,159.698700 
	C118.275017,148.349487 127.823883,137.949387 137.150452,127.468071 
	C143.019806,120.872017 148.857651,113.828018 156.032028,108.916748 
	C165.524994,102.418266 173.798477,94.451591 183.618652,88.263412 
	C193.894882,81.787849 204.136429,75.466843 214.913177,69.827545 
	C225.603271,64.233574 235.911575,58.084759 247.721466,54.886108 
	C255.737656,52.714970 263.529083,49.703922 271.397858,47.000992 
	C281.771210,43.437725 292.624176,42.087135 303.257812,39.737480 
	C325.654694,34.788559 348.213898,36.340115 370.736633,36.119667 
	C378.566345,36.043034 386.491302,36.844322 394.223572,38.136906 
	C402.072723,39.449020 409.729797,41.895275 417.485779,43.784012 
	C424.783600,45.561176 432.252075,46.794113 439.370697,49.110775 
	C448.039490,51.931915 456.527313,55.390942 464.897247,59.025719 
	C473.419495,62.726650 481.782776,66.820351 490.068481,71.031609 
	C497.661987,74.891075 505.080414,79.098694 512.520447,83.252403 
	C513.671753,83.895195 514.525574,85.070953 515.910400,86.018379 
M429.536774,123.947083 
	C427.613922,122.719398 425.754608,121.375023 423.756165,120.286102 
	C417.964325,117.130272 412.264221,113.742622 406.245544,111.086075 
	C401.147186,108.835747 395.735291,107.158035 390.318817,105.797432 
	C381.638611,103.616959 372.876343,100.572723 364.082153,100.332611 
	C352.676178,100.021164 341.054779,98.067024 329.653320,101.874725 
	C323.597015,103.897339 317.002686,104.262367 310.853546,106.065529 
	C303.043152,108.355820 295.380035,111.194588 287.772675,114.108231 
	C284.691376,115.288368 281.822113,117.133110 279.038330,118.953651 
	C274.605530,121.852608 270.224457,124.851799 266.004761,128.050354 
	C260.327789,132.353516 254.251663,136.343277 249.399734,141.464981 
	C243.947525,147.220383 239.518646,153.981293 234.918869,160.498352 
	C229.954453,167.532059 224.456757,174.377380 220.735718,182.053375 
	C216.015594,191.790298 212.054230,202.068466 209.265915,212.513733 
	C207.020920,220.923767 206.192123,229.928101 206.184036,238.670074 
	C206.170807,252.994125 206.854675,267.364471 208.201035,281.625000 
	C208.883316,288.851562 211.107025,296.082550 213.627792,302.946533 
	C216.597961,311.034210 220.377121,318.863678 224.315201,326.543762 
	C227.070892,331.917938 230.203430,337.246460 234.021393,341.894043 
	C239.837631,348.974030 246.135513,355.711670 252.708878,362.100830 
	C258.841736,368.061859 265.027802,374.306641 272.225128,378.750854 
	C281.831696,384.682739 292.185089,389.624878 302.680115,393.841187 
	C315.113586,398.836243 328.343964,401.198486 341.755859,401.969116 
	C356.892639,402.838867 371.870728,401.447083 386.623749,397.955170 
	C391.606445,396.775787 396.742035,395.762146 401.375793,393.701416 
	C408.297455,390.623291 414.634155,386.210449 421.593597,383.242157 
	C429.065216,380.055328 434.932556,374.845123 440.965576,369.810944 
	C445.723053,365.841125 449.931183,361.220428 454.577820,357.108673 
	C462.594543,350.014740 468.395905,341.215820 473.952332,332.249969 
	C476.127899,328.739441 477.708984,324.853424 479.477051,321.098938 
	C482.685211,314.286499 486.384735,307.637573 488.849792,300.561768 
	C491.422882,293.175812 494.091064,285.421173 494.409912,277.731995 
	C495.165924,259.500458 495.361115,241.159195 494.161438,222.969208 
	C493.553162,213.745926 489.621094,204.695740 486.825134,195.681000 
	C485.271820,190.672821 483.583008,185.519135 480.870270,181.096527 
	C474.939178,171.426987 468.476044,162.069077 461.934723,152.792221 
	C453.546967,140.896759 442.074707,132.284134 429.536774,123.947083 
z"/>
<path fill="#000000" opacity="1.000000" stroke="none" 
	d="
M433.250397,654.017212 
	C422.139221,658.196228 410.873047,659.812195 399.739716,662.208984 
	C377.871338,666.916687 355.826324,665.861572 333.803833,665.887878 
	C324.805023,665.898621 315.765839,664.982788 306.818298,663.888977 
	C300.457520,663.111450 294.178284,661.497192 287.936279,659.957947 
	C279.106201,657.780457 270.223022,655.700317 261.584473,652.895325 
	C251.544785,649.635376 241.525009,646.126465 231.909348,641.806763 
	C223.950165,638.231201 216.606949,633.291565 208.960495,629.010498 
	C202.932007,625.635376 196.604919,622.723022 190.868317,618.915344 
	C183.994125,614.352417 177.581787,609.088745 171.017242,604.066040 
	C167.063980,601.041321 163.157974,597.950928 159.310974,594.792358 
	C155.497421,591.661194 151.807114,588.380371 148.012802,585.225220 
	C146.972916,584.360474 145.365616,583.952393 144.714081,582.903015 
	C143.882660,581.563904 142.862305,579.081909 143.469757,578.311035 
	C147.905411,572.682007 152.686157,567.320679 157.441223,561.948608 
	C163.191620,555.452026 168.827713,548.836792 174.877457,542.627686 
	C180.614594,536.739563 186.547775,530.975769 192.892426,525.763123 
	C200.839752,519.233582 209.064163,512.976807 217.613083,507.267273 
	C223.158463,503.563690 229.499557,501.052612 235.480057,497.999237 
	C243.817200,493.742676 251.965225,489.047150 260.547211,485.361511 
	C266.830627,482.662994 273.660736,481.211609 280.285919,479.341797 
	C287.495300,477.307129 294.734375,475.372131 301.992065,473.517151 
	C304.651978,472.837311 307.383698,472.308838 310.114471,472.058380 
	C321.990448,470.969116 333.863251,469.490173 345.765900,469.146576 
	C357.493195,468.808075 369.320923,469.020264 380.980469,470.208740 
	C389.990723,471.127167 398.822113,473.870789 407.708740,475.908997 
	C414.745026,477.522827 421.898346,478.839661 428.716431,481.131104 
	C435.386749,483.372925 441.684174,486.714783 448.172882,489.509705 
	C452.550446,491.395264 457.104156,492.915100 461.349579,495.054016 
	C467.527893,498.166809 473.604370,501.515564 479.532013,505.083160 
	C486.393066,509.212585 493.251343,513.405090 499.723053,518.104187 
	C504.820190,521.805176 509.344421,526.298767 514.095337,530.471924 
	C518.838745,534.638489 523.935791,538.487244 528.186829,543.110718 
	C535.902893,551.502869 543.097107,560.374207 550.529236,569.028320 
	C552.994263,571.898560 555.828735,574.517151 557.859619,577.660706 
	C558.612000,578.825317 558.190613,581.751587 557.185791,582.862122 
	C554.012573,586.369568 550.425049,589.536011 546.781433,592.574951 
	C542.666748,596.006775 538.370422,599.229004 534.057190,602.412476 
	C528.442505,606.556580 522.807739,610.681946 517.041382,614.609497 
	C512.474365,617.720154 507.774628,620.656128 502.994293,623.429138 
	C494.638428,628.276306 486.317474,633.218628 477.711548,637.588684 
	C471.014069,640.989685 463.954590,643.703979 456.965210,646.496216 
	C450.727081,648.988403 444.383881,651.224304 438.041687,653.443787 
	C436.689423,653.916992 435.141418,653.830933 433.250397,654.017212 
z"/>
<path fill="#FFFFFF" opacity="1.000000" stroke="none" 
	d="
M429.929138,123.988831 
	C442.074707,132.284134 453.546967,140.896759 461.934723,152.792221 
	C468.476044,162.069077 474.939178,171.426987 480.870270,181.096527 
	C483.583008,185.519135 485.271820,190.672821 486.825134,195.681000 
	C489.621094,204.695740 493.553162,213.745926 494.161438,222.969208 
	C495.361115,241.159195 495.165924,259.500458 494.409912,277.731995 
	C494.091064,285.421173 491.422882,293.175812 488.849792,300.561768 
	C486.384735,307.637573 482.685211,314.286499 479.477051,321.098938 
	C477.708984,324.853424 476.127899,328.739441 473.952332,332.249969 
	C468.395905,341.215820 462.594543,350.014740 454.577820,357.108673 
	C449.931183,361.220428 445.723053,365.841125 440.965576,369.810944 
	C434.932556,374.845123 429.065216,380.055328 421.593597,383.242157 
	C414.634155,386.210449 408.297455,390.623291 401.375793,393.701416 
	C396.742035,395.762146 391.606445,396.775787 386.623749,397.955170 
	C371.870728,401.447083 356.892639,402.838867 341.755859,401.969116 
	C328.343964,401.198486 315.113586,398.836243 302.680115,393.841187 
	C292.185089,389.624878 281.831696,384.682739 272.225128,378.750854 
	C265.027802,374.306641 258.841736,368.061859 252.708878,362.100830 
	C246.135513,355.711670 239.837631,348.974030 234.021393,341.894043 
	C230.203430,337.246460 227.070892,331.917938 224.315201,326.543762 
	C220.377121,318.863678 216.597961,311.034210 213.627792,302.946533 
	C211.107025,296.082550 208.883316,288.851562 208.201035,281.625000 
	C206.854675,267.364471 206.170807,252.994125 206.184036,238.670074 
	C206.192123,229.928101 207.020920,220.923767 209.265915,212.513733 
	C212.054230,202.068466 216.015594,191.790298 220.735718,182.053375 
	C224.456757,174.377380 229.954453,167.532059 234.918869,160.498352 
	C239.518646,153.981293 243.947525,147.220383 249.399734,141.464981 
	C254.251663,136.343277 260.327789,132.353516 266.004761,128.050354 
	C270.224457,124.851799 274.605530,121.852608 279.038330,118.953651 
	C281.822113,117.133110 284.691376,115.288368 287.772675,114.108231 
	C295.380035,111.194588 303.043152,108.355820 310.853546,106.065529 
	C317.002686,104.262367 323.597015,103.897339 329.653320,101.874725 
	C341.054779,98.067024 352.676178,100.021164 364.082153,100.332611 
	C372.876343,100.572723 381.638611,103.616959 390.318817,105.797432 
	C395.735291,107.158035 401.147186,108.835747 406.245544,111.086075 
	C412.264221,113.742622 417.964325,117.130272 423.756165,120.286102 
	C425.754608,121.375023 427.613922,122.719398 429.929138,123.988831 
M263.028931,179.758759 
	C262.825867,180.532349 262.814178,181.437363 262.388092,182.057755 
	C259.980713,185.562790 256.872223,188.721512 255.119705,192.514389 
	C250.766632,201.935532 246.301498,211.414459 243.250107,221.292969 
	C240.794357,229.243210 239.853378,237.772644 239.177933,246.120941 
	C238.753632,251.365158 239.781113,256.764130 240.496979,262.087402 
	C241.802063,271.792297 243.682632,281.169769 246.718597,290.411682 
	C247.169342,291.783844 246.745224,293.535431 247.411072,294.729370 
	C250.805237,300.815308 255.007889,306.515564 257.828461,312.840912 
	C262.054962,322.319183 269.106598,329.589294 276.299835,336.343750 
	C283.888672,343.469635 292.545471,350.041321 301.838531,354.613678 
	C312.221924,359.722534 323.748871,362.650574 334.974640,365.835083 
	C339.614227,367.151245 344.767944,366.984497 349.682465,366.936951 
	C361.742126,366.820282 373.575836,365.027161 384.844421,360.557739 
	C391.992981,357.722443 399.540741,355.355927 405.913483,351.237915 
	C413.926239,346.060120 421.054871,339.462433 428.323425,333.197083 
	C438.461609,324.458191 445.068909,313.052917 450.898712,301.279297 
	C454.153687,294.705688 457.126373,287.780823 458.778625,280.677521 
	C460.935883,271.403381 462.035126,261.827118 462.828156,252.317368 
	C463.180023,248.097702 461.003723,243.701935 461.136719,239.422195 
	C461.426575,230.093918 458.825012,221.422699 455.855713,212.880402 
	C453.817200,207.015747 450.985168,201.359528 447.936127,195.931244 
	C444.439606,189.706345 440.852081,183.388123 436.322937,177.923676 
	C430.450287,170.838348 424.242401,164.112488 416.603638,158.476074 
	C409.153900,152.979111 401.809387,147.756897 393.122162,144.631714 
	C388.159576,142.846436 383.098694,141.251251 377.974426,140.017792 
	C370.178650,138.141281 362.353210,136.040573 354.417572,135.213470 
	C349.050415,134.654083 343.508850,135.525558 337.939453,136.491699 
	C330.094727,137.852539 322.607361,140.188843 314.934967,141.960480 
	C314.143219,142.143311 313.188721,141.904327 312.510559,142.252380 
	C306.066345,145.559723 299.451721,148.608246 293.319244,152.426819 
	C288.315887,155.542328 283.668274,159.347534 279.288757,163.316788 
	C273.767883,168.320465 268.679871,173.801743 263.028931,179.758759 
z"/>
<path fill="#000000" opacity="1.000000" stroke="none" 
	d="
M263.217010,179.417847 
	C268.679871,173.801743 273.767883,168.320465 279.288757,163.316788 
	C283.668274,159.347534 288.315887,155.542328 293.319244,152.426819 
	C299.451721,148.608246 306.066345,145.559723 312.510559,142.252380 
	C313.188721,141.904327 314.143219,142.143311 314.934967,141.960480 
	C322.607361,140.188843 330.094727,137.852539 337.939453,136.491699 
	C343.508850,135.525558 349.050415,134.654083 354.417572,135.213470 
	C362.353210,136.040573 370.178650,138.141281 377.974426,140.017792 
	C383.098694,141.251251 388.159576,142.846436 393.122162,144.631714 
	C401.809387,147.756897 409.153900,152.979111 416.603638,158.476074 
	C424.242401,164.112488 430.450287,170.838348 436.322937,177.923676 
	C440.852081,183.388123 444.439606,189.706345 447.936127,195.931244 
	C450.985168,201.359528 453.817200,207.015747 455.855713,212.880402 
	C458.825012,221.422699 461.426575,230.093918 461.136719,239.422195 
	C461.003723,243.701935 463.180023,248.097702 462.828156,252.317368 
	C462.035126,261.827118 460.935883,271.403381 458.778625,280.677521 
	C457.126373,287.780823 454.153687,294.705688 450.898712,301.279297 
	C445.068909,313.052917 438.461609,324.458191 428.323425,333.197083 
	C421.054871,339.462433 413.926239,346.060120 405.913483,351.237915 
	C399.540741,355.355927 391.992981,357.722443 384.844421,360.557739 
	C373.575836,365.027161 361.742126,366.820282 349.682465,366.936951 
	C344.767944,366.984497 339.614227,367.151245 334.974640,365.835083 
	C323.748871,362.650574 312.221924,359.722534 301.838531,354.613678 
	C292.545471,350.041321 283.888672,343.469635 276.299835,336.343750 
	C269.106598,329.589294 262.054962,322.319183 257.828461,312.840912 
	C255.007889,306.515564 250.805237,300.815308 247.411072,294.729370 
	C246.745224,293.535431 247.169342,291.783844 246.718597,290.411682 
	C243.682632,281.169769 241.802063,271.792297 240.496979,262.087402 
	C239.781113,256.764130 238.753632,251.365158 239.177933,246.120941 
	C239.853378,237.772644 240.794357,229.243210 243.250107,221.292969 
	C246.301498,211.414459 250.766632,201.935532 255.119705,192.514389 
	C256.872223,188.721512 259.980713,185.562790 262.388092,182.057755 
	C262.814178,181.437363 262.825867,180.532349 263.217010,179.417847 
z"/>
</svg>