<?xml version="1.0" encoding="UTF-8"?>
<!DOCTYPE svg PUBLIC "-//W3C//DTD SVG 1.1//EN" "http://www.w3.org/Graphics/SVG/1.1/DTD/svg11.dtd">
<svg xmlns="http://www.w3.org/2000/svg" version="1.1" width="2048px" height="2048px" style="shape-rendering:geometricPrecision; text-rendering:geometricPrecision; image-rendering:optimizeQuality; fill-rule:evenodd; clip-rule:evenodd" xmlns:xlink="http://www.w3.org/1999/xlink">
<g><path style="opacity:1" fill="#28a4da" d="M 1009.5,148.5 C 1121.95,149.308 1211.78,194.308 1279,283.5C 1290.23,299.463 1300.07,316.296 1308.5,334C 1325.59,329.061 1342.92,324.728 1360.5,321C 1466.93,303.93 1560.26,330.93 1640.5,402C 1714.93,482.664 1743.43,577.497 1726,686.5C 1722.27,704.078 1717.94,721.411 1713,738.5C 1813.94,789.482 1874.6,870.815 1895,982.5C 1905.26,1093.1 1869.43,1185.6 1787.5,1260C 1764.82,1279.32 1739.99,1295.48 1713,1308.5C 1745.3,1398.59 1739.63,1486.26 1696,1571.5C 1641.95,1664.79 1561.12,1718.29 1453.5,1732C 1421.58,1735.05 1389.92,1733.38 1358.5,1727C 1341.51,1723.11 1324.84,1718.44 1308.5,1713C 1266.64,1798.52 1200.31,1855.85 1109.5,1885C 1065.86,1898.66 1021.53,1901.66 976.5,1894C 867.556,1872.24 788.222,1811.9 738.5,1713C 724.643,1716.83 710.643,1720.5 696.5,1724C 586.766,1744.41 490.1,1718.07 406.5,1645C 330.715,1561.94 302.882,1464.77 323,1353.5C 326.555,1338.27 330.555,1323.27 335,1308.5C 250.317,1266.81 192.984,1201.14 163,1111.5C 140.172,1037.93 145.172,966.262 178,896.5C 211.969,825.531 264.303,772.864 335,738.5C 300.014,631.741 313.68,531.741 376,438.5C 402.382,402.119 435.548,373.619 475.5,353C 560.405,310.315 647.905,304.148 738,334.5C 794.912,223.796 885.412,161.796 1009.5,148.5 Z M 1301.5,689.5 C 1304.6,691.423 1307.6,693.59 1310.5,696C 1349,731.833 1387.5,767.667 1426,803.5C 1426.67,804.167 1426.67,804.833 1426,805.5C 1250.5,997 1075,1188.5 899.5,1380C 898.833,1380.67 898.167,1380.67 897.5,1380C 791.833,1274.33 686.167,1168.67 580.5,1063C 620.695,1023.14 660.528,982.972 700,942.5C 763.833,1006.33 827.667,1070.17 891.5,1134C 892.5,1134.67 893.5,1134.67 894.5,1134C 1030.52,986.086 1166.19,837.919 1301.5,689.5 Z"/></g>
</svg>
