<?xml version="1.0" standalone="no"?>
<!DOCTYPE svg PUBLIC "-//W3C//DTD SVG 20010904//EN"
 "http://www.w3.org/TR/2001/REC-SVG-20010904/DTD/svg10.dtd">
<svg version="1.0" xmlns="http://www.w3.org/2000/svg"
 width="1071.000000pt" height="246.000000pt" viewBox="0 0 1071.000000 246.000000"
 preserveAspectRatio="xMidYMid meet">

<g transform="translate(0.000000,246.000000) scale(0.100000,-0.100000)"
fill="#000000" stroke="none">
<path d="M1335 2453 c-449 -58 -822 -283 -1075 -649 -151 -218 -250 -518 -250
-756 0 -122 18 -207 65 -303 55 -114 74 -131 190 -162 89 -24 118 -27 255 -27
142 0 161 2 230 26 41 15 109 39 150 54 98 35 242 43 350 20 84 -18 200 -70
269 -120 25 -18 66 -44 91 -56 106 -54 321 -112 466 -125 69 -7 71 -7 92 20
12 15 22 33 22 39 0 6 -29 57 -64 113 -88 142 -111 207 -111 313 0 96 17 139
83 212 88 98 245 127 367 70 132 -63 203 -198 181 -344 l-7 -44 -57 -12 c-119
-25 -223 -97 -292 -200 -32 -48 -38 -80 -18 -100 19 -19 39 -15 121 23 84 39
121 43 156 18 23 -15 24 -19 18 -112 -3 -53 -17 -143 -31 -201 -21 -93 -23
-108 -10 -128 25 -38 56 -28 133 44 122 113 194 231 256 417 125 379 103 766
-66 1126 -91 195 -276 420 -459 557 -108 82 -335 195 -467 233 -57 17 -149 37
-207 46 -93 13 -303 18 -381 8z m41 -1451 c49 -40 54 -100 11 -140 -33 -30
-62 -35 -100 -17 -62 29 -75 98 -28 146 34 34 84 39 117 11z"/>
<path d="M8590 2136 l-185 -63 -3 -161 -2 -162 -120 0 -120 0 0 -180 0 -180
120 0 120 0 0 -337 c0 -252 4 -355 14 -404 32 -148 104 -231 240 -276 73 -24
95 -26 231 -26 83 0 165 3 183 7 l32 8 0 179 0 179 -100 0 c-64 0 -113 5 -135
14 -62 26 -65 41 -65 366 l0 290 145 0 145 0 0 180 0 180 -145 0 -145 0 0 225
c0 174 -3 225 -12 224 -7 0 -96 -29 -198 -63z"/>
<path d="M4055 1776 c-312 -61 -513 -295 -544 -633 -27 -293 72 -549 267 -693
213 -158 542 -172 775 -34 32 19 60 34 63 34 2 0 4 -20 4 -45 l0 -45 200 0
200 0 0 695 0 695 -199 0 -200 0 -3 -49 -3 -49 -62 37 c-138 84 -335 119 -498
87z m367 -410 c70 -33 129 -89 165 -158 25 -48 28 -63 28 -153 0 -89 -3 -106
-28 -156 -72 -147 -246 -225 -419 -190 -110 23 -214 117 -249 226 -16 50 -16
176 -1 232 27 94 120 186 221 218 74 24 212 15 283 -19z"/>
<path d="M7392 1779 c-128 -16 -227 -56 -337 -134 -292 -207 -388 -602 -225
-925 126 -249 373 -400 654 -400 158 0 281 38 413 128 54 37 183 164 183 180
0 4 -74 55 -163 113 l-163 106 -43 -38 c-75 -67 -123 -84 -231 -84 -80 0 -102
4 -138 23 -63 34 -130 99 -160 157 -24 44 -27 62 -27 145 0 85 3 101 28 148
37 71 97 128 166 160 115 54 269 26 363 -65 l37 -36 165 108 c137 88 164 110
157 124 -18 33 -158 158 -216 193 -83 49 -189 85 -287 98 -90 11 -86 11 -176
-1z"/>
<path d="M9878 1779 c-37 -5 -104 -22 -149 -39 -364 -133 -561 -525 -453 -900
51 -179 202 -358 371 -442 127 -64 213 -82 366 -76 103 4 135 10 204 35 115
42 186 87 273 173 158 156 229 342 217 564 -10 191 -75 334 -217 476 -64 64
-105 96 -166 127 -140 73 -300 102 -446 82z m238 -423 c65 -30 132 -96 164
-161 19 -37 26 -71 28 -132 4 -72 1 -89 -23 -140 -32 -71 -93 -136 -160 -171
-72 -37 -188 -42 -266 -13 -112 42 -199 155 -214 275 -20 161 101 333 258 366
63 13 154 3 213 -24z"/>
<path d="M5262 1253 c4 -543 3 -535 66 -658 35 -70 141 -176 208 -209 184 -90
372 -86 534 13 l65 39 3 -39 3 -39 205 0 204 0 0 695 0 695 -205 0 -205 0 0
-437 c0 -263 -4 -452 -10 -474 -15 -52 -49 -99 -99 -134 -39 -27 -49 -30 -124
-30 -88 0 -127 14 -180 64 -64 58 -62 42 -65 549 l-3 462 -200 0 -200 0 3
-497z"/>
<path d="M1003 384 c-6 -3 -80 -8 -164 -12 l-153 -7 54 -53 c64 -63 194 -130
324 -167 98 -28 136 -31 154 -13 24 24 12 60 -37 113 -26 30 -61 74 -77 99
-24 39 -34 46 -59 45 -16 0 -35 -3 -42 -5z"/>
</g>
</svg>
