<?xml version="1.0" encoding="UTF-8"?>
<!DOCTYPE svg PUBLIC "-//W3C//DTD SVG 1.1//EN" "http://www.w3.org/Graphics/SVG/1.1/DTD/svg11.dtd">
<svg xmlns="http://www.w3.org/2000/svg" version="1.1" width="1081px" height="261px" style="shape-rendering:geometricPrecision; text-rendering:geometricPrecision; image-rendering:optimizeQuality; fill-rule:evenodd; clip-rule:evenodd" xmlns:xlink="http://www.w3.org/1999/xlink">
<g><path style="opacity:0.991" fill="#28a4da" d="M 261.5,180.5 C 263.764,179.781 266.097,179.448 268.5,179.5C 272.584,154.431 262.084,140.431 237,137.5C 213.882,140.445 203.715,153.445 206.5,176.5C 210.445,187.951 215.945,198.618 223,208.5C 223.93,211.85 223.097,214.683 220.5,217C 198.498,217.166 177.831,211.999 158.5,201.5C 148.634,192.573 136.967,187.406 123.5,186C 117.833,185.333 112.167,185.333 106.5,186C 94.9964,188.752 83.6631,192.085 72.5,196C 54.2807,199.174 36.6141,197.341 19.5,190.5C 9.67397,178.197 4.67397,164.03 4.5,148C 10.8304,82.6512 44.4971,37.9845 105.5,14C 168.582,-4.1903 222.748,10.3097 268,57.5C 303.645,102.065 312.978,151.732 296,206.5C 290.173,224.978 279.673,240.145 264.5,252C 262.167,252.667 259.833,252.667 257.5,252C 256.056,250.874 255.39,249.374 255.5,247.5C 257.781,238.261 259.615,228.927 261,219.5C 261.854,215.375 261.52,211.375 260,207.5C 258.53,205.848 256.697,204.848 254.5,204.5C 247.807,206.395 241.473,209.062 235.5,212.5C 232.062,212.229 230.062,210.395 229.5,207C 235.516,192.478 246.183,183.645 261.5,180.5 Z"/></g>
<g><path style="opacity:0.985" fill="#000000" d="M 883.5,31.5 C 884.496,46.6576 884.83,61.9909 884.5,77.5C 894.167,77.5 903.833,77.5 913.5,77.5C 913.5,89.5 913.5,101.5 913.5,113.5C 903.833,113.5 894.167,113.5 884.5,113.5C 884.036,133.567 884.536,153.567 886,173.5C 887.868,177.521 891.035,179.687 895.5,180C 901.862,180.653 908.195,180.487 914.5,179.5C 914.5,192.167 914.5,204.833 914.5,217.5C 901.139,218.88 887.806,218.714 874.5,217C 856.67,213.5 846.837,202.667 845,184.5C 844.5,160.836 844.333,137.169 844.5,113.5C 836.5,113.5 828.5,113.5 820.5,113.5C 820.5,101.5 820.5,89.5 820.5,77.5C 828.5,77.5 836.5,77.5 844.5,77.5C 844.5,66.5 844.5,55.5 844.5,44.5C 857.784,40.7387 870.784,36.4054 883.5,31.5 Z"/></g>
<g><path style="opacity:0.981" fill="#000000" d="M 413.5,73.5 C 432.469,71.5755 449.802,75.9089 465.5,86.5C 466.484,83.5719 466.817,80.5719 466.5,77.5C 479.833,77.5 493.167,77.5 506.5,77.5C 506.5,124.167 506.5,170.833 506.5,217.5C 493.167,217.5 479.833,217.5 466.5,217.5C 466.665,214.15 466.498,210.817 466,207.5C 449.63,219.043 431.464,223.21 411.5,220C 379.934,214.1 361.434,195.266 356,163.5C 351.982,139.585 356.649,117.585 370,97.5C 381.62,84.1102 396.12,76.1102 413.5,73.5 Z M 425.5,112.5 C 449.561,111.841 463.228,123.341 466.5,147C 462.534,173.625 447.201,184.958 420.5,181C 400.696,174.246 392.529,160.412 396,139.5C 399.991,124.005 409.824,115.005 425.5,112.5 Z"/></g>
<g><path style="opacity:0.972" fill="#000000" d="M 745.5,73.5 C 773.678,72.0376 796.011,82.5376 812.5,105C 801.656,112.669 790.656,120.169 779.5,127.5C 767.055,113.541 752.389,110.708 735.5,119C 719.145,131.588 715.645,147.088 725,165.5C 736.277,179.862 750.444,183.695 767.5,177C 771.931,174.404 775.931,171.238 779.5,167.5C 791.103,174.439 802.436,181.773 813.5,189.5C 791.128,218.012 762.461,227.179 727.5,217C 701.505,206.33 685.672,187.163 680,159.5C 676.108,122.114 690.942,95.2803 724.5,79C 731.452,76.451 738.452,74.6176 745.5,73.5 Z"/></g>
<g><path style="opacity:0.976" fill="#000000" d="M 995.5,73.5 C 1032.07,72.8507 1057.57,89.184 1072,122.5C 1081.61,156.319 1073.11,184.486 1046.5,207C 1017.74,225.877 988.742,226.211 959.5,208C 931.542,185.119 922.708,156.286 933,121.5C 945.068,93.9155 965.901,77.9155 995.5,73.5 Z M 994.5,114.5 C 1018.64,112.651 1032.31,123.651 1035.5,147.5C 1034.31,162.701 1026.65,173.201 1012.5,179C 991.598,183.3 977.432,175.467 970,155.5C 967.436,135.278 975.603,121.611 994.5,114.5 Z"/></g>
<g><path style="opacity:0.98" fill="#000000" d="M 530.5,77.5 C 543.833,77.5 557.167,77.5 570.5,77.5C 570.039,108.208 570.539,138.875 572,169.5C 576.062,179.72 583.729,185.054 595,185.5C 607.738,184.097 615.404,177.097 618,164.5C 618.5,135.502 618.667,106.502 618.5,77.5C 632.167,77.5 645.833,77.5 659.5,77.5C 659.5,124.167 659.5,170.833 659.5,217.5C 645.833,217.5 632.167,217.5 618.5,217.5C 618.665,214.482 618.498,211.482 618,208.5C 602.686,220.804 585.519,223.971 566.5,218C 545.901,210.728 534.068,196.228 531,174.5C 530.5,142.168 530.333,109.835 530.5,77.5 Z"/></g>
<g><path style="opacity:0.95" fill="#a7e2f3" d="M 261.5,180.5 C 267.099,168.126 264.099,158.293 252.5,151C 245.203,148.603 238.203,149.269 231.5,153C 222.339,159.995 214.006,167.829 206.5,176.5C 203.715,153.445 213.882,140.445 237,137.5C 262.084,140.431 272.584,154.431 268.5,179.5C 266.097,179.448 263.764,179.781 261.5,180.5 Z"/></g>
<g><path style="opacity:0.999" fill="#fbfdfe" d="M 133.5,150.5 C 143.7,149.89 147.533,154.557 145,164.5C 141.604,168.203 137.437,169.369 132.5,168C 125.631,161.724 125.965,155.891 133.5,150.5 Z"/></g>
<g><path style="opacity:0.979" fill="#a8e2f3" d="M 158.5,201.5 C 143.666,207.375 128.333,211.375 112.5,213.5C 99.3661,214.704 86.3661,215.704 73.5,216.5C 51.19,216.342 33.19,207.676 19.5,190.5C 36.6141,197.341 54.2807,199.174 72.5,196C 83.6631,192.085 94.9964,188.752 106.5,186C 112.167,185.333 117.833,185.333 123.5,186C 136.967,187.406 148.634,192.573 158.5,201.5 Z"/></g>
<g><path style="opacity:0.948" fill="#28a4da" d="M 112.5,213.5 C 116.687,220.862 121.853,227.529 128,233.5C 128.9,238.032 127.066,240.698 122.5,241.5C 109.401,239.078 97.0674,234.578 85.5,228C 80.9981,224.664 76.9981,220.831 73.5,216.5C 86.3661,215.704 99.3661,214.704 112.5,213.5 Z"/></g>
</svg>
