<?xml version="1.0" encoding="UTF-8"?>
<!DOCTYPE svg PUBLIC "-//W3C//DTD SVG 1.1//EN" "http://www.w3.org/Graphics/SVG/1.1/DTD/svg11.dtd">
<svg xmlns="http://www.w3.org/2000/svg" version="1.1" width="1081px" height="261px" style="shape-rendering:geometricPrecision; text-rendering:geometricPrecision; image-rendering:optimizeQuality; fill-rule:evenodd; clip-rule:evenodd" xmlns:xlink="http://www.w3.org/1999/xlink">
<g><path style="opacity:0.991" fill="#28a4da" d="M 261.5,180.5 C 263.806,180.007 266.139,179.674 268.5,179.5C 272.373,161.75 266.373,148.583 250.5,140C 229.094,133.62 214.26,140.787 206,161.5C 205.222,166.584 205.389,171.584 206.5,176.5C 210.157,188.148 215.657,198.815 223,208.5C 223.93,211.85 223.097,214.683 220.5,217C 198.499,217.166 177.832,212 158.5,201.5C 141.597,187.607 122.263,182.774 100.5,187C 90.087,191.138 79.4203,194.471 68.5,197C 52.0614,198.77 36.0614,196.937 20.5,191.5C 9.9674,179.084 4.63407,164.584 4.5,148C 10.3912,84.841 42.3912,40.841 100.5,16C 164.553,-4.9443 220.053,8.5557 267,56.5C 303.463,101.15 313.129,151.15 296,206.5C 290.173,224.978 279.673,240.145 264.5,252C 262.167,252.667 259.833,252.667 257.5,252C 256.056,250.874 255.39,249.374 255.5,247.5C 257.781,238.261 259.615,228.927 261,219.5C 261.854,215.375 261.52,211.375 260,207.5C 258.53,205.848 256.697,204.848 254.5,204.5C 247.678,206.498 241.178,209.165 235,212.5C 231.872,212.039 230.038,210.205 229.5,207C 235.504,192.493 246.17,183.66 261.5,180.5 Z"/></g>
<g><path style="opacity:0.985" fill="#28a4da" d="M 883.5,31.5 C 884.496,46.6576 884.83,61.9909 884.5,77.5C 894.167,77.5 903.833,77.5 913.5,77.5C 913.5,89.5 913.5,101.5 913.5,113.5C 903.833,113.5 894.167,113.5 884.5,113.5C 884.036,133.567 884.536,153.567 886,173.5C 887.868,177.521 891.035,179.687 895.5,180C 901.87,180.706 908.203,180.539 914.5,179.5C 914.5,192.167 914.5,204.833 914.5,217.5C 901.136,218.891 887.803,218.724 874.5,217C 856.664,213.495 846.831,202.661 845,184.5C 844.5,160.836 844.333,137.169 844.5,113.5C 836.5,113.5 828.5,113.5 820.5,113.5C 820.5,101.5 820.5,89.5 820.5,77.5C 828.5,77.5 836.5,77.5 844.5,77.5C 844.5,66.5 844.5,55.5 844.5,44.5C 857.784,40.7387 870.784,36.4054 883.5,31.5 Z"/></g>
<g><path style="opacity:0.981" fill="#28a4da" d="M 414.5,73.5 C 433.574,71.5581 450.741,76.2247 466,87.5C 466.498,84.1832 466.665,80.8499 466.5,77.5C 479.833,77.5 493.167,77.5 506.5,77.5C 506.5,124.167 506.5,170.833 506.5,217.5C 493.167,217.5 479.833,217.5 466.5,217.5C 466.665,214.15 466.498,210.817 466,207.5C 443.98,222.021 420.48,224.855 395.5,216C 373.041,205.618 359.874,188.118 356,163.5C 351.828,139.015 356.828,116.682 371,96.5C 382.707,83.3983 397.207,75.7316 414.5,73.5 Z M 426.5,112.5 C 450.215,112.165 463.548,123.665 466.5,147C 464.345,169.014 452.179,180.847 430,182.5C 408.199,180.867 396.699,169.2 395.5,147.5C 396.338,127.333 406.671,115.666 426.5,112.5 Z"/></g>
<g><path style="opacity:0.972" fill="#28a4da" d="M 746.5,73.5 C 771.988,72.498 793.155,81.498 810,100.5C 810.85,102.01 811.683,103.51 812.5,105C 801.877,112.984 790.877,120.484 779.5,127.5C 768.563,114.932 755.23,111.432 739.5,117C 719.925,128.727 715.092,144.894 725,165.5C 736.977,180.869 751.81,184.369 769.5,176C 772.98,173.354 776.314,170.521 779.5,167.5C 791.103,174.439 802.436,181.773 813.5,189.5C 790.182,219.25 760.516,228.084 724.5,216C 700.023,204.846 685.189,186.013 680,159.5C 676.356,119.262 693.189,91.7624 730.5,77C 735.905,75.5038 741.239,74.3372 746.5,73.5 Z"/></g>
<g><path style="opacity:0.976" fill="#28a4da" d="M 995.5,73.5 C 1037.86,73.3765 1064.36,93.7099 1075,134.5C 1079.33,172.354 1064.5,199.521 1030.5,216C 994.981,227.916 965.481,219.416 942,190.5C 923.214,159.766 924.214,129.766 945,100.5C 958.598,85.2866 975.431,76.2866 995.5,73.5 Z M 995.5,114.5 C 1015.9,113.081 1029.06,122.081 1035,141.5C 1036.41,161.416 1027.58,174.249 1008.5,180C 989.459,181.632 976.626,173.465 970,155.5C 967.359,134.763 975.859,121.096 995.5,114.5 Z"/></g>
<g><path style="opacity:0.98" fill="#28a4da" d="M 530.5,77.5 C 543.833,77.5 557.167,77.5 570.5,77.5C 570.039,108.208 570.539,138.875 572,169.5C 576.213,179.876 584.046,185.209 595.5,185.5C 607.953,183.882 615.453,176.882 618,164.5C 618.5,135.502 618.667,106.502 618.5,77.5C 632.167,77.5 645.833,77.5 659.5,77.5C 659.5,124.167 659.5,170.833 659.5,217.5C 645.833,217.5 632.167,217.5 618.5,217.5C 618.813,214.753 618.48,212.086 617.5,209.5C 595.964,224.811 573.964,225.311 551.5,211C 539.857,201.549 533.024,189.383 531,174.5C 530.5,142.168 530.333,109.835 530.5,77.5 Z"/></g>
<g><path style="opacity:0.949" fill="#a7e2f3" d="M 261.5,180.5 C 267.436,166.526 263.436,156.359 249.5,150C 241.143,148.343 233.809,150.343 227.5,156C 219.969,162.365 212.969,169.199 206.5,176.5C 205.389,171.584 205.222,166.584 206,161.5C 214.26,140.787 229.094,133.62 250.5,140C 266.373,148.583 272.373,161.75 268.5,179.5C 266.139,179.674 263.806,180.007 261.5,180.5 Z"/></g>
<g><path style="opacity:1" fill="#f9fcfe" d="M 133.5,150.5 C 143.236,150.302 147.07,154.969 145,164.5C 138.366,171.588 132.699,170.921 128,162.5C 126.873,157.089 128.707,153.089 133.5,150.5 Z"/></g>
<g><path style="opacity:0.979" fill="#a8e2f3" d="M 158.5,201.5 C 143.664,207.376 128.33,211.376 112.5,213.5C 99.3705,214.75 86.3705,215.75 73.5,216.5C 51.7118,216.435 34.0452,208.102 20.5,191.5C 36.0614,196.937 52.0614,198.77 68.5,197C 79.4203,194.471 90.087,191.138 100.5,187C 122.263,182.774 141.597,187.607 158.5,201.5 Z"/></g>
<g><path style="opacity:0.947" fill="#29a4da" d="M 112.5,213.5 C 116.687,220.862 121.853,227.529 128,233.5C 128.854,237.799 127.188,240.465 123,241.5C 108.389,239.077 94.8894,233.91 82.5,226C 79.2956,222.964 76.2956,219.797 73.5,216.5C 86.3705,215.75 99.3705,214.75 112.5,213.5 Z"/></g>
</svg>
