<?xml version="1.0" encoding="UTF-8"?>
<!DOCTYPE svg PUBLIC "-//W3C//DTD SVG 1.1//EN" "http://www.w3.org/Graphics/SVG/1.1/DTD/svg11.dtd">
<svg xmlns="http://www.w3.org/2000/svg" version="1.1" width="1081px" height="261px" style="shape-rendering:geometricPrecision; text-rendering:geometricPrecision; image-rendering:optimizeQuality; fill-rule:evenodd; clip-rule:evenodd" xmlns:xlink="http://www.w3.org/1999/xlink">
<g><path style="opacity:0.991" fill="#28a4da" d="M 261.5,180.5 C 263.764,179.781 266.097,179.448 268.5,179.5C 272.363,161.732 266.363,148.566 250.5,140C 229.094,133.62 214.26,140.787 206,161.5C 205.222,166.584 205.389,171.584 206.5,176.5C 210.157,188.148 215.657,198.815 223,208.5C 224.108,213.949 221.941,217.283 216.5,218.5C 195.908,216.855 176.574,211.188 158.5,201.5C 148.358,192.385 136.358,187.218 122.5,186C 117.167,185.333 111.833,185.333 106.5,186C 93.5716,189.967 80.5716,193.634 67.5,197C 51.3753,198.844 35.7087,197.011 20.5,191.5C 13.0566,183.28 8.22325,173.613 6,162.5C 4.14943,103.698 27.9828,58.5314 77.5,27C 122.245,2.72139 168.245,0.0547252 215.5,19C 268.293,44.7161 297.793,86.8828 304,145.5C 306.417,179.507 298.084,210.507 279,238.5C 273.865,244.644 267.865,249.644 261,253.5C 257.561,252.897 255.728,250.897 255.5,247.5C 257.967,238.297 259.8,228.964 261,219.5C 261.854,215.375 261.52,211.375 260,207.5C 258.649,205.99 256.982,204.99 255,204.5C 248.127,206.788 241.46,209.455 235,212.5C 231.872,212.039 230.038,210.205 229.5,207C 235.504,192.493 246.17,183.66 261.5,180.5 Z"/></g>
<g><path style="opacity:0.985" fill="#fefffe" d="M 883.5,31.5 C 884.496,46.6576 884.83,61.9909 884.5,77.5C 894.167,77.5 903.833,77.5 913.5,77.5C 913.5,89.5 913.5,101.5 913.5,113.5C 903.833,113.5 894.167,113.5 884.5,113.5C 884.333,132.503 884.5,151.503 885,170.5C 886.167,175.667 889.333,178.833 894.5,180C 900.885,180.793 907.218,180.626 913.5,179.5C 914.499,192.149 914.832,204.816 914.5,217.5C 900.806,218.952 887.139,218.785 873.5,217C 856.196,213.028 846.696,202.195 845,184.5C 844.5,160.836 844.333,137.169 844.5,113.5C 836.5,113.5 828.5,113.5 820.5,113.5C 820.5,101.5 820.5,89.5 820.5,77.5C 828.5,77.5 836.5,77.5 844.5,77.5C 844.5,66.5 844.5,55.5 844.5,44.5C 857.784,40.7387 870.784,36.4054 883.5,31.5 Z"/></g>
<g><path style="opacity:0.981" fill="#fefffe" d="M 415.5,73.5 C 434.115,72.0267 450.948,76.6934 466,87.5C 466.498,84.1832 466.665,80.8499 466.5,77.5C 479.833,77.5 493.167,77.5 506.5,77.5C 506.5,124.167 506.5,170.833 506.5,217.5C 493.167,217.5 479.833,217.5 466.5,217.5C 466.665,214.15 466.498,210.817 466,207.5C 438.553,225.657 410.72,226.157 382.5,209C 365.562,195.294 356.396,177.461 355,155.5C 353.013,133.775 358.347,114.108 371,96.5C 382.95,83.1093 397.783,75.4426 415.5,73.5 Z M 427.5,112.5 C 450.468,112.953 463.468,124.453 466.5,147C 464.537,169.296 452.37,181.129 430,182.5C 408.209,180.876 396.709,169.209 395.5,147.5C 396.468,126.869 407.135,115.202 427.5,112.5 Z"/></g>
<g><path style="opacity:0.972" fill="#fefffe" d="M 748.5,73.5 C 775.386,73.1107 796.72,83.6107 812.5,105C 801.877,112.984 790.877,120.484 779.5,127.5C 764.403,111.967 748.069,110.467 730.5,123C 717.321,137.286 716.154,152.453 727,168.5C 739.296,181.372 753.462,183.872 769.5,176C 772.98,173.354 776.314,170.521 779.5,167.5C 791.103,174.439 802.436,181.773 813.5,189.5C 793.262,216.416 766.596,226.249 733.5,219C 703.717,209.885 685.884,190.052 680,159.5C 676.371,119.226 693.204,91.726 730.5,77C 736.581,75.5026 742.581,74.3359 748.5,73.5 Z"/></g>
<g><path style="opacity:0.977" fill="#fefffe" d="M 997.5,73.5 C 1028.06,73.0222 1051.22,85.6888 1067,111.5C 1083.1,146.317 1077.6,177.151 1050.5,204C 1026.31,222.599 999.972,226.266 971.5,215C 937.079,196.11 923.579,167.277 931,128.5C 941.665,96.105 963.831,77.7717 997.5,73.5 Z M 995.5,114.5 C 1022.13,113.96 1035.29,126.96 1035,153.5C 1029.09,173.061 1015.93,181.894 995.5,180C 976.031,173.893 967.531,160.726 970,140.5C 974.017,127.318 982.517,118.651 995.5,114.5 Z"/></g>
<g><path style="opacity:0.981" fill="#fefffe" d="M 530.5,77.5 C 543.833,77.5 557.167,77.5 570.5,77.5C 570.039,108.208 570.539,138.875 572,169.5C 574.14,176.974 578.974,181.807 586.5,184C 603.606,188.035 614.106,181.535 618,164.5C 618.5,135.502 618.667,106.502 618.5,77.5C 632.167,77.5 645.833,77.5 659.5,77.5C 659.5,124.167 659.5,170.833 659.5,217.5C 645.833,217.5 632.167,217.5 618.5,217.5C 618.813,214.753 618.48,212.086 617.5,209.5C 595.974,224.909 573.974,225.409 551.5,211C 539.857,201.549 533.024,189.383 531,174.5C 530.5,142.168 530.333,109.835 530.5,77.5 Z"/></g>
<g><path style="opacity:0.954" fill="#a7e2f3" d="M 261.5,180.5 C 266.843,169.789 264.843,160.623 255.5,153C 246.923,148.093 238.59,148.426 230.5,154C 221.673,160.661 213.673,168.161 206.5,176.5C 205.389,171.584 205.222,166.584 206,161.5C 214.26,140.787 229.094,133.62 250.5,140C 266.363,148.566 272.363,161.732 268.5,179.5C 266.097,179.448 263.764,179.781 261.5,180.5 Z"/></g>
<g><path style="opacity:0.999" fill="#fafcfe" d="M 133.5,150.5 C 143.025,150.523 146.858,155.189 145,164.5C 138.266,171.748 132.599,171.081 128,162.5C 127.312,157.352 129.145,153.352 133.5,150.5 Z"/></g>
<g><path style="opacity:0.979" fill="#a8e2f3" d="M 158.5,201.5 C 143.819,207.25 128.819,211.584 113.5,214.5C 112.423,213.982 111.256,213.648 110,213.5C 97.7129,214.859 85.5462,215.859 73.5,216.5C 56.205,216.347 40.8716,210.847 27.5,200C 24.5532,197.564 22.2199,194.731 20.5,191.5C 35.7087,197.011 51.3753,198.844 67.5,197C 80.5716,193.634 93.5716,189.967 106.5,186C 111.833,185.333 117.167,185.333 122.5,186C 136.358,187.218 148.358,192.385 158.5,201.5 Z"/></g>
<g><path style="opacity:0.948" fill="#29a4da" d="M 113.5,214.5 C 117.326,221.507 122.159,227.84 128,233.5C 128.876,238.092 127.043,240.759 122.5,241.5C 105.755,238.789 90.7551,232.289 77.5,222C 76.3353,220.008 75.002,218.175 73.5,216.5C 85.5462,215.859 97.7129,214.859 110,213.5C 111.256,213.648 112.423,213.982 113.5,214.5 Z"/></g>
</svg>
