<?xml version="1.0" encoding="UTF-8"?>
<!DOCTYPE svg PUBLIC "-//W3C//DTD SVG 1.1//EN" "http://www.w3.org/Graphics/SVG/1.1/DTD/svg11.dtd">
<svg xmlns="http://www.w3.org/2000/svg" version="1.1" width="1081px" height="261px" style="shape-rendering:geometricPrecision; text-rendering:geometricPrecision; image-rendering:optimizeQuality; fill-rule:evenodd; clip-rule:evenodd" xmlns:xlink="http://www.w3.org/1999/xlink">
<g><path style="opacity:0.991" fill="#fefefe" d="M 261.5,180.5 C 263.764,179.781 266.097,179.448 268.5,179.5C 272.364,160.729 265.698,147.229 248.5,139C 227.811,134.26 213.644,141.76 206,161.5C 205.222,166.584 205.389,171.584 206.5,176.5C 210.157,188.148 215.657,198.815 223,208.5C 224.108,213.949 221.941,217.283 216.5,218.5C 195.908,216.855 176.574,211.188 158.5,201.5C 141.664,187.4 122.33,182.567 100.5,187C 89.7993,191.345 78.7993,194.678 67.5,197C 51.3507,198.897 35.684,197.064 20.5,191.5C 13.0566,183.28 8.22325,173.613 6,162.5C 4.14943,103.698 27.9828,58.5314 77.5,27C 122.248,2.73063 168.248,0.063967 215.5,19C 268.293,44.7161 297.793,86.8828 304,145.5C 306.417,179.507 298.084,210.507 279,238.5C 273.825,244.854 267.658,249.854 260.5,253.5C 257.34,252.678 255.673,250.678 255.5,247.5C 257.967,238.297 259.8,228.964 261,219.5C 261.854,215.375 261.52,211.375 260,207.5C 258.649,205.99 256.982,204.99 255,204.5C 248.127,206.788 241.46,209.455 235,212.5C 231.872,212.039 230.038,210.205 229.5,207C 235.504,192.493 246.17,183.66 261.5,180.5 Z"/></g>
<g><path style="opacity:0.985" fill="#fefffe" d="M 883.5,31.5 C 884.496,46.6576 884.83,61.9909 884.5,77.5C 894.167,77.5 903.833,77.5 913.5,77.5C 913.5,89.5 913.5,101.5 913.5,113.5C 903.833,113.5 894.167,113.5 884.5,113.5C 884.333,132.503 884.5,151.503 885,170.5C 886.167,175.667 889.333,178.833 894.5,180C 900.885,180.793 907.218,180.626 913.5,179.5C 914.499,192.149 914.832,204.816 914.5,217.5C 900.805,218.925 887.138,218.758 873.5,217C 856.196,213.028 846.696,202.195 845,184.5C 844.5,160.836 844.333,137.169 844.5,113.5C 836.5,113.5 828.5,113.5 820.5,113.5C 820.5,101.5 820.5,89.5 820.5,77.5C 828.5,77.5 836.5,77.5 844.5,77.5C 844.5,66.5 844.5,55.5 844.5,44.5C 857.784,40.7387 870.784,36.4054 883.5,31.5 Z"/></g>
<g><path style="opacity:0.981" fill="#fefffe" d="M 415.5,73.5 C 434.115,72.0267 450.948,76.6934 466,87.5C 466.498,84.1832 466.665,80.8499 466.5,77.5C 479.833,77.5 493.167,77.5 506.5,77.5C 506.5,124.167 506.5,170.833 506.5,217.5C 493.167,217.5 479.833,217.5 466.5,217.5C 466.665,214.15 466.498,210.817 466,207.5C 438.553,225.657 410.72,226.157 382.5,209C 365.562,195.294 356.396,177.461 355,155.5C 353.013,133.775 358.347,114.108 371,96.5C 382.955,83.107 397.788,75.4403 415.5,73.5 Z M 427.5,112.5 C 450.467,112.953 463.467,124.453 466.5,147C 464.537,169.296 452.37,181.129 430,182.5C 408.209,180.876 396.709,169.209 395.5,147.5C 396.468,126.869 407.135,115.202 427.5,112.5 Z"/></g>
<g><path style="opacity:0.972" fill="#fefffe" d="M 747.5,73.5 C 774.786,72.8116 796.452,83.3116 812.5,105C 801.877,112.984 790.877,120.484 779.5,127.5C 762.89,110.951 745.723,110.285 728,125.5C 714.457,145.782 717.623,162.949 737.5,177C 753.772,183.853 767.772,180.687 779.5,167.5C 791.103,174.439 802.436,181.773 813.5,189.5C 790.209,219.245 760.542,228.078 724.5,216C 688.979,198.413 674.479,169.913 681,130.5C 691.063,97.2632 713.23,78.2632 747.5,73.5 Z"/></g>
<g><path style="opacity:0.977" fill="#fefffe" d="M 997.5,73.5 C 1029.72,73.5168 1053.55,87.5168 1069,115.5C 1083.2,151.518 1075.7,182.018 1046.5,207C 1016.28,226.569 986.277,226.236 956.5,206C 930.004,182.185 922.504,153.352 934,119.5C 946.633,92.2768 967.8,76.9435 997.5,73.5 Z M 995.5,114.5 C 1022.16,113.99 1035.32,126.99 1035,153.5C 1029.09,173.061 1015.93,181.894 995.5,180C 976.031,173.893 967.531,160.726 970,140.5C 974.017,127.318 982.517,118.651 995.5,114.5 Z"/></g>
<g><path style="opacity:0.98" fill="#fefffe" d="M 530.5,77.5 C 543.833,77.5 557.167,77.5 570.5,77.5C 570.039,108.208 570.539,138.875 572,169.5C 576.086,179.729 583.752,185.062 595,185.5C 608.373,184.795 616.04,177.795 618,164.5C 618.5,135.502 618.667,106.502 618.5,77.5C 632.167,77.5 645.833,77.5 659.5,77.5C 659.5,124.167 659.5,170.833 659.5,217.5C 645.833,217.5 632.167,217.5 618.5,217.5C 618.813,214.753 618.48,212.086 617.5,209.5C 595.961,224.906 573.961,225.406 551.5,211C 539.857,201.549 533.024,189.383 531,174.5C 530.5,142.168 530.333,109.835 530.5,77.5 Z"/></g>
<g><path style="opacity:0.954" fill="#d1d1d1" d="M 261.5,180.5 C 266.843,169.789 264.843,160.623 255.5,153C 245.48,147.669 236.147,148.669 227.5,156C 219.969,162.365 212.969,169.199 206.5,176.5C 205.389,171.584 205.222,166.584 206,161.5C 213.644,141.76 227.811,134.26 248.5,139C 265.698,147.229 272.364,160.729 268.5,179.5C 266.097,179.448 263.764,179.781 261.5,180.5 Z"/></g>
<g><path style="opacity:0.999" fill="#090909" d="M 133.5,150.5 C 143.025,150.523 146.858,155.189 145,164.5C 138.402,171.513 132.736,170.846 128,162.5C 126.873,157.089 128.707,153.089 133.5,150.5 Z"/></g>
<g><path style="opacity:0.979" fill="#d1d1d1" d="M 158.5,201.5 C 143.761,207.685 128.428,211.685 112.5,213.5C 99.3893,214.869 86.3893,215.869 73.5,216.5C 56.205,216.347 40.8716,210.847 27.5,200C 24.5532,197.564 22.2199,194.731 20.5,191.5C 35.684,197.064 51.3507,198.897 67.5,197C 78.7993,194.678 89.7993,191.345 100.5,187C 122.33,182.567 141.664,187.4 158.5,201.5 Z"/></g>
<g><path style="opacity:0.947" fill="#fefefe" d="M 112.5,213.5 C 116.687,220.862 121.853,227.529 128,233.5C 128.876,238.092 127.043,240.759 122.5,241.5C 105.755,238.789 90.7551,232.289 77.5,222C 76.3353,220.008 75.002,218.175 73.5,216.5C 86.3893,215.869 99.3893,214.869 112.5,213.5 Z"/></g>
</svg>
