<?xml version="1.0" encoding="UTF-8"?>
<!DOCTYPE svg PUBLIC "-//W3C//DTD SVG 1.1//EN" "http://www.w3.org/Graphics/SVG/1.1/DTD/svg11.dtd">
<svg xmlns="http://www.w3.org/2000/svg" version="1.1" width="1081px" height="301px" style="shape-rendering:geometricPrecision; text-rendering:geometricPrecision; image-rendering:optimizeQuality; fill-rule:evenodd; clip-rule:evenodd" xmlns:xlink="http://www.w3.org/1999/xlink">
<g><path style="opacity:0.988" fill="#28a4da" d="M 788.5,9.5 C 790.49,31.8087 791.156,54.4754 790.5,77.5C 805.167,77.5 819.833,77.5 834.5,77.5C 834.5,95.1667 834.5,112.833 834.5,130.5C 819.833,130.5 805.167,130.5 790.5,130.5C 790.333,157.502 790.5,184.502 791,211.5C 791.203,221.704 796.37,227.538 806.5,229C 815.861,229.721 825.194,229.554 834.5,228.5C 834.5,246.833 834.5,265.167 834.5,283.5C 814.792,286.156 795.125,285.99 775.5,283C 747.596,276.751 733.096,259.251 732,230.5C 731.5,197.168 731.333,163.835 731.5,130.5C 719.5,130.5 707.5,130.5 695.5,130.5C 695.5,112.833 695.5,95.1667 695.5,77.5C 707.5,77.5 719.5,77.5 731.5,77.5C 731.333,61.4965 731.5,45.4965 732,29.5C 751.028,23.1035 769.862,16.4368 788.5,9.5 Z"/></g>
<g><path style="opacity:0.988" fill="#28a4da" d="M 95.5,71.5 C 123.389,68.8046 148.723,75.4713 171.5,91.5C 172.493,86.8804 172.827,82.2137 172.5,77.5C 192.167,77.5 211.833,77.5 231.5,77.5C 231.5,146.167 231.5,214.833 231.5,283.5C 211.833,283.5 192.167,283.5 172.5,283.5C 172.666,278.489 172.499,273.489 172,268.5C 148.239,285.731 121.739,292.231 92.5,288C 45.8298,279.664 17.9965,252.164 9,205.5C 3.63859,175.029 7.97192,146.029 22,118.5C 39.0002,91.0844 63.5002,75.4177 95.5,71.5 Z M 115.5,128.5 C 149.589,129.18 168.589,146.347 172.5,180C 169.23,212.496 151.23,229.996 118.5,232.5C 95.8587,232.106 79.6921,221.773 70,201.5C 61.9986,177.817 66.832,157.317 84.5,140C 93.8665,133.27 104.2,129.437 115.5,128.5 Z"/></g>
<g><path style="opacity:0.981" fill="#28a4da" d="M 586.5,71.5 C 627.457,69.6499 660.123,84.9832 684.5,117.5C 668.463,128.859 652.129,139.859 635.5,150.5C 614.843,128.598 591.843,125.431 566.5,141C 544.108,160.955 540.608,183.789 556,209.5C 574.006,230.502 595.506,235.002 620.5,223C 625.938,219.398 630.938,215.232 635.5,210.5C 651.582,220.958 667.749,231.291 684,241.5C 684.667,242.5 684.667,243.5 684,244.5C 651.688,284.713 610.522,297.88 560.5,284C 508.5,262.193 484.334,223.026 488,166.5C 495.405,121.091 520.905,90.9242 564.5,76C 571.905,74.1598 579.239,72.6598 586.5,71.5 Z"/></g>
<g><path style="opacity:0.984" fill="#28a4da" d="M 956.5,71.5 C 1001.6,70.2959 1036.1,88.6292 1060,126.5C 1074.09,153.174 1077.43,181.174 1070,210.5C 1055.06,255.447 1024.22,281.614 977.5,289C 931.321,291.994 895.821,274.161 871,235.5C 848.244,190.54 852.244,148.207 883,108.5C 902.927,86.9535 927.427,74.6202 956.5,71.5 Z M 964.5,130.5 C 995.097,133.597 1011.76,150.431 1014.5,181C 1013.06,203.234 1002.06,218.567 981.5,227C 951.332,234.499 930.165,223.999 918,195.5C 911.706,165.252 922.873,144.419 951.5,133C 955.965,132.126 960.298,131.293 964.5,130.5 Z"/></g>
<g><path style="opacity:0.983" fill="#28a4da" d="M 266.5,77.5 C 286.5,77.5 306.5,77.5 326.5,77.5C 326.026,122.872 326.526,168.206 328,213.5C 334.236,228.88 345.736,236.547 362.5,236.5C 380.753,235.753 391.92,226.42 396,208.5C 397.468,164.867 397.968,121.2 397.5,77.5C 417.5,77.5 437.5,77.5 457.5,77.5C 457.5,146.167 457.5,214.833 457.5,283.5C 437.5,283.5 417.5,283.5 397.5,283.5C 397.666,279.154 397.499,274.821 397,270.5C 371.232,290.827 343.065,294.66 312.5,282C 283.953,267.773 268.786,244.607 267,212.5C 266.5,167.501 266.333,122.501 266.5,77.5 Z"/></g>
</svg>
