<?xml version="1.0" encoding="UTF-8"?>
<!DOCTYPE svg PUBLIC "-//W3C//DTD SVG 1.1//EN" "http://www.w3.org/Graphics/SVG/1.1/DTD/svg11.dtd">
<svg xmlns="http://www.w3.org/2000/svg" version="1.1" width="1081px" height="301px" style="shape-rendering:geometricPrecision; text-rendering:geometricPrecision; image-rendering:optimizeQuality; fill-rule:evenodd; clip-rule:evenodd" xmlns:xlink="http://www.w3.org/1999/xlink">
<g><path style="opacity:0.989" fill="#fefffe" d="M 789.5,9.5 C 790.497,31.9939 790.831,54.6605 790.5,77.5C 805.167,77.5 819.833,77.5 834.5,77.5C 834.5,95.1667 834.5,112.833 834.5,130.5C 819.833,130.5 805.167,130.5 790.5,130.5C 790.333,157.502 790.5,184.502 791,211.5C 791.203,221.704 796.37,227.538 806.5,229C 815.861,229.721 825.194,229.554 834.5,228.5C 834.5,246.833 834.5,265.167 834.5,283.5C 814.462,286.22 794.462,286.054 774.5,283C 747.148,276.303 732.981,258.803 732,230.5C 731.5,197.168 731.333,163.835 731.5,130.5C 719.5,130.5 707.5,130.5 695.5,130.5C 695.5,112.833 695.5,95.1667 695.5,77.5C 707.5,77.5 719.5,77.5 731.5,77.5C 731.333,61.4965 731.5,45.4965 732,29.5C 751.286,22.906 770.452,16.2394 789.5,9.5 Z"/></g>
<g><path style="opacity:0.988" fill="#fefffe" d="M 96.5,71.5 C 124.037,68.9663 149.037,75.633 171.5,91.5C 172.493,86.8804 172.827,82.2137 172.5,77.5C 192.167,77.5 211.833,77.5 231.5,77.5C 231.5,146.167 231.5,214.833 231.5,283.5C 211.833,283.5 192.167,283.5 172.5,283.5C 172.666,278.489 172.499,273.489 172,268.5C 147.957,286.046 121.123,292.546 91.5,288C 45.3754,279.209 17.8754,251.709 9,205.5C 2.31062,168.934 9.64396,135.6 31,105.5C 48.4178,85.542 70.2511,74.2086 96.5,71.5 Z M 107.5,129.5 C 127.901,126.634 145.401,132.3 160,146.5C 176.779,169.727 176.446,192.727 159,215.5C 138.84,233.524 116.34,237.024 91.5,226C 71.8229,213.137 63.6562,194.97 67,171.5C 71.5671,148.768 85.0671,134.768 107.5,129.5 Z"/></g>
<g><path style="opacity:0.981" fill="#fefffe" d="M 587.5,71.5 C 628.073,69.9574 660.406,85.2908 684.5,117.5C 668.463,128.859 652.129,139.859 635.5,150.5C 615.01,128.819 592.01,125.652 566.5,141C 546.376,158.286 541.543,179.12 552,203.5C 565.254,225.203 584.42,233.37 609.5,228C 619.647,224.351 628.313,218.518 635.5,210.5C 651.582,220.958 667.749,231.291 684,241.5C 684.667,242.5 684.667,243.5 684,244.5C 652.675,283.72 612.508,297.22 563.5,285C 520.507,269.676 495.341,239.51 488,194.5C 483.864,147.273 501.698,111.106 541.5,86C 555.987,78.0528 571.32,73.2194 587.5,71.5 Z"/></g>
<g><path style="opacity:0.984" fill="#fefffe" d="M 957.5,71.5 C 1002.21,70.5979 1036.37,88.9312 1060,126.5C 1074.09,153.174 1077.43,181.174 1070,210.5C 1055.11,255.384 1024.28,281.551 977.5,289C 932.044,292.521 896.877,275.354 872,237.5C 851.729,200.333 851.395,163 871,125.5C 891.005,93.4115 919.838,75.4115 957.5,71.5 Z M 955.5,131.5 C 982.115,129.223 1000.95,140.223 1012,164.5C 1018.66,189.202 1011.49,208.702 990.5,223C 959.074,236.748 935.241,228.581 919,198.5C 910.79,164.914 922.956,142.581 955.5,131.5 Z"/></g>
<g><path style="opacity:0.983" fill="#fefffe" d="M 266.5,77.5 C 286.5,77.5 306.5,77.5 326.5,77.5C 326.026,122.872 326.526,168.206 328,213.5C 334.236,228.88 345.736,236.547 362.5,236.5C 380.753,235.753 391.92,226.42 396,208.5C 397.468,164.867 397.968,121.2 397.5,77.5C 417.5,77.5 437.5,77.5 457.5,77.5C 457.5,146.167 457.5,214.833 457.5,283.5C 437.5,283.5 417.5,283.5 397.5,283.5C 397.666,279.154 397.499,274.821 397,270.5C 371.245,290.94 343.079,294.774 312.5,282C 283.949,267.761 268.782,244.595 267,212.5C 266.5,167.501 266.333,122.501 266.5,77.5 Z"/></g>
</svg>
