<?xml version="1.0" encoding="UTF-8"?>
<!DOCTYPE svg PUBLIC "-//W3C//DTD SVG 1.1//EN" "http://www.w3.org/Graphics/SVG/1.1/DTD/svg11.dtd">
<svg xmlns="http://www.w3.org/2000/svg" version="1.1" width="1081px" height="1081px" style="shape-rendering:geometricPrecision; text-rendering:geometricPrecision; image-rendering:optimizeQuality; fill-rule:evenodd; clip-rule:evenodd" xmlns:xlink="http://www.w3.org/1999/xlink">
<g><path style="opacity:0.997" fill="#000000" d="M 871.5,558.5 C 877.874,557.566 884.208,556.399 890.5,555C 903.14,510.59 891.807,473.59 856.5,444C 814.067,415.87 772.401,416.87 731.5,447C 701.841,473.806 691.175,506.639 699.5,545.5C 704.74,564.711 712.24,583.045 722,600.5C 730.587,615.345 739.92,629.679 750,643.5C 753.841,663.994 745.341,673.494 724.5,672C 663.495,667.16 606.162,650.326 552.5,621.5C 552.586,620.504 552.252,619.671 551.5,619C 495.494,576.574 433.161,563.574 364.5,580C 350.058,584.223 336.058,589.556 322.5,596C 289.179,607.888 254.845,612.555 219.5,610C 186.825,607.699 155.158,600.865 124.5,589.5C 98.8873,558.215 84.0539,522.215 80,481.5C 77.6407,447.061 80.6407,413.061 89,379.5C 121.359,249.525 194.859,150.358 309.5,82C 427.663,17.35 551.329,4.35003 680.5,43C 809.226,87.0598 902.726,170.56 961,293.5C 1013.44,416.269 1014.77,539.602 965,663.5C 946.33,709.159 917.497,746.992 878.5,777C 868.907,782.754 860.741,781.254 854,772.5C 853.065,770.091 852.565,767.591 852.5,765C 860.383,735.585 866.216,705.751 870,675.5C 871.094,666.852 871.428,658.185 871,649.5C 866.576,636.205 857.409,630.372 843.5,632C 826.307,637.43 809.974,644.763 794.5,654C 782.478,656.99 775.478,652.323 773.5,640C 787.262,605.569 811.262,580.902 845.5,566C 853.857,562.38 862.524,559.88 871.5,558.5 Z"/></g>
<g><path style="opacity:0.985" fill="#cfcfcf" d="M 871.5,558.5 C 887.051,526.97 882.051,499.137 856.5,475C 830.299,456.434 803.632,455.767 776.5,473C 747.131,493.201 721.464,517.368 699.5,545.5C 691.175,506.639 701.841,473.806 731.5,447C 772.401,416.87 814.067,415.87 856.5,444C 891.807,473.59 903.14,510.59 890.5,555C 884.208,556.399 877.874,557.566 871.5,558.5 Z"/></g>
<g><path style="opacity:1" fill="#fdfdfd" d="M 477.5,466.5 C 494.988,464.154 506.822,471.154 513,487.5C 515.228,504.924 508.062,516.424 491.5,522C 474.785,524.226 463.619,517.393 458,501.5C 455.182,484.457 461.682,472.791 477.5,466.5 Z"/></g>
<g><path style="opacity:0.993" fill="#d0d0d0" d="M 552.5,621.5 C 506.221,639.593 458.554,652.593 409.5,660.5C 408.735,660.077 407.902,659.743 407,659.5C 368.412,665.538 329.578,668.205 290.5,667.5C 222.693,667.255 167.359,641.255 124.5,589.5C 155.158,600.865 186.825,607.699 219.5,610C 254.845,612.555 289.179,607.888 322.5,596C 336.058,589.556 350.058,584.223 364.5,580C 433.161,563.574 495.494,576.574 551.5,619C 552.252,619.671 552.586,620.504 552.5,621.5 Z"/></g>
<g><path style="opacity:0.983" fill="#000000" d="M 409.5,660.5 C 421.744,682.272 436.911,701.939 455,719.5C 460.126,730.116 457.626,738.283 447.5,744C 408.674,739.392 372.007,727.726 337.5,709C 324.819,701.322 312.986,692.488 302,682.5C 297.568,677.909 293.734,672.909 290.5,667.5C 329.578,668.205 368.412,665.538 407,659.5C 407.902,659.743 408.735,660.077 409.5,660.5 Z"/></g>
<g><path style="opacity:0.982" fill="#000000" d="M 767.5,802.5 C 769.488,822.806 770.155,843.473 769.5,864.5C 782.833,864.5 796.167,864.5 809.5,864.5C 809.5,880.833 809.5,897.167 809.5,913.5C 796.167,913.5 782.833,913.5 769.5,913.5C 769.044,940.543 769.544,967.543 771,994.5C 773.76,999.977 778.26,1003.14 784.5,1004C 793.186,1004.63 801.852,1004.47 810.5,1003.5C 811.144,1020.57 810.477,1037.41 808.5,1054C 793.526,1055.45 778.526,1055.78 763.5,1055C 734.761,1052.59 718.928,1037.09 716,1008.5C 714.597,976.855 714.097,945.188 714.5,913.5C 703.833,913.5 693.167,913.5 682.5,913.5C 682.5,897.167 682.5,880.833 682.5,864.5C 693.167,864.5 703.833,864.5 714.5,864.5C 714.5,849.833 714.5,835.167 714.5,820.5C 732.527,815.269 750.193,809.269 767.5,802.5 Z"/></g>
<g><path style="opacity:0.982" fill="#000000" d="M 131.5,859.5 C 157.587,856.59 181.087,862.923 202,878.5C 202.499,873.845 202.666,869.179 202.5,864.5C 220.833,864.5 239.167,864.5 257.5,864.5C 257.5,927.5 257.5,990.5 257.5,1053.5C 239.167,1053.5 220.833,1053.5 202.5,1053.5C 202.666,1049.15 202.499,1044.82 202,1040.5C 171.912,1060.77 139.745,1064.6 105.5,1052C 74.631,1037.13 56.7976,1012.63 52,978.5C 47.0887,946.705 53.7554,917.705 72,891.5C 87.8678,873.318 107.701,862.651 131.5,859.5 Z M 143.5,912.5 C 162.657,909.988 178.823,915.654 192,929.5C 204.068,946.662 205.402,964.662 196,983.5C 183.097,1002.26 165.263,1009.76 142.5,1006C 114.792,997.923 102.625,979.423 106,950.5C 110.681,929.986 123.181,917.32 143.5,912.5 Z"/></g>
<g><path style="opacity:0.979" fill="#000000" d="M 581.5,859.5 C 619.555,857.532 649.889,871.699 672.5,902C 657.743,912.462 642.576,922.296 627,931.5C 611.133,914.159 592.3,909.993 570.5,919C 544.691,936.098 539.191,958.265 554,985.5C 569.982,1004.9 589.482,1009.4 612.5,999C 617.923,995.581 622.756,991.415 627,986.5C 642.325,996.337 657.492,1006.34 672.5,1016.5C 644.931,1053.26 608.597,1066.43 563.5,1056C 530.256,1045.76 507.756,1024.26 496,991.5C 482.88,942.175 497.047,903.008 538.5,874C 551.917,866.028 566.25,861.195 581.5,859.5 Z"/></g>
<g><path style="opacity:0.982" fill="#000000" d="M 920.5,859.5 C 962.814,857.736 994.981,874.736 1017,910.5C 1036.54,950.836 1032.87,988.836 1006,1024.5C 977.762,1055.19 943.262,1065.69 902.5,1056C 865.31,1044.14 841.81,1019.31 832,981.5C 824.616,940.47 836.783,906.636 868.5,880C 884.02,868.401 901.354,861.567 920.5,859.5 Z M 920.5,914.5 C 940.558,912.116 956.391,919.116 968,935.5C 981.265,963.703 974.431,985.536 947.5,1001C 924.372,1008.85 905.539,1003.01 891,983.5C 878.916,958.673 883.749,937.84 905.5,921C 910.367,918.226 915.367,916.059 920.5,914.5 Z"/></g>
<g><path style="opacity:0.983" fill="#000000" d="M 288.5,864.5 C 306.833,864.5 325.167,864.5 343.5,864.5C 343.028,905.873 343.528,947.206 345,988.5C 347.708,998.876 354.208,1005.71 364.5,1009C 385.332,1014.67 399.499,1007.5 407,987.5C 408.472,946.54 408.972,905.54 408.5,864.5C 426.833,864.5 445.167,864.5 463.5,864.5C 463.5,927.5 463.5,990.5 463.5,1053.5C 445.167,1053.5 426.833,1053.5 408.5,1053.5C 408.665,1049.82 408.499,1046.15 408,1042.5C 381.377,1062.65 353.21,1064.81 323.5,1049C 301.012,1034.45 289.512,1013.61 289,986.5C 288.5,945.835 288.333,905.168 288.5,864.5 Z"/></g>
</svg>
