<?xml version="1.0" encoding="UTF-8"?>
<!DOCTYPE svg PUBLIC "-//W3C//DTD SVG 1.1//EN" "http://www.w3.org/Graphics/SVG/1.1/DTD/svg11.dtd">
<svg xmlns="http://www.w3.org/2000/svg" version="1.1" width="1081px" height="1081px" style="shape-rendering:geometricPrecision; text-rendering:geometricPrecision; image-rendering:optimizeQuality; fill-rule:evenodd; clip-rule:evenodd" xmlns:xlink="http://www.w3.org/1999/xlink">
<g><path style="opacity:0.997" fill="#28a4da" d="M 872.5,557.5 C 878.491,556.501 884.491,555.501 890.5,554.5C 903.048,508.981 891.048,471.481 854.5,442C 820.521,420.066 785.188,417.733 748.5,435C 706.64,460.55 690.307,497.383 699.5,545.5C 703.984,561.806 710.151,577.473 718,592.5C 727.916,610.005 738.583,627.005 750,643.5C 754.044,660.941 747.211,670.274 729.5,671.5C 680.027,667.906 632.361,656.74 586.5,638C 574.701,632.935 563.368,627.101 552.5,620.5C 527.886,599.526 499.552,585.359 467.5,578C 425.69,568.48 384.69,571.146 344.5,586C 303.062,605.752 259.395,613.419 213.5,609C 182.473,606.562 152.473,599.729 123.5,588.5C 88.6466,542.778 74.1466,491.111 80,433.5C 96.5645,299.147 158.398,191.314 265.5,110C 379.629,29.6391 505.295,3.6391 642.5,32C 776.946,65.4975 878.113,142.331 946,262.5C 1004.5,375.38 1016.5,493.047 982,615.5C 973.207,644.213 961.874,671.88 948,698.5C 929.218,730.869 904.385,757.702 873.5,779C 860.944,781.569 853.944,776.569 852.5,764C 860.639,734.639 866.472,704.805 870,674.5C 871.142,666.189 871.475,657.855 871,649.5C 867.41,636.617 858.91,630.451 845.5,631C 827.175,636.498 809.841,644.164 793.5,654C 779.493,655.659 772.993,649.492 774,635.5C 794.04,593.391 826.873,567.391 872.5,557.5 Z"/></g>
<g><path style="opacity:0.985" fill="#a8e2f3" d="M 872.5,557.5 C 887.789,522.487 880.455,493.321 850.5,470C 821.379,454.255 794.045,456.922 768.5,478C 742.039,496.961 719.039,519.461 699.5,545.5C 690.307,497.383 706.64,460.55 748.5,435C 785.188,417.733 820.521,420.066 854.5,442C 891.048,471.481 903.048,508.981 890.5,554.5C 884.491,555.501 878.491,556.501 872.5,557.5 Z"/></g>
<g><path style="opacity:1" fill="#fefefe" d="M 478.5,465.5 C 499.127,463.805 510.793,473.138 513.5,493.5C 510.637,514.521 498.637,523.688 477.5,521C 461.648,514.444 455.148,502.611 458,485.5C 462.106,475.893 468.939,469.226 478.5,465.5 Z"/></g>
<g><path style="opacity:0.993" fill="#a8e2f3" d="M 552.5,620.5 C 506.056,639.112 458.056,652.112 408.5,659.5C 369.18,664.582 329.847,667.248 290.5,667.5C 222.459,666.632 166.793,640.298 123.5,588.5C 152.473,599.729 182.473,606.562 213.5,609C 259.395,613.419 303.062,605.752 344.5,586C 384.69,571.146 425.69,568.48 467.5,578C 499.552,585.359 527.886,599.526 552.5,620.5 Z"/></g>
<g><path style="opacity:0.981" fill="#28a4da" d="M 408.5,659.5 C 421.099,681.316 436.599,700.983 455,718.5C 460.762,732.309 456.429,740.976 442,744.5C 400.414,737.086 361.581,722.586 325.5,701C 311.71,692.043 300.043,680.877 290.5,667.5C 329.847,667.248 369.18,664.582 408.5,659.5 Z"/></g>
<g><path style="opacity:0.981" fill="#000000" d="M 766.5,802.5 C 767.5,802.5 768.5,802.5 769.5,802.5C 769.5,822.833 769.5,843.167 769.5,863.5C 782.833,863.5 796.167,863.5 809.5,863.5C 809.5,879.833 809.5,896.167 809.5,912.5C 796.167,912.5 782.833,912.5 769.5,912.5C 769.035,939.551 769.535,966.551 771,993.5C 773.007,998.838 776.841,1002 782.5,1003C 791.506,1004.45 800.506,1004.28 809.5,1002.5C 810.499,1019.49 810.833,1036.49 810.5,1053.5C 792.125,1055.98 773.792,1055.82 755.5,1053C 730.969,1047.8 717.802,1032.63 716,1007.5C 714.597,975.855 714.097,944.188 714.5,912.5C 703.833,912.5 693.167,912.5 682.5,912.5C 682.5,896.167 682.5,879.833 682.5,863.5C 693.167,863.5 703.833,863.5 714.5,863.5C 714.333,849.163 714.5,834.829 715,820.5C 732.286,814.573 749.452,808.573 766.5,802.5 Z"/></g>
<g><path style="opacity:0.981" fill="#000000" d="M 135.5,858.5 C 160.037,856.849 182.204,863.183 202,877.5C 202.499,872.845 202.666,868.179 202.5,863.5C 220.833,863.5 239.167,863.5 257.5,863.5C 257.5,926.833 257.5,990.167 257.5,1053.5C 239.167,1053.5 220.833,1053.5 202.5,1053.5C 202.826,1049.12 202.492,1044.78 201.5,1040.5C 171.07,1060.46 138.737,1063.96 104.5,1051C 74.1895,1036.25 56.6895,1012.08 52,978.5C 46.9122,945.857 53.9122,916.19 73,889.5C 89.7616,870.863 110.595,860.53 135.5,858.5 Z M 146.5,911.5 C 170.463,909.89 187.963,919.557 199,940.5C 206.885,965.516 200.051,985.349 178.5,1000C 158.681,1009.56 139.681,1008.23 121.5,996C 106.714,981.784 101.88,964.618 107,944.5C 113.468,925.365 126.635,914.365 146.5,911.5 Z"/></g>
<g><path style="opacity:0.981" fill="#000000" d="M 576.5,859.5 C 616.376,855.615 648.376,869.448 672.5,901C 657.637,911.362 642.637,921.529 627.5,931.5C 608.427,910.972 587.093,908.139 563.5,923C 543.109,941.841 540.276,963.007 555,986.5C 579.07,1010.44 603.237,1010.44 627.5,986.5C 642.872,995.847 657.872,1005.68 672.5,1016C 641.533,1055.98 601.866,1067.98 553.5,1052C 519.196,1036.69 498.696,1010.52 492,973.5C 487.825,923.33 508.325,887.497 553.5,866C 561.092,863.074 568.759,860.907 576.5,859.5 Z"/></g>
<g><path style="opacity:0.983" fill="#000000" d="M 914.5,859.5 C 957.509,855.427 991.009,871.094 1015,906.5C 1035.66,944.888 1034,982.221 1010,1018.5C 976.8,1058.01 935.966,1068.51 887.5,1050C 840.873,1024.24 822.706,985.07 833,932.5C 846.216,892.444 873.383,868.111 914.5,859.5 Z M 922.5,913.5 C 949.363,912.551 966.529,924.884 974,950.5C 976.87,971.905 969.037,988.072 950.5,999C 926.215,1009.14 906.381,1003.64 891,982.5C 879.167,958.324 883.667,937.824 904.5,921C 910.24,917.623 916.24,915.123 922.5,913.5 Z"/></g>
<g><path style="opacity:0.981" fill="#000000" d="M 288.5,863.5 C 306.833,863.5 325.167,863.5 343.5,863.5C 343.034,905.201 343.534,946.867 345,988.5C 350.701,1002.84 361.368,1010.18 377,1010.5C 394.58,1009.26 404.913,999.923 408,982.5C 408.5,942.835 408.667,903.168 408.5,863.5C 426.833,863.5 445.167,863.5 463.5,863.5C 463.5,926.833 463.5,990.167 463.5,1053.5C 445.167,1053.5 426.833,1053.5 408.5,1053.5C 408.823,1049.77 408.489,1046.11 407.5,1042.5C 382.965,1060.57 356.632,1063.41 328.5,1051C 303.004,1036.79 289.837,1014.96 289,985.5C 288.5,944.835 288.333,904.168 288.5,863.5 Z"/></g>
</svg>
