<?xml version="1.0" encoding="UTF-8"?>
<!DOCTYPE svg PUBLIC "-//W3C//DTD SVG 1.1//EN" "http://www.w3.org/Graphics/SVG/1.1/DTD/svg11.dtd">
<svg xmlns="http://www.w3.org/2000/svg" version="1.1" width="1081px" height="1080px" style="shape-rendering:geometricPrecision; text-rendering:geometricPrecision; image-rendering:optimizeQuality; fill-rule:evenodd; clip-rule:evenodd" xmlns:xlink="http://www.w3.org/1999/xlink">
<g><path style="opacity:0.997" fill="#28a4da" d="M 871.5,557.5 C 877.786,556.321 884.119,555.321 890.5,554.5C 902.969,510.524 891.969,473.691 857.5,444C 827.032,422.076 794.032,417.409 758.5,430C 713.623,451.237 693.123,486.737 697,536.5C 697.279,539.457 698.113,542.123 699.5,544.5C 704.74,563.711 712.24,582.045 722,599.5C 731.271,615.1 740.938,630.433 751,645.5C 752.178,664.985 743.011,673.485 723.5,671C 674.63,666.695 627.63,655.028 582.5,636C 572.29,631.063 562.29,625.896 552.5,620.5C 552.586,619.504 552.252,618.671 551.5,618C 494.482,574.863 431.148,562.196 361.5,580C 348.187,584.215 335.187,589.215 322.5,595C 288.877,607.107 254.211,611.774 218.5,609C 186.069,607.081 154.736,600.248 124.5,588.5C 98.8868,557.213 84.0535,521.213 80,480.5C 77.7455,436.609 83.0788,393.609 96,351.5C 140.52,211.298 230.354,112.131 365.5,54C 465.458,14.9399 567.125,9.93992 670.5,39C 815.004,85.1696 915.504,178.67 972,319.5C 1014.09,437.477 1010.76,554.144 962,669.5C 943.486,712.343 915.652,747.843 878.5,776C 868.907,781.754 860.741,780.254 854,771.5C 853.065,769.091 852.565,766.591 852.5,764C 862.373,728.468 868.706,692.302 871.5,655.5C 870.56,638.391 861.56,630.224 844.5,631C 826.874,636.146 810.207,643.479 794.5,653C 782.703,656.046 775.703,651.546 773.5,639.5C 788.903,600.602 816.57,574.436 856.5,561C 861.402,559.358 866.402,558.191 871.5,557.5 Z"/></g>
<g><path style="opacity:0.985" fill="#a8e2f3" d="M 871.5,557.5 C 887.66,524.281 881.66,495.781 853.5,472C 830.157,456.542 806.157,455.542 781.5,469C 750.486,490.181 723.153,515.347 699.5,544.5C 698.113,542.123 697.279,539.457 697,536.5C 693.123,486.737 713.623,451.237 758.5,430C 794.032,417.409 827.032,422.076 857.5,444C 891.969,473.691 902.969,510.524 890.5,554.5C 884.119,555.321 877.786,556.321 871.5,557.5 Z"/></g>
<g><path style="opacity:1" fill="#fdfefe" d="M 478.5,465.5 C 496.142,463.395 507.642,470.729 513,487.5C 515.234,503.206 509.067,514.039 494.5,520C 476.565,524.118 464.398,517.618 458,500.5C 455.614,483.254 462.448,471.587 478.5,465.5 Z"/></g>
<g><path style="opacity:0.993" fill="#a8e2f3" d="M 552.5,620.5 C 505.961,638.789 457.961,651.789 408.5,659.5C 369.155,664.235 329.822,666.902 290.5,667.5C 227.865,666.474 175.032,643.474 132,598.5C 129.283,595.29 126.783,591.956 124.5,588.5C 154.736,600.248 186.069,607.081 218.5,609C 254.211,611.774 288.877,607.107 322.5,595C 335.187,589.215 348.187,584.215 361.5,580C 431.148,562.196 494.482,574.863 551.5,618C 552.252,618.671 552.586,619.504 552.5,620.5 Z"/></g>
<g><path style="opacity:0.983" fill="#28a4da" d="M 408.5,659.5 C 421.499,681.015 436.999,700.682 455,718.5C 460.289,729.177 457.789,737.343 447.5,743C 400.197,737.678 356.864,721.678 317.5,695C 306.958,687.292 297.958,678.125 290.5,667.5C 329.822,666.902 369.155,664.235 408.5,659.5 Z"/></g>
<g><path style="opacity:0.981" fill="#28a4da" d="M 768.5,801.5 C 769.497,821.993 769.831,842.66 769.5,863.5C 782.833,863.5 796.167,863.5 809.5,863.5C 809.5,879.833 809.5,896.167 809.5,912.5C 796.167,912.5 782.833,912.5 769.5,912.5C 769.044,939.543 769.544,966.543 771,993.5C 773.796,998.99 778.296,1002.16 784.5,1003C 793.189,1003.67 801.856,1003.51 810.5,1002.5C 810.825,1019.41 810.492,1036.24 809.5,1053C 794.192,1054.46 778.859,1054.79 763.5,1054C 734.76,1051.59 718.927,1036.09 716,1007.5C 714.597,975.855 714.097,944.188 714.5,912.5C 703.833,912.5 693.167,912.5 682.5,912.5C 682.5,896.167 682.5,879.833 682.5,863.5C 693.167,863.5 703.833,863.5 714.5,863.5C 714.5,848.833 714.5,834.167 714.5,819.5C 732.784,814.072 750.784,808.072 768.5,801.5 Z"/></g>
<g><path style="opacity:0.982" fill="#28a4da" d="M 132.5,858.5 C 158.163,856.039 181.33,862.372 202,877.5C 202.499,872.845 202.666,868.179 202.5,863.5C 220.833,863.5 239.167,863.5 257.5,863.5C 257.5,926.5 257.5,989.5 257.5,1052.5C 239.167,1052.5 220.833,1052.5 202.5,1052.5C 202.666,1048.15 202.499,1043.82 202,1039.5C 173.818,1058.92 143.318,1063.42 110.5,1053C 76.426,1039.24 56.926,1014.08 52,977.5C 47.0887,945.705 53.7554,916.705 72,890.5C 88.1106,872.03 108.277,861.363 132.5,858.5 Z M 144.5,911.5 C 165.335,909.268 182.168,916.268 195,932.5C 205.637,952.366 204.303,971.366 191,989.5C 171.694,1007.46 150.194,1010.63 126.5,999C 107.875,985.405 101.375,967.239 107,944.5C 113.183,926.141 125.683,915.141 144.5,911.5 Z"/></g>
<g><path style="opacity:0.98" fill="#28a4da" d="M 582.5,858.5 C 620.156,856.866 650.156,871.033 672.5,901C 657.803,911.345 642.803,921.178 627.5,930.5C 623.048,927.222 618.715,923.722 614.5,920C 585.957,906.959 564.124,914.126 549,941.5C 541.168,966.328 548.335,985.494 570.5,999C 584.655,1005.24 598.655,1004.91 612.5,998C 617.668,994.325 622.668,990.492 627.5,986.5C 642.745,995.737 657.745,1005.4 672.5,1015.5C 644.922,1052.27 608.589,1065.44 563.5,1055C 530.256,1044.76 507.756,1023.26 496,990.5C 483.044,940.348 497.878,900.848 540.5,872C 553.758,864.746 567.758,860.246 582.5,858.5 Z"/></g>
<g><path style="opacity:0.982" fill="#28a4da" d="M 921.5,858.5 C 964.099,857.543 996.266,875.21 1018,911.5C 1036.35,951.32 1032.35,988.653 1006,1023.5C 976.48,1055.51 940.646,1065.67 898.5,1054C 857.64,1038.47 834.807,1008.97 830,965.5C 829.198,919.006 849.698,885.839 891.5,866C 901.314,862.213 911.314,859.713 921.5,858.5 Z M 921.5,913.5 C 948.839,912.021 966.339,924.354 974,950.5C 976.3,978.07 964.133,995.57 937.5,1003C 909.91,1005.29 892.41,993.125 885,966.5C 883.256,939.102 895.423,921.435 921.5,913.5 Z"/></g>
<g><path style="opacity:0.983" fill="#28a4da" d="M 288.5,863.5 C 306.833,863.5 325.167,863.5 343.5,863.5C 343.028,904.873 343.528,946.206 345,987.5C 347.235,996.737 352.735,1003.24 361.5,1007C 377.978,1013.51 391.811,1010.01 403,996.5C 404.725,993.326 406.058,989.993 407,986.5C 408.472,945.54 408.972,904.54 408.5,863.5C 426.833,863.5 445.167,863.5 463.5,863.5C 463.5,926.5 463.5,989.5 463.5,1052.5C 445.167,1052.5 426.833,1052.5 408.5,1052.5C 408.665,1048.82 408.499,1045.15 408,1041.5C 383.865,1060.36 357.699,1063.53 329.5,1051C 303.461,1037.12 289.961,1015.29 289,985.5C 288.5,944.835 288.333,904.168 288.5,863.5 Z"/></g>
</svg>
