<?xml version="1.0" encoding="UTF-8"?>
<!DOCTYPE svg PUBLIC "-//W3C//DTD SVG 1.1//EN" "http://www.w3.org/Graphics/SVG/1.1/DTD/svg11.dtd">
<svg xmlns="http://www.w3.org/2000/svg" version="1.1" width="1081px" height="1081px" style="shape-rendering:geometricPrecision; text-rendering:geometricPrecision; image-rendering:optimizeQuality; fill-rule:evenodd; clip-rule:evenodd" xmlns:xlink="http://www.w3.org/1999/xlink">
<g><path style="opacity:0.997" fill="#28a4da" d="M 871.5,557.5 C 877.867,556.442 884.201,555.275 890.5,554C 902.893,510.225 891.893,473.559 857.5,444C 827.035,422.076 794.035,417.41 758.5,430C 713.623,451.237 693.123,486.737 697,536.5C 697.279,539.457 698.113,542.123 699.5,544.5C 704.74,563.711 712.24,582.045 722,599.5C 731.271,615.1 740.938,630.433 751,645.5C 752.178,664.985 743.011,673.485 723.5,671C 674.63,666.695 627.63,655.028 582.5,636C 572.29,631.063 562.29,625.896 552.5,620.5C 552.586,619.504 552.252,618.671 551.5,618C 494.429,574.907 431.096,562.24 361.5,580C 349.185,583.882 337.185,588.549 325.5,594C 290.976,606.874 255.309,611.874 218.5,609C 186.069,607.081 154.736,600.248 124.5,588.5C 98.8868,557.213 84.0535,521.213 80,480.5C 77.7455,436.609 83.0788,393.609 96,351.5C 140.52,211.298 230.354,112.131 365.5,54C 465.458,14.9399 567.124,9.93991 670.5,39C 815.004,85.1696 915.504,178.67 972,319.5C 1014.09,437.477 1010.76,554.144 962,669.5C 943.486,712.343 915.652,747.843 878.5,776C 868.907,781.754 860.741,780.254 854,771.5C 853.065,769.091 852.565,766.591 852.5,764C 862.373,728.468 868.706,692.302 871.5,655.5C 870.56,638.391 861.56,630.224 844.5,631C 827.05,635.892 810.717,643.226 795.5,653C 783.245,656.377 775.911,651.877 773.5,639.5C 788.903,600.602 816.57,574.436 856.5,561C 861.402,559.358 866.402,558.191 871.5,557.5 Z"/></g>
<g><path style="opacity:0.985" fill="#a8e2f3" d="M 871.5,557.5 C 887.66,524.281 881.66,495.781 853.5,472C 830.157,456.542 806.157,455.542 781.5,469C 750.486,490.181 723.153,515.347 699.5,544.5C 698.113,542.123 697.279,539.457 697,536.5C 693.123,486.737 713.623,451.237 758.5,430C 794.035,417.41 827.035,422.076 857.5,444C 891.893,473.559 902.893,510.225 890.5,554C 884.201,555.275 877.867,556.442 871.5,557.5 Z"/></g>
<g><path style="opacity:1" fill="#fdfefe" d="M 478.5,465.5 C 495.897,463.751 507.397,471.085 513,487.5C 515.234,503.206 509.067,514.039 494.5,520C 476.565,524.118 464.398,517.618 458,500.5C 455.614,483.254 462.448,471.587 478.5,465.5 Z"/></g>
<g><path style="opacity:0.993" fill="#a8e2f3" d="M 552.5,620.5 C 505.964,638.801 457.964,651.801 408.5,659.5C 369.159,664.305 329.826,666.972 290.5,667.5C 227.862,666.473 175.029,643.473 132,598.5C 129.259,595.271 126.759,591.938 124.5,588.5C 154.736,600.248 186.069,607.081 218.5,609C 255.309,611.874 290.976,606.874 325.5,594C 337.185,588.549 349.185,583.882 361.5,580C 431.096,562.24 494.429,574.907 551.5,618C 552.252,618.671 552.586,619.504 552.5,620.5 Z"/></g>
<g><path style="opacity:0.983" fill="#28a4da" d="M 408.5,659.5 C 421.499,681.015 436.999,700.682 455,718.5C 460.289,729.177 457.789,737.343 447.5,743C 402.035,737.734 360.035,722.734 321.5,698C 309.333,689.666 299,679.5 290.5,667.5C 329.826,666.972 369.159,664.305 408.5,659.5 Z"/></g>
<g><path style="opacity:0.981" fill="#fefffe" d="M 768.5,801.5 C 769.497,821.993 769.831,842.66 769.5,863.5C 782.833,863.5 796.167,863.5 809.5,863.5C 809.5,879.833 809.5,896.167 809.5,912.5C 796.167,912.5 782.833,912.5 769.5,912.5C 769.035,939.551 769.535,966.551 771,993.5C 773.796,998.99 778.296,1002.16 784.5,1003C 793.194,1003.71 801.861,1003.54 810.5,1002.5C 810.5,1019.5 810.5,1036.5 810.5,1053.5C 792.471,1054.89 774.471,1054.72 756.5,1053C 731.38,1048.21 717.88,1033.04 716,1007.5C 714.597,975.855 714.097,944.188 714.5,912.5C 703.833,912.5 693.167,912.5 682.5,912.5C 682.5,896.167 682.5,879.833 682.5,863.5C 693.167,863.5 703.833,863.5 714.5,863.5C 714.5,848.833 714.5,834.167 714.5,819.5C 732.784,814.072 750.784,808.072 768.5,801.5 Z"/></g>
<g><path style="opacity:0.98" fill="#fefffe" d="M 132.5,858.5 C 158.167,856.04 181.334,862.373 202,877.5C 202.499,872.845 202.666,868.179 202.5,863.5C 220.833,863.5 239.167,863.5 257.5,863.5C 257.5,926.833 257.5,990.167 257.5,1053.5C 239.167,1053.5 220.833,1053.5 202.5,1053.5C 202.666,1048.82 202.499,1044.15 202,1039.5C 173.816,1058.92 143.316,1063.42 110.5,1053C 76.8871,1039.37 57.3871,1014.54 52,978.5C 46.9572,946.363 53.6238,917.03 72,890.5C 88.1106,872.03 108.277,861.363 132.5,858.5 Z M 144.5,911.5 C 165.347,909.271 182.18,916.271 195,932.5C 205.637,952.366 204.303,971.366 191,989.5C 177.54,1003.1 161.374,1008.26 142.5,1005C 122.337,1000.84 110.171,988.671 106,968.5C 102.49,938.128 115.323,919.128 144.5,911.5 Z"/></g>
<g><path style="opacity:0.98" fill="#fefffe" d="M 582.5,858.5 C 620.156,856.866 650.156,871.033 672.5,901C 657.803,911.345 642.803,921.178 627.5,930.5C 622.668,926.508 617.668,922.675 612.5,919C 584.508,907.441 563.341,914.941 549,941.5C 541.168,966.328 548.335,985.494 570.5,999C 584.655,1005.24 598.655,1004.91 612.5,998C 617.668,994.325 622.668,990.492 627.5,986.5C 642.745,995.737 657.745,1005.4 672.5,1015.5C 644.919,1052.27 608.586,1065.44 563.5,1055C 523.28,1041.74 499.447,1014.24 492,972.5C 487.695,928.947 503.862,895.447 540.5,872C 553.758,864.746 567.758,860.246 582.5,858.5 Z"/></g>
<g><path style="opacity:0.982" fill="#fefffe" d="M 921.5,858.5 C 964.099,857.543 996.266,875.21 1018,911.5C 1036.35,951.32 1032.35,988.653 1006,1023.5C 976.474,1055.51 940.641,1065.68 898.5,1054C 857.64,1038.47 834.807,1008.97 830,965.5C 829.209,918.998 849.709,885.831 891.5,866C 901.314,862.213 911.314,859.713 921.5,858.5 Z M 921.5,913.5 C 948.839,912.021 966.339,924.354 974,950.5C 976.3,978.07 964.133,995.57 937.5,1003C 909.91,1005.29 892.41,993.125 885,966.5C 883.256,939.102 895.423,921.435 921.5,913.5 Z"/></g>
<g><path style="opacity:0.981" fill="#fefffe" d="M 288.5,863.5 C 306.833,863.5 325.167,863.5 343.5,863.5C 343.028,904.873 343.528,946.206 345,987.5C 347.235,996.737 352.735,1003.24 361.5,1007C 378.016,1013.5 391.849,1010 403,996.5C 404.725,993.326 406.058,989.993 407,986.5C 408.472,945.54 408.972,904.54 408.5,863.5C 426.833,863.5 445.167,863.5 463.5,863.5C 463.5,926.833 463.5,990.167 463.5,1053.5C 445.167,1053.5 426.833,1053.5 408.5,1053.5C 408.666,1049.49 408.499,1045.49 408,1041.5C 387.976,1057.94 365.476,1062.44 340.5,1055C 316.831,1048 300.998,1032.83 293,1009.5C 290.802,1001.65 289.469,993.646 289,985.5C 288.5,944.835 288.333,904.168 288.5,863.5 Z"/></g>
</svg>
