<?xml version="1.0" encoding="UTF-8"?>
<!DOCTYPE svg PUBLIC "-//W3C//DTD SVG 1.1//EN" "http://www.w3.org/Graphics/SVG/1.1/DTD/svg11.dtd">
<svg xmlns="http://www.w3.org/2000/svg" version="1.1" width="1081px" height="1081px" style="shape-rendering:geometricPrecision; text-rendering:geometricPrecision; image-rendering:optimizeQuality; fill-rule:evenodd; clip-rule:evenodd" xmlns:xlink="http://www.w3.org/1999/xlink">
<g><path style="opacity:0.997" fill="#fefefe" d="M 871.5,557.5 C 877.772,556.226 884.106,555.226 890.5,554.5C 903.459,508.286 891.126,470.453 853.5,441C 824.819,422.304 794.153,418.304 761.5,429C 714.735,449.478 693.235,485.311 697,536.5C 697.279,539.457 698.113,542.123 699.5,544.5C 704.879,564.462 712.713,583.462 723,601.5C 731.606,615.769 740.606,629.769 750,643.5C 753.898,656.871 749.398,666.037 736.5,671C 671.129,668.493 609.796,651.66 552.5,620.5C 546.365,614.075 539.365,608.575 531.5,604C 472.801,569.553 411.135,563.219 346.5,585C 298.847,607.703 248.847,615.036 196.5,607C 171.748,603.645 147.748,597.479 124.5,588.5C 106.811,567.798 94.3107,544.131 87,517.5C 79.4594,489.932 77.1261,461.932 80,433.5C 97.4853,293.956 162.985,183.456 276.5,102C 387.147,28.4714 507.814,4.80469 638.5,31C 774.088,63.3269 876.255,139.827 945,260.5C 1003.14,371.388 1016.14,487.388 984,608.5C 973.061,647.7 956.728,684.366 935,718.5C 918.5,741.667 898.667,761.5 875.5,778C 866.518,781.448 859.351,779.281 854,771.5C 853.065,769.091 852.565,766.591 852.5,764C 862.372,728.471 868.705,692.304 871.5,655.5C 870.568,638.4 861.568,630.234 844.5,631C 827.177,636.215 810.844,643.548 795.5,653C 783.212,656.363 775.879,651.863 773.5,639.5C 784.17,612.368 801.837,590.868 826.5,575C 840.414,566.377 855.414,560.543 871.5,557.5 Z"/></g>
<g><path style="opacity:0.986" fill="#d1d1d1" d="M 871.5,557.5 C 885.194,531.142 883.028,506.142 865,482.5C 840.491,457.721 812.657,453.221 781.5,469C 750.486,490.181 723.153,515.347 699.5,544.5C 698.113,542.123 697.279,539.457 697,536.5C 693.235,485.311 714.735,449.478 761.5,429C 794.153,418.304 824.819,422.304 853.5,441C 891.126,470.453 903.459,508.286 890.5,554.5C 884.106,555.226 877.772,556.226 871.5,557.5 Z"/></g>
<g><path style="opacity:1" fill="#020202" d="M 478.5,465.5 C 496.154,463.4 507.654,470.734 513,487.5C 514.842,503.988 508.009,515.155 492.5,521C 467.667,522.833 456.167,511.333 458,486.5C 460.99,475.678 467.823,468.678 478.5,465.5 Z"/></g>
<g><path style="opacity:0.993" fill="#d1d1d1" d="M 552.5,620.5 C 505.961,638.802 457.961,651.802 408.5,659.5C 369.167,664.387 329.834,667.054 290.5,667.5C 227.26,666.62 174.094,643.287 131,597.5C 128.59,594.603 126.423,591.603 124.5,588.5C 147.748,597.479 171.748,603.645 196.5,607C 248.847,615.036 298.847,607.703 346.5,585C 411.135,563.219 472.801,569.553 531.5,604C 539.365,608.575 546.365,614.075 552.5,620.5 Z"/></g>
<g><path style="opacity:0.982" fill="#fefefe" d="M 408.5,659.5 C 421.099,681.316 436.599,700.983 455,718.5C 459.456,727.522 457.956,735.356 450.5,742C 443.857,743.893 437.19,743.893 430.5,742C 400.557,735.575 371.89,725.575 344.5,712C 323.14,701.166 305.14,686.332 290.5,667.5C 329.834,667.054 369.167,664.387 408.5,659.5 Z"/></g>
<g><path style="opacity:0.982" fill="#fefffe" d="M 768.5,801.5 C 769.497,821.993 769.831,842.66 769.5,863.5C 782.833,863.5 796.167,863.5 809.5,863.5C 809.5,879.833 809.5,896.167 809.5,912.5C 796.167,912.5 782.833,912.5 769.5,912.5C 769.035,939.551 769.535,966.551 771,993.5C 773.553,998.703 777.72,1001.87 783.5,1003C 792.527,1003.72 801.527,1003.55 810.5,1002.5C 810.5,1019.5 810.5,1036.5 810.5,1053.5C 792.472,1054.91 774.472,1054.74 756.5,1053C 731.389,1048.22 717.889,1033.05 716,1007.5C 714.597,975.855 714.097,944.188 714.5,912.5C 703.833,912.5 693.167,912.5 682.5,912.5C 682.5,896.167 682.5,879.833 682.5,863.5C 693.167,863.5 703.833,863.5 714.5,863.5C 714.5,848.833 714.5,834.167 714.5,819.5C 732.784,814.072 750.784,808.072 768.5,801.5 Z"/></g>
<g><path style="opacity:0.98" fill="#fefffe" d="M 133.5,858.5 C 158.822,856.203 181.656,862.537 202,877.5C 202.499,872.845 202.666,868.179 202.5,863.5C 220.833,863.5 239.167,863.5 257.5,863.5C 257.5,926.833 257.5,990.167 257.5,1053.5C 239.167,1053.5 220.833,1053.5 202.5,1053.5C 202.666,1048.82 202.499,1044.15 202,1039.5C 172.726,1059.63 141.226,1063.8 107.5,1052C 75.6133,1037.77 57.1133,1013.27 52,978.5C 46.9572,946.363 53.6238,917.03 72,890.5C 88.3531,871.741 108.853,861.074 133.5,858.5 Z M 144.5,911.5 C 163.148,909.548 178.981,915.214 192,928.5C 204.068,945.662 205.402,963.662 196,982.5C 180.561,1004.09 160.061,1010.92 134.5,1003C 112.05,992.276 102.55,974.443 106,949.5C 110.758,928.575 123.591,915.908 144.5,911.5 Z"/></g>
<g><path style="opacity:0.98" fill="#fefffe" d="M 584.5,858.5 C 621.266,857.679 650.599,871.845 672.5,901C 657.42,911.291 642.253,921.457 627,931.5C 608.747,911.262 587.914,908.095 564.5,922C 542.621,941.394 539.788,963.227 556,987.5C 573.104,1005.08 592.604,1008.25 614.5,997C 618.713,993.28 623.046,989.78 627.5,986.5C 642.745,995.737 657.745,1005.4 672.5,1015.5C 645.902,1051.32 610.568,1064.82 566.5,1056C 524.399,1043.57 499.565,1015.73 492,972.5C 487.701,928.936 503.867,895.436 540.5,872C 554.349,864.378 569.016,859.878 584.5,858.5 Z"/></g>
<g><path style="opacity:0.982" fill="#fefffe" d="M 922.5,858.5 C 966.74,857.856 999.24,876.856 1020,915.5C 1038.22,961.728 1029.39,1001.89 993.5,1036C 962.795,1059.39 929.129,1064.73 892.5,1052C 852.455,1033.76 831.455,1002.6 829.5,958.5C 834.35,900.655 865.35,867.322 922.5,858.5 Z M 921.5,913.5 C 948.839,912.021 966.339,924.354 974,950.5C 976.24,977.521 964.407,995.021 938.5,1003C 910.524,1005.6 892.691,993.435 885,966.5C 883.241,939.113 895.407,921.447 921.5,913.5 Z"/></g>
<g><path style="opacity:0.981" fill="#fefffe" d="M 288.5,863.5 C 306.833,863.5 325.167,863.5 343.5,863.5C 343.028,904.873 343.528,946.206 345,987.5C 348.233,999.065 355.733,1006.23 367.5,1009C 382.156,1012.58 393.989,1008.41 403,996.5C 404.725,993.326 406.058,989.993 407,986.5C 408.472,945.54 408.972,904.54 408.5,863.5C 426.833,863.5 445.167,863.5 463.5,863.5C 463.5,926.833 463.5,990.167 463.5,1053.5C 445.167,1053.5 426.833,1053.5 408.5,1053.5C 408.666,1049.49 408.499,1045.49 408,1041.5C 384.728,1060.01 359.228,1063.51 331.5,1052C 304.131,1038.46 289.965,1016.29 289,985.5C 288.5,944.835 288.333,904.168 288.5,863.5 Z"/></g>
</svg>
