<svg version="1.1" id="Layer_1" xmlns="http://www.w3.org/2000/svg" xmlns:xlink="http://www.w3.org/1999/xlink" x="0px" y="0px"
	 width="100%" viewBox="0 0 1000 816" enable-background="new 0 0 1000 816" xml:space="preserve">
<path fill="#000000" opacity="1.000000" stroke="none" 
	d="
M571.000000,817.000000 
	C380.666656,817.000000 190.833328,817.000000 1.000000,817.000000 
	C1.000000,545.000000 1.000000,273.000000 1.000000,1.000000 
	C334.333344,1.000000 667.666687,1.000000 1001.000000,1.000000 
	C1001.000000,273.000000 1001.000000,545.000000 1001.000000,817.000000 
	C857.833313,817.000000 714.666687,817.000000 571.000000,817.000000 
M56.973667,611.044739 
	C56.973667,611.044739 56.906021,611.056396 57.170925,611.701843 
	C59.348648,614.801453 61.128323,618.305359 63.783947,620.919495 
	C70.010002,627.048218 76.640800,632.767151 83.134811,638.621948 
	C91.867729,646.495300 100.522232,654.325378 111.463509,659.367920 
	C119.885315,663.249207 127.464394,668.960205 135.888611,672.834778 
	C145.746552,677.368774 155.932739,681.384216 166.299133,684.577209 
	C188.283875,691.348755 210.883652,694.798035 234.260468,695.731506 
	C238.802155,700.667480 243.163605,705.786194 247.933136,710.491150 
	C253.377075,715.861389 258.724640,721.510315 264.915924,725.909668 
	C287.736450,742.125305 312.755951,754.112427 339.557800,762.116577 
	C356.615021,767.210571 373.914917,771.497559 391.131073,776.051636 
	C399.850159,778.358032 406.520844,775.585693 410.997253,768.065918 
	C414.764648,761.737122 413.462738,752.540222 408.302368,746.737488 
	C398.940216,736.209961 389.296906,725.888550 380.591064,714.835144 
	C373.446014,705.763489 367.490753,695.754700 361.851624,686.015869 
	C368.161316,685.353821 374.597748,685.270142 380.756744,683.920532 
	C398.655518,679.998352 416.541870,675.939636 434.245148,671.228455 
	C450.291107,666.958252 466.178070,662.029602 481.967499,656.877625 
	C492.893402,653.312500 503.534393,648.874329 514.795288,645.337036 
	C516.796509,646.320496 518.797424,647.304565 520.799011,648.287354 
	C533.538757,654.542542 546.112976,661.171143 559.077759,666.918579 
	C567.454956,670.632324 576.318848,673.338684 585.117798,675.988037 
	C597.051819,679.581360 609.085999,682.870361 621.165283,685.943787 
	C630.255310,688.256714 639.429138,690.339050 648.665710,691.950500 
	C658.450745,693.657654 668.341248,694.792053 678.209229,695.981873 
	C687.634216,697.118225 697.069580,698.429016 706.537354,698.871643 
	C714.764465,699.256287 721.550293,695.668518 724.989380,687.864258 
	C728.292358,680.368713 728.555054,672.605408 723.859314,665.428711 
	C719.719666,659.101990 714.934143,653.182617 711.013611,646.731079 
	C703.463196,634.305908 696.229431,621.684814 689.036499,609.046936 
	C680.987366,594.904724 676.259399,579.403503 671.709717,563.806030 
	C676.706360,557.804810 681.667542,551.773499 686.720276,545.819885 
	C688.328674,543.924622 690.194275,542.249207 691.918091,540.450012 
	C697.418152,534.709534 702.520996,528.516052 708.486084,523.309692 
	C718.650513,514.438293 729.194824,505.977844 739.883179,497.738586 
	C747.957886,491.514069 756.224731,485.438538 764.934509,480.170288 
	C771.692749,476.082458 779.138611,473.295502 787.545837,473.898254 
	C795.170288,474.444855 803.281616,472.583069 810.420227,474.543549 
	C822.582275,477.883667 833.724609,483.775818 842.948181,493.183411 
	C850.065369,500.442505 855.445374,508.453766 859.280579,517.709717 
	C864.145203,529.450378 866.259033,541.585510 862.898987,553.993347 
	C860.871033,561.482178 857.598755,568.634094 854.187073,576.263245 
	C837.555298,580.713867 821.137756,585.865845 806.820068,595.738342 
	C797.684265,602.037781 788.643494,608.673523 780.547668,616.218140 
	C774.388306,621.958130 769.357361,629.077942 764.602539,636.110046 
	C759.538818,643.598938 755.176819,651.593018 750.921204,659.586304 
	C748.257935,664.588562 751.042664,675.250916 755.506042,677.888367 
	C762.470398,682.003418 769.606323,682.517395 776.827698,678.124451 
	C780.692322,675.773499 784.880554,673.957947 788.772034,671.647034 
	C800.286621,664.809143 812.663574,660.271667 825.529480,656.654297 
	C835.614563,653.818787 851.733459,661.184631 852.900330,673.146790 
	C853.513367,679.431274 853.348450,685.848694 852.922119,692.164734 
	C852.215393,702.633301 851.596802,713.163818 849.903687,723.498352 
	C845.998230,747.336426 841.694092,771.104553 834.433533,794.247070 
	C832.157166,801.502808 835.737305,807.404663 841.462891,811.913391 
	C846.441101,815.833618 852.380981,816.793030 857.548584,813.558105 
	C864.999207,808.893982 871.900146,803.279968 878.703552,797.668640 
	C893.786316,785.228638 906.866577,770.842285 918.381409,755.076416 
	C924.208069,747.098755 930.214172,739.128540 934.936340,730.497009 
	C941.860229,717.840820 948.053345,704.748413 953.894226,691.548279 
	C958.184448,681.852661 961.631042,671.761414 965.054199,661.710388 
	C969.057617,649.955322 973.055664,638.168030 976.286865,626.187317 
	C981.400146,607.227905 987.022034,588.416687 988.204224,568.525146 
	C989.409119,548.250916 992.643555,528.095459 993.788208,507.820190 
	C994.580444,493.787872 993.335083,479.640503 992.999329,465.544525 
	C992.987427,465.044952 993.002075,464.541412 992.944336,464.046692 
	C991.634644,452.825195 990.323242,441.603882 988.997803,430.384216 
	C987.981506,421.781555 987.538452,413.058228 985.785767,404.607361 
	C982.831421,390.362335 979.460083,376.171570 975.482849,362.180054 
	C971.597290,348.510803 967.012756,335.019165 962.198120,321.642853 
	C959.205627,313.329071 955.289368,305.341034 951.653015,297.267456 
	C947.151733,287.273315 942.935669,277.117401 937.817627,267.443329 
	C932.081970,256.601929 925.625061,246.129456 919.205750,235.665878 
	C912.879822,225.354370 906.623474,214.955811 899.561890,205.153458 
	C893.506592,196.747787 886.484924,189.018784 879.660950,181.190765 
	C869.042297,169.009842 858.299500,156.934570 847.434998,144.972809 
	C845.403076,142.735748 842.364380,141.446091 840.114868,139.367874 
	C832.110413,131.972900 824.692566,123.869949 816.221008,117.071304 
	C804.440674,107.617340 792.168762,98.713577 779.631592,90.281670 
	C765.924622,81.063026 751.783081,72.471283 737.615479,63.965191 
	C730.892517,59.928829 723.653748,56.755379 716.676514,53.137302 
	C711.529663,50.468380 706.637939,47.166180 701.265686,45.100098 
	C686.550537,39.440830 671.743347,33.977577 656.777893,29.025293 
	C644.275085,24.887943 631.567200,21.313051 618.819092,17.992006 
	C608.328552,15.259076 597.579590,13.527320 587.061951,10.886838 
	C565.705200,5.525149 543.814941,4.815615 522.073914,4.274366 
	C499.410706,3.710160 476.683990,5.120254 454.003235,6.092035 
	C443.388245,6.546846 432.724976,7.438285 422.245880,9.134603 
	C406.542542,11.676609 390.844208,14.538956 375.402954,18.322727 
	C362.101349,21.582191 348.950897,25.755089 336.117889,30.552195 
	C321.292694,36.093994 306.869629,42.717953 292.314117,48.970181 
	C288.477692,50.618084 284.781311,52.597187 281.047455,54.477497 
	C270.863098,59.606194 260.262970,64.071640 250.616913,70.069382 
	C235.689850,79.350784 221.248550,89.448380 206.928284,99.658508 
	C197.393921,106.456360 188.379272,113.990921 179.241425,121.331947 
	C176.753143,123.330940 174.781311,125.961418 172.364212,128.062531 
	C165.781036,133.785126 158.550751,138.867737 152.557236,145.140640 
	C142.679153,155.479202 133.460190,166.459030 124.174751,177.348801 
	C116.293938,186.591248 108.415947,195.864761 101.097145,205.548096 
	C95.859718,212.477615 91.510025,220.082733 86.833801,227.430664 
	C80.457420,237.450104 73.613876,247.221191 67.945335,257.629608 
	C61.049072,270.292297 55.040089,283.447479 48.888374,296.503235 
	C44.608116,305.587219 40.098412,314.481934 37.557713,324.431580 
	C34.202156,337.572296 28.958536,350.218628 25.000347,363.221710 
	C21.943853,373.262634 19.310900,383.458252 17.055756,393.709656 
	C15.030768,402.914734 13.529409,412.255432 12.245331,421.597931 
	C10.595830,433.599121 8.465604,445.643982 8.232865,457.702637 
	C7.937168,473.023315 8.989027,488.402863 10.142645,503.705597 
	C10.777107,512.121765 12.295944,520.563354 14.372397,528.750977 
	C16.188395,535.911438 19.745489,542.614563 21.828754,549.726135 
	C27.984695,570.740662 39.925713,588.612122 52.009613,606.426086 
	C52.996326,607.880737 54.634178,608.893616 56.099323,610.612366 
	C56.392044,610.779358 56.684769,610.946289 56.973667,611.044739 
z"/>
<path fill="#28A4DA" opacity="1.000000" stroke="none" 
	d="
M55.969482,610.111755 
	C54.634178,608.893616 52.996326,607.880737 52.009613,606.426086 
	C39.925713,588.612122 27.984695,570.740662 21.828754,549.726135 
	C19.745489,542.614563 16.188395,535.911438 14.372397,528.750977 
	C12.295944,520.563354 10.777107,512.121765 10.142645,503.705597 
	C8.989027,488.402863 7.937168,473.023315 8.232865,457.702637 
	C8.465604,445.643982 10.595830,433.599121 12.245331,421.597931 
	C13.529409,412.255432 15.030768,402.914734 17.055756,393.709656 
	C19.310900,383.458252 21.943853,373.262634 25.000347,363.221710 
	C28.958536,350.218628 34.202156,337.572296 37.557713,324.431580 
	C40.098412,314.481934 44.608116,305.587219 48.888374,296.503235 
	C55.040089,283.447479 61.049072,270.292297 67.945335,257.629608 
	C73.613876,247.221191 80.457420,237.450104 86.833801,227.430664 
	C91.510025,220.082733 95.859718,212.477615 101.097145,205.548096 
	C108.415947,195.864761 116.293938,186.591248 124.174751,177.348801 
	C133.460190,166.459030 142.679153,155.479202 152.557236,145.140640 
	C158.550751,138.867737 165.781036,133.785126 172.364212,128.062531 
	C174.781311,125.961418 176.753143,123.330940 179.241425,121.331947 
	C188.379272,113.990921 197.393921,106.456360 206.928284,99.658508 
	C221.248550,89.448380 235.689850,79.350784 250.616913,70.069382 
	C260.262970,64.071640 270.863098,59.606194 281.047455,54.477497 
	C284.781311,52.597187 288.477692,50.618084 292.314117,48.970181 
	C306.869629,42.717953 321.292694,36.093994 336.117889,30.552195 
	C348.950897,25.755089 362.101349,21.582191 375.402954,18.322727 
	C390.844208,14.538956 406.542542,11.676609 422.245880,9.134603 
	C432.724976,7.438285 443.388245,6.546846 454.003235,6.092035 
	C476.683990,5.120254 499.410706,3.710160 522.073914,4.274366 
	C543.814941,4.815615 565.705200,5.525149 587.061951,10.886838 
	C597.579590,13.527320 608.328552,15.259076 618.819092,17.992006 
	C631.567200,21.313051 644.275085,24.887943 656.777893,29.025293 
	C671.743347,33.977577 686.550537,39.440830 701.265686,45.100098 
	C706.637939,47.166180 711.529663,50.468380 716.676514,53.137302 
	C723.653748,56.755379 730.892517,59.928829 737.615479,63.965191 
	C751.783081,72.471283 765.924622,81.063026 779.631592,90.281670 
	C792.168762,98.713577 804.440674,107.617340 816.221008,117.071304 
	C824.692566,123.869949 832.110413,131.972900 840.114868,139.367874 
	C842.364380,141.446091 845.403076,142.735748 847.434998,144.972809 
	C858.299500,156.934570 869.042297,169.009842 879.660950,181.190765 
	C886.484924,189.018784 893.506592,196.747787 899.561890,205.153458 
	C906.623474,214.955811 912.879822,225.354370 919.205750,235.665878 
	C925.625061,246.129456 932.081970,256.601929 937.817627,267.443329 
	C942.935669,277.117401 947.151733,287.273315 951.653015,297.267456 
	C955.289368,305.341034 959.205627,313.329071 962.198120,321.642853 
	C967.012756,335.019165 971.597290,348.510803 975.482849,362.180054 
	C979.460083,376.171570 982.831421,390.362335 985.785767,404.607361 
	C987.538452,413.058228 987.981506,421.781555 988.997803,430.384216 
	C990.323242,441.603882 991.634644,452.825195 992.944336,464.046692 
	C993.002075,464.541412 992.987427,465.044952 992.999329,465.544525 
	C993.335083,479.640503 994.580444,493.787872 993.788208,507.820190 
	C992.643555,528.095459 989.409119,548.250916 988.204224,568.525146 
	C987.022034,588.416687 981.400146,607.227905 976.286865,626.187317 
	C973.055664,638.168030 969.057617,649.955322 965.054199,661.710388 
	C961.631042,671.761414 958.184448,681.852661 953.894226,691.548279 
	C948.053345,704.748413 941.860229,717.840820 934.936340,730.497009 
	C930.214172,739.128540 924.208069,747.098755 918.381409,755.076416 
	C906.866577,770.842285 893.786316,785.228638 878.703552,797.668640 
	C871.900146,803.279968 864.999207,808.893982 857.548584,813.558105 
	C852.380981,816.793030 846.441101,815.833618 841.462891,811.913391 
	C835.737305,807.404663 832.157166,801.502808 834.433533,794.247070 
	C841.694092,771.104553 845.998230,747.336426 849.903687,723.498352 
	C851.596802,713.163818 852.215393,702.633301 852.922119,692.164734 
	C853.348450,685.848694 853.513367,679.431274 852.900330,673.146790 
	C851.733459,661.184631 835.614563,653.818787 825.529480,656.654297 
	C812.663574,660.271667 800.286621,664.809143 788.772034,671.647034 
	C784.880554,673.957947 780.692322,675.773499 776.827698,678.124451 
	C769.606323,682.517395 762.470398,682.003418 755.506042,677.888367 
	C751.042664,675.250916 748.257935,664.588562 750.921204,659.586304 
	C755.176819,651.593018 759.538818,643.598938 764.602539,636.110046 
	C769.357361,629.077942 774.388306,621.958130 780.547668,616.218140 
	C788.643494,608.673523 797.684265,602.037781 806.820068,595.738342 
	C821.137756,585.865845 837.555298,580.713867 854.843262,576.338501 
	C860.585632,575.926147 865.665100,575.173523 870.760437,575.043335 
	C874.203125,574.955261 875.749084,573.613281 876.661499,570.387207 
	C881.410583,553.596497 882.687866,536.617126 878.851440,519.554565 
	C869.883423,479.669434 846.269653,451.936279 807.444824,439.174286 
	C768.251465,426.291168 732.362976,434.418579 701.652466,462.118011 
	C678.819336,482.712402 667.834229,509.186493 667.361938,539.731506 
	C667.236633,547.835571 669.752258,555.980408 671.055359,564.106567 
	C676.259399,579.403503 680.987366,594.904724 689.036499,609.046936 
	C696.229431,621.684814 703.463196,634.305908 711.013611,646.731079 
	C714.934143,653.182617 719.719666,659.101990 723.859314,665.428711 
	C728.555054,672.605408 728.292358,680.368713 724.989380,687.864258 
	C721.550293,695.668518 714.764465,699.256287 706.537354,698.871643 
	C697.069580,698.429016 687.634216,697.118225 678.209229,695.981873 
	C668.341248,694.792053 658.450745,693.657654 648.665710,691.950500 
	C639.429138,690.339050 630.255310,688.256714 621.165283,685.943787 
	C609.085999,682.870361 597.051819,679.581360 585.117798,675.988037 
	C576.318848,673.338684 567.454956,670.632324 559.077759,666.918579 
	C546.112976,661.171143 533.538757,654.542542 520.799011,648.287354 
	C518.797424,647.304565 516.796509,646.320496 514.461121,644.742798 
	C512.779724,642.719482 511.615875,641.040649 510.058838,639.897217 
	C443.968597,591.366516 372.061371,580.154907 294.460266,606.725159 
	C281.874359,611.034546 269.821075,616.894470 257.247955,621.247253 
	C226.388214,631.930786 194.416336,633.747986 162.078186,632.339050 
	C128.018066,630.855103 95.062576,624.102722 63.097088,612.321411 
	C61.143387,611.601318 58.974689,611.464539 56.906021,611.056396 
	C56.906021,611.056396 56.973667,611.044739 56.969429,610.796875 
	C56.633289,610.403259 56.301392,610.257507 55.969482,610.111755 
M444.298645,478.810028 
	C443.300751,478.803101 442.301758,478.762360 441.305115,478.794342 
	C427.176361,479.247894 415.473419,489.177429 412.797028,502.971161 
	C410.057953,517.087952 417.218994,530.775330 430.312439,536.449524 
	C443.419037,542.129395 458.466278,538.037903 466.755646,526.510803 
	C479.975861,508.127045 469.096466,481.292633 444.298645,478.810028 
z"/>
<path fill="#A8E3F4" opacity="1.000000" stroke="none" 
	d="
M57.038475,611.379150 
	C58.974689,611.464539 61.143387,611.601318 63.097088,612.321411 
	C95.062576,624.102722 128.018066,630.855103 162.078186,632.339050 
	C194.416336,633.747986 226.388214,631.930786 257.247955,621.247253 
	C269.821075,616.894470 281.874359,611.034546 294.460266,606.725159 
	C372.061371,580.154907 443.968597,591.366516 510.058838,639.897217 
	C511.615875,641.040649 512.779724,642.719482 514.214844,644.487427 
	C503.534393,648.874329 492.893402,653.312500 481.967499,656.877625 
	C466.178070,662.029602 450.291107,666.958252 434.245148,671.228455 
	C416.541870,675.939636 398.655518,679.998352 380.756744,683.920532 
	C374.597748,685.270142 368.161316,685.353821 360.991394,686.013184 
	C349.433472,687.271179 338.766693,689.091003 328.032074,689.685364 
	C298.554352,691.317322 269.047180,692.414856 239.555359,693.802063 
	C237.662720,693.891113 235.801331,694.644592 233.925385,695.088989 
	C210.883652,694.798035 188.283875,691.348755 166.299133,684.577209 
	C155.932739,681.384216 145.746552,677.368774 135.888611,672.834778 
	C127.464394,668.960205 119.885315,663.249207 111.463509,659.367920 
	C100.522232,654.325378 91.867729,646.495300 83.134811,638.621948 
	C76.640800,632.767151 70.010002,627.048218 63.783947,620.919495 
	C61.128323,618.305359 59.348648,614.801453 57.038475,611.379150 
z"/>
<path fill="#A8E3F4" opacity="1.000000" stroke="none" 
	d="
M671.382568,563.956299 
	C669.752258,555.980408 667.236633,547.835571 667.361938,539.731506 
	C667.834229,509.186493 678.819336,482.712402 701.652466,462.118011 
	C732.362976,434.418579 768.251465,426.291168 807.444824,439.174286 
	C846.269653,451.936279 869.883423,479.669434 878.851440,519.554565 
	C882.687866,536.617126 881.410583,553.596497 876.661499,570.387207 
	C875.749084,573.613281 874.203125,574.955261 870.760437,575.043335 
	C865.665100,575.173523 860.585632,575.926147 855.192505,576.175537 
	C857.598755,568.634094 860.871033,561.482178 862.898987,553.993347 
	C866.259033,541.585510 864.145203,529.450378 859.280579,517.709717 
	C855.445374,508.453766 850.065369,500.442505 842.948181,493.183411 
	C833.724609,483.775818 822.582275,477.883667 810.420227,474.543549 
	C803.281616,472.583069 795.170288,474.444855 787.545837,473.898254 
	C779.138611,473.295502 771.692749,476.082458 764.934509,480.170288 
	C756.224731,485.438538 747.957886,491.514069 739.883179,497.738586 
	C729.194824,505.977844 718.650513,514.438293 708.486084,523.309692 
	C702.520996,528.516052 697.418152,534.709534 691.918091,540.450012 
	C690.194275,542.249207 688.328674,543.924622 686.720276,545.819885 
	C681.667542,551.773499 676.706360,557.804810 671.382568,563.956299 
z"/>
<path fill="#28A4DA" opacity="1.000000" stroke="none" 
	d="
M234.092926,695.410278 
	C235.801331,694.644592 237.662720,693.891113 239.555359,693.802063 
	C269.047180,692.414856 298.554352,691.317322 328.032074,689.685364 
	C338.766693,689.091003 349.433472,687.271179 360.569641,686.085815 
	C367.490753,695.754700 373.446014,705.763489 380.591064,714.835144 
	C389.296906,725.888550 398.940216,736.209961 408.302368,746.737488 
	C413.462738,752.540222 414.764648,761.737122 410.997253,768.065918 
	C406.520844,775.585693 399.850159,778.358032 391.131073,776.051636 
	C373.914917,771.497559 356.615021,767.210571 339.557800,762.116577 
	C312.755951,754.112427 287.736450,742.125305 264.915924,725.909668 
	C258.724640,721.510315 253.377075,715.861389 247.933136,710.491150 
	C243.163605,705.786194 238.802155,700.667480 234.092926,695.410278 
z"/>
<path fill="#A8E3F4" opacity="1.000000" stroke="none" 
	d="
M56.034409,610.362061 
	C56.301392,610.257507 56.633289,610.403259 56.971340,610.831116 
	C56.684769,610.946289 56.392044,610.779358 56.034409,610.362061 
z"/>
<path fill="#FCFEFF" opacity="1.000000" stroke="none" 
	d="
M444.753174,478.824585 
	C469.096466,481.292633 479.975861,508.127045 466.755646,526.510803 
	C458.466278,538.037903 443.419037,542.129395 430.312439,536.449524 
	C417.218994,530.775330 410.057953,517.087952 412.797028,502.971161 
	C415.473419,489.177429 427.176361,479.247894 441.305115,478.794342 
	C442.301758,478.762360 443.300751,478.803101 444.753174,478.824585 
z"/>
</svg>