<?xml version="1.0" encoding="UTF-8"?>
<!DOCTYPE svg PUBLIC "-//W3C//DTD SVG 1.1//EN" "http://www.w3.org/Graphics/SVG/1.1/DTD/svg11.dtd">
<svg xmlns="http://www.w3.org/2000/svg" version="1.1" width="1081px" height="300px" style="shape-rendering:geometricPrecision; text-rendering:geometricPrecision; image-rendering:optimizeQuality; fill-rule:evenodd; clip-rule:evenodd" xmlns:xlink="http://www.w3.org/1999/xlink">
<g><path style="opacity:0.992" fill="#000000" d="M 303.5,207.5 C 305.527,207.662 307.527,207.495 309.5,207C 315.284,183.238 306.617,167.238 283.5,159C 262.177,155.575 247.344,163.741 239,183.5C 237.297,190.178 237.131,196.845 238.5,203.5C 242.571,216.311 248.738,227.978 257,238.5C 259.171,242.657 258.671,246.491 255.5,250C 230.003,250.793 206.003,244.96 183.5,232.5C 171.371,221.61 157.037,215.443 140.5,214C 131.734,213.245 123.067,213.912 114.5,216C 102.932,221.078 90.932,224.745 78.5,227C 59.6086,229.174 41.2752,227.007 23.5,220.5C 13.3532,208.852 7.51984,195.186 6,179.5C 7.43036,112.445 36.9304,61.9452 94.5,28C 157.793,-3.27915 219.127,0.054183 278.5,38C 335.598,81.9174 359.098,139.751 349,211.5C 344.907,235.006 335.907,256.34 322,275.5C 318.167,279.333 314.333,283.167 310.5,287C 308.037,289.565 305.037,291.065 301.5,291.5C 297.5,291.5 295.5,289.5 295.5,285.5C 298.501,274.327 300.668,262.993 302,251.5C 304.551,243.607 302.051,238.273 294.5,235.5C 286.772,238.121 279.272,241.121 272,244.5C 268.339,244.51 266.172,242.677 265.5,239C 272.576,221.758 285.242,211.258 303.5,207.5 Z"/></g>
<g><path style="opacity:0.98" fill="#000000" d="M 892.5,14.5 C 893.5,14.5 894.5,14.5 895.5,14.5C 895.5,28.5 895.5,42.5 895.5,56.5C 904.833,56.5 914.167,56.5 923.5,56.5C 923.5,67.8333 923.5,79.1667 923.5,90.5C 914.167,90.5 904.833,90.5 895.5,90.5C 895.067,108.88 895.567,127.214 897,145.5C 898.868,149.521 902.035,151.687 906.5,152C 912.204,152.687 917.87,152.521 923.5,151.5C 923.5,163.167 923.5,174.833 923.5,186.5C 912.189,187.551 900.855,187.717 889.5,187C 871.333,184.833 861.167,174.667 859,156.5C 858.5,134.503 858.333,112.503 858.5,90.5C 850.833,90.5 843.167,90.5 835.5,90.5C 835.5,79.1667 835.5,67.8333 835.5,56.5C 843.167,56.5 850.833,56.5 858.5,56.5C 858.334,46.4944 858.5,36.4944 859,26.5C 870.286,22.5733 881.453,18.5733 892.5,14.5 Z"/></g>
<g><path style="opacity:0.975" fill="#000000" d="M 461.5,52.5 C 477.901,51.6916 492.734,56.0249 506,65.5C 506.498,62.5184 506.665,59.5184 506.5,56.5C 519.167,56.5 531.833,56.5 544.5,56.5C 544.5,99.8333 544.5,143.167 544.5,186.5C 531.833,186.5 519.167,186.5 506.5,186.5C 506.665,183.482 506.498,180.482 506,177.5C 480.561,194.324 454.727,194.824 428.5,179C 413.347,166.868 404.847,151.034 403,131.5C 400.398,109.568 405.731,89.9015 419,72.5C 430.747,60.5414 444.914,53.8747 461.5,52.5 Z M 466.5,89.5 C 495.659,88.8176 508.492,102.818 505,131.5C 496.058,150.825 481.225,157.658 460.5,152C 444.662,144.494 438.162,131.994 441,114.5C 444.755,101.245 453.255,92.9113 466.5,89.5 Z"/></g>
<g><path style="opacity:0.972" fill="#000000" d="M 761.5,53.5 C 789.703,50.1095 812.37,59.6095 829.5,82C 819.259,89.2423 808.759,96.0756 798,102.5C 781.613,86.5824 765.28,86.5824 749,102.5C 738.591,119.192 740.757,134.025 755.5,147C 771.369,155.891 785.535,153.725 798,140.5C 808.91,146.705 819.41,153.538 829.5,161C 807.282,188.847 779.282,196.847 745.5,185C 713.915,168.664 700.748,142.831 706,107.5C 713.561,78.104 732.061,60.104 761.5,53.5 Z"/></g>
<g><path style="opacity:0.976" fill="#000000" d="M 993.5,53.5 C 1028.5,50.2395 1053.66,64.2395 1069,95.5C 1080.04,128.536 1072.2,156.036 1045.5,178C 1016.78,195.454 988.779,194.454 961.5,175C 937.493,152.469 930.993,125.635 942,94.5C 952.568,72.4204 969.735,58.7537 993.5,53.5 Z M 1001.5,90.5 C 1019.88,90.7131 1031.38,99.7131 1036,117.5C 1037.21,130.571 1032.38,140.738 1021.5,148C 1004.36,156.34 990.192,152.84 979,137.5C 970.966,120.469 974.466,106.303 989.5,95C 993.432,92.9716 997.432,91.4716 1001.5,90.5 Z"/></g>
<g><path style="opacity:0.973" fill="#000000" d="M 565.5,56.5 C 578.167,56.5 590.833,56.5 603.5,56.5C 603.042,85.2089 603.542,113.876 605,142.5C 609.072,151.793 616.239,156.46 626.5,156.5C 636.989,155.844 643.822,150.511 647,140.5C 648.448,112.537 648.948,84.537 648.5,56.5C 661.167,56.5 673.833,56.5 686.5,56.5C 686.5,99.8333 686.5,143.167 686.5,186.5C 673.833,186.5 661.167,186.5 648.5,186.5C 648.664,183.813 648.497,181.146 648,178.5C 642.313,183.428 635.813,186.928 628.5,189C 605.037,193.191 586.537,185.691 573,166.5C 568.795,158.349 566.462,149.683 566,140.5C 565.5,112.502 565.333,84.502 565.5,56.5 Z"/></g>
<g><path style="opacity:0.959" fill="#cecece" d="M 303.5,207.5 C 308.988,187.656 301.654,175.656 281.5,171.5C 275.599,172.285 270.265,174.451 265.5,178C 255.672,185.663 246.672,194.163 238.5,203.5C 237.131,196.845 237.297,190.178 239,183.5C 247.344,163.741 262.177,155.575 283.5,159C 306.617,167.238 315.284,183.238 309.5,207C 307.527,207.495 305.527,207.662 303.5,207.5 Z"/></g>
<g><path style="opacity:1" fill="#f9f9f9" d="M 154.5,173.5 C 165.2,173.03 169.7,178.03 168,188.5C 164.723,194.109 159.89,195.942 153.5,194C 145.27,186.768 145.604,179.935 154.5,173.5 Z"/></g>
<g><path style="opacity:0.982" fill="#cfcfcf" d="M 183.5,232.5 C 166.385,239.196 148.719,243.862 130.5,246.5C 115.363,247.723 100.363,248.723 85.5,249.5C 61.053,249.357 40.553,240.357 24,222.5C 23.5357,221.906 23.369,221.239 23.5,220.5C 41.2752,227.007 59.6086,229.174 78.5,227C 90.932,224.745 102.932,221.078 114.5,216C 123.067,213.912 131.734,213.245 140.5,214C 157.037,215.443 171.371,221.61 183.5,232.5 Z"/></g>
<g><path style="opacity:0.84" fill="#000000" d="M 828.5,219.5 C 831.907,220.174 833.24,222.341 832.5,226C 832.712,230.127 830.878,232.961 827,234.5C 825.5,234.333 824.667,233.5 824.5,232C 825.167,230.333 825.833,228.667 826.5,227C 824.776,223.72 825.443,221.22 828.5,219.5 Z"/></g>
<g><path style="opacity:0.856" fill="#000000" d="M 413.5,221.5 C 422.5,221.5 431.5,221.5 440.5,221.5C 440.5,223.833 440.5,226.167 440.5,228.5C 437.5,228.5 434.5,228.5 431.5,228.5C 431.5,237.5 431.5,246.5 431.5,255.5C 428.5,255.5 425.5,255.5 422.5,255.5C 422.5,246.5 422.5,237.5 422.5,228.5C 419.5,228.5 416.5,228.5 413.5,228.5C 413.5,226.167 413.5,223.833 413.5,221.5 Z"/></g>
<g><path style="opacity:0.859" fill="#000000" d="M 446.5,221.5 C 449.5,221.5 452.5,221.5 455.5,221.5C 455.5,226.167 455.5,230.833 455.5,235.5C 459.5,235.5 463.5,235.5 467.5,235.5C 467.5,230.833 467.5,226.167 467.5,221.5C 470.5,221.5 473.5,221.5 476.5,221.5C 476.5,232.833 476.5,244.167 476.5,255.5C 473.5,255.5 470.5,255.5 467.5,255.5C 467.5,250.833 467.5,246.167 467.5,241.5C 463.5,241.5 459.5,241.5 455.5,241.5C 455.5,246.167 455.5,250.833 455.5,255.5C 452.5,255.5 449.5,255.5 446.5,255.5C 446.5,244.167 446.5,232.833 446.5,221.5 Z"/></g>
<g><path style="opacity:0.899" fill="#000000" d="M 485.5,221.5 C 492.833,221.5 500.167,221.5 507.5,221.5C 507.5,223.833 507.5,226.167 507.5,228.5C 502.833,228.5 498.167,228.5 493.5,228.5C 493.5,230.833 493.5,233.167 493.5,235.5C 497.167,235.5 500.833,235.5 504.5,235.5C 504.5,237.5 504.5,239.5 504.5,241.5C 500.833,241.5 497.167,241.5 493.5,241.5C 493.5,243.833 493.5,246.167 493.5,248.5C 498.167,248.5 502.833,248.5 507.5,248.5C 507.5,250.833 507.5,253.167 507.5,255.5C 500.167,255.5 492.833,255.5 485.5,255.5C 485.5,244.167 485.5,232.833 485.5,221.5 Z"/></g>
<g><path style="opacity:0.879" fill="#000000" d="M 537.5,221.5 C 541.514,221.334 545.514,221.501 549.5,222C 556.859,224.461 557.193,227.295 550.5,230.5C 541.956,226.273 536.622,228.773 534.5,238C 534.639,242.967 536.973,246.3 541.5,248C 544.996,247.905 548.329,247.238 551.5,246C 555.659,249.199 555.325,251.865 550.5,254C 530.656,257.483 523.156,249.316 528,229.5C 530.325,225.765 533.491,223.099 537.5,221.5 Z"/></g>
<g><path style="opacity:0.897" fill="#000000" d="M 571.5,221.5 C 590.682,220.188 597.848,228.855 593,247.5C 586.86,255.319 579.027,257.486 569.5,254C 560.515,247.975 558.015,239.809 562,229.5C 564.325,225.765 567.491,223.099 571.5,221.5 Z M 574.5,228.5 C 585.769,229.417 588.936,235.084 584,245.5C 579.706,249.483 575.373,249.483 571,245.5C 567.31,238.756 568.477,233.09 574.5,228.5 Z"/></g>
<g><path style="opacity:0.924" fill="#000000" d="M 602.5,221.5 C 605.167,221.5 607.833,221.5 610.5,221.5C 610.5,230.5 610.5,239.5 610.5,248.5C 614.5,248.5 618.5,248.5 622.5,248.5C 622.5,250.833 622.5,253.167 622.5,255.5C 615.833,255.5 609.167,255.5 602.5,255.5C 602.5,244.167 602.5,232.833 602.5,221.5 Z"/></g>
<g><path style="opacity:0.865" fill="#000000" d="M 629.5,221.5 C 632.5,221.5 635.5,221.5 638.5,221.5C 638.5,230.5 638.5,239.5 638.5,248.5C 642.5,248.5 646.5,248.5 650.5,248.5C 650.5,250.833 650.5,253.167 650.5,255.5C 643.5,255.5 636.5,255.5 629.5,255.5C 629.5,244.167 629.5,232.833 629.5,221.5 Z"/></g>
<g><path style="opacity:0.876" fill="#000000" d="M 657.5,221.5 C 664.833,221.5 672.167,221.5 679.5,221.5C 679.5,223.833 679.5,226.167 679.5,228.5C 675.167,228.5 670.833,228.5 666.5,228.5C 666.5,230.833 666.5,233.167 666.5,235.5C 669.833,235.5 673.167,235.5 676.5,235.5C 676.5,237.5 676.5,239.5 676.5,241.5C 673.167,241.5 669.833,241.5 666.5,241.5C 666.5,243.833 666.5,246.167 666.5,248.5C 670.833,248.5 675.167,248.5 679.5,248.5C 679.5,250.833 679.5,253.167 679.5,255.5C 672.167,255.5 664.833,255.5 657.5,255.5C 657.5,244.167 657.5,232.833 657.5,221.5 Z"/></g>
<g><path style="opacity:0.875" fill="#000000" d="M 696.5,221.5 C 700.514,221.334 704.514,221.501 708.5,222C 715.859,224.461 716.193,227.295 709.5,230.5C 697.692,226.802 692.859,231.135 695,243.5C 699.089,249.227 703.923,249.894 709.5,245.5C 711.316,246.815 712.983,248.315 714.5,250C 707.017,256.481 699.017,257.148 690.5,252C 685.807,246.344 684.307,239.844 686,232.5C 688.02,227.315 691.52,223.648 696.5,221.5 Z"/></g>
<g><path style="opacity:0.856" fill="#000000" d="M 718.5,221.5 C 727.5,221.5 736.5,221.5 745.5,221.5C 745.5,223.833 745.5,226.167 745.5,228.5C 742.5,228.5 739.5,228.5 736.5,228.5C 736.5,237.5 736.5,246.5 736.5,255.5C 733.5,255.5 730.5,255.5 727.5,255.5C 727.5,246.5 727.5,237.5 727.5,228.5C 724.5,228.5 721.5,228.5 718.5,228.5C 718.5,226.167 718.5,223.833 718.5,221.5 Z"/></g>
<g><path style="opacity:0.891" fill="#000000" d="M 760.5,221.5 C 779.981,220.139 787.147,228.806 782,247.5C 775.86,255.319 768.027,257.486 758.5,254C 749.515,247.975 747.015,239.809 751,229.5C 753.325,225.765 756.491,223.099 760.5,221.5 Z M 763.5,228.5 C 774.769,229.417 777.936,235.084 773,245.5C 768.706,249.483 764.373,249.483 760,245.5C 756.583,238.84 757.75,233.174 763.5,228.5 Z"/></g>
<g><path style="opacity:0.9" fill="#000000" d="M 791.5,221.5 C 796.844,221.334 802.177,221.501 807.5,222C 814.836,224.168 817.336,229.001 815,236.5C 814.052,238.57 812.552,240.07 810.5,241C 813.591,245.69 816.258,250.523 818.5,255.5C 815.482,255.665 812.482,255.498 809.5,255C 807.208,251.584 805.041,248.084 803,244.5C 801.989,243.663 800.822,243.33 799.5,243.5C 799.5,247.5 799.5,251.5 799.5,255.5C 796.833,255.5 794.167,255.5 791.5,255.5C 791.5,244.167 791.5,232.833 791.5,221.5 Z M 799.5,228.5 C 801.527,228.338 803.527,228.505 805.5,229C 808.167,231.333 808.167,233.667 805.5,236C 803.527,236.495 801.527,236.662 799.5,236.5C 799.5,233.833 799.5,231.167 799.5,228.5 Z"/></g>
<g><path style="opacity:0.871" fill="#000000" d="M 845.5,221.5 C 849.182,221.335 852.848,221.501 856.5,222C 862.248,223.481 862.915,226.148 858.5,230C 855.968,230.003 853.468,229.503 851,228.5C 849.029,228.281 847.862,229.115 847.5,231C 852.177,233.46 856.677,236.294 861,239.5C 863.167,252 858,257.167 845.5,255C 836.561,253.671 835.561,250.504 842.5,245.5C 844.722,246.778 847.056,247.778 849.5,248.5C 852.856,248.113 853.856,246.447 852.5,243.5C 847.702,242.188 843.535,239.855 840,236.5C 838.087,229.97 839.92,224.97 845.5,221.5 Z"/></g>
<g><path style="opacity:0.876" fill="#000000" d="M 891.5,221.5 C 895.514,221.334 899.514,221.501 903.5,222C 910.859,224.461 911.193,227.295 904.5,230.5C 892.48,226.61 887.646,230.944 890,243.5C 894.089,249.227 898.923,249.894 904.5,245.5C 906.316,246.815 907.983,248.315 909.5,250C 902.017,256.481 894.017,257.148 885.5,252C 879.452,243.91 878.952,235.41 884,226.5C 886.479,224.686 888.979,223.019 891.5,221.5 Z"/></g>
<g><path style="opacity:0.859" fill="#000000" d="M 915.5,221.5 C 918.5,221.5 921.5,221.5 924.5,221.5C 924.5,226.167 924.5,230.833 924.5,235.5C 928.5,235.5 932.5,235.5 936.5,235.5C 936.5,230.833 936.5,226.167 936.5,221.5C 939.5,221.5 942.5,221.5 945.5,221.5C 945.5,232.833 945.5,244.167 945.5,255.5C 942.5,255.5 939.5,255.5 936.5,255.5C 936.5,250.833 936.5,246.167 936.5,241.5C 932.5,241.5 928.5,241.5 924.5,241.5C 924.5,246.167 924.5,250.833 924.5,255.5C 921.5,255.5 918.5,255.5 915.5,255.5C 915.5,244.167 915.5,232.833 915.5,221.5 Z"/></g>
<g><path style="opacity:0.882" fill="#000000" d="M 964.5,221.5 C 982.157,220.317 989.324,228.317 986,245.5C 980.371,255.216 972.205,258.05 961.5,254C 952.214,247.447 950.047,238.947 955,228.5C 957.529,225.115 960.696,222.782 964.5,221.5 Z M 967.5,228.5 C 977.549,229.586 980.716,234.919 977,244.5C 968.733,250.788 963.566,248.788 961.5,238.5C 961.49,233.838 963.49,230.505 967.5,228.5 Z"/></g>
<g><path style="opacity:0.934" fill="#000000" d="M 995.5,221.5 C 998.167,221.5 1000.83,221.5 1003.5,221.5C 1003.5,232.833 1003.5,244.167 1003.5,255.5C 1000.83,255.5 998.167,255.5 995.5,255.5C 995.5,244.167 995.5,232.833 995.5,221.5 Z"/></g>
<g><path style="opacity:0.872" fill="#000000" d="M 1022.5,221.5 C 1026.51,221.334 1030.51,221.501 1034.5,222C 1041.57,224.207 1042.07,227.041 1036,230.5C 1024.49,226.419 1019.49,230.419 1021,242.5C 1024.63,249.114 1029.46,250.114 1035.5,245.5C 1037.32,246.815 1038.98,248.315 1040.5,250C 1034.39,255.584 1027.39,256.917 1019.5,254C 1012.1,248.67 1009.6,241.503 1012,232.5C 1014.36,227.645 1017.86,223.979 1022.5,221.5 Z"/></g>
<g><path style="opacity:0.9" fill="#000000" d="M 1047.5,221.5 C 1054.83,221.5 1062.17,221.5 1069.5,221.5C 1069.5,223.833 1069.5,226.167 1069.5,228.5C 1064.83,228.5 1060.17,228.5 1055.5,228.5C 1055.5,230.833 1055.5,233.167 1055.5,235.5C 1058.83,235.5 1062.17,235.5 1065.5,235.5C 1065.5,237.5 1065.5,239.5 1065.5,241.5C 1062.17,241.5 1058.83,241.5 1055.5,241.5C 1055.5,243.833 1055.5,246.167 1055.5,248.5C 1060.17,248.5 1064.83,248.5 1069.5,248.5C 1069.5,250.833 1069.5,253.167 1069.5,255.5C 1062.17,255.5 1054.83,255.5 1047.5,255.5C 1047.5,244.167 1047.5,232.833 1047.5,221.5 Z"/></g>
<g><path style="opacity:0.951" fill="#020202" d="M 130.5,246.5 C 131.723,249.274 133.223,251.941 135,254.5C 139.712,259.543 144.045,264.877 148,270.5C 148.897,275.628 146.73,278.295 141.5,278.5C 124.051,275.41 108.051,268.91 93.5,259C 90.2232,256.234 87.5566,253.067 85.5,249.5C 100.363,248.723 115.363,247.723 130.5,246.5 Z"/></g>
</svg>
