<?xml version="1.0" encoding="UTF-8"?>
<!DOCTYPE svg PUBLIC "-//W3C//DTD SVG 1.1//EN" "http://www.w3.org/Graphics/SVG/1.1/DTD/svg11.dtd">
<svg xmlns="http://www.w3.org/2000/svg" version="1.1" width="1081px" height="300px" style="shape-rendering:geometricPrecision; text-rendering:geometricPrecision; image-rendering:optimizeQuality; fill-rule:evenodd; clip-rule:evenodd" xmlns:xlink="http://www.w3.org/1999/xlink">
<g><path style="opacity:0.992" fill="#28a4da" d="M 302.5,208.5 C 305.167,208.167 307.833,207.833 310.5,207.5C 314.818,178.435 302.485,162.102 273.5,158.5C 255.021,159.994 243.187,169.661 238,187.5C 237.26,193.218 237.427,198.885 238.5,204.5C 243.414,217.66 249.914,229.994 258,241.5C 258.959,245.421 257.792,248.588 254.5,251C 229.078,251.229 205.411,245.062 183.5,232.5C 162.473,216.058 138.806,210.892 112.5,217C 83.0009,231.023 53.0009,232.189 22.5,220.5C 9.25376,203.535 3.75376,184.202 6,162.5C 16.5067,89.0026 56.6733,39.8359 126.5,15C 195.085,-3.48074 254.585,12.0193 305,61.5C 347.824,110.248 361.157,166.248 345,229.5C 339.606,250.466 329.439,268.633 314.5,284C 310.811,287.843 306.478,290.676 301.5,292.5C 297.553,292.055 295.553,289.889 295.5,286C 298.436,274.653 300.603,263.153 302,251.5C 304.267,243.694 301.601,238.694 294,236.5C 286.295,238.689 278.962,241.689 272,245.5C 265.164,243.521 263.831,239.521 268,233.5C 275.689,219.987 287.189,211.654 302.5,208.5 Z"/></g>
<g><path style="opacity:0.979" fill="#000000" d="M 893.5,14.5 C 895.482,28.1267 896.149,42.1267 895.5,56.5C 904.833,56.5 914.167,56.5 923.5,56.5C 923.5,67.8333 923.5,79.1667 923.5,90.5C 914.167,90.5 904.833,90.5 895.5,90.5C 895.066,109.214 895.566,127.88 897,146.5C 898.251,149.381 900.417,151.214 903.5,152C 910.087,153.212 916.754,153.379 923.5,152.5C 923.5,164.167 923.5,175.833 923.5,187.5C 911.134,188.836 898.801,188.669 886.5,187C 870.463,183.628 861.296,173.795 859,157.5C 858.5,135.169 858.333,112.836 858.5,90.5C 850.833,90.5 843.167,90.5 835.5,90.5C 835.5,79.1667 835.5,67.8333 835.5,56.5C 843.167,56.5 850.833,56.5 858.5,56.5C 858.168,46.4778 858.501,36.4778 859.5,26.5C 871.007,22.6664 882.34,18.6664 893.5,14.5 Z"/></g>
<g><path style="opacity:0.973" fill="#000000" d="M 456.5,53.5 C 474.408,51.4117 490.742,55.4117 505.5,65.5C 506.484,62.5719 506.817,59.5719 506.5,56.5C 519.167,56.5 531.833,56.5 544.5,56.5C 544.5,100.167 544.5,143.833 544.5,187.5C 531.833,187.5 519.167,187.5 506.5,187.5C 506.665,184.482 506.498,181.482 506,178.5C 485.454,191.547 463.621,194.047 440.5,186C 417.488,175.164 404.988,156.998 403,131.5C 400.778,111.053 405.445,92.3866 417,75.5C 427.556,63.3091 440.723,55.9758 456.5,53.5 Z M 471.5,89.5 C 499.255,92.4071 510.088,107.407 504,134.5C 495.036,151.396 481.202,157.563 462.5,153C 444.829,146.168 437.663,133.335 441,114.5C 445.527,99.1682 455.694,90.8348 471.5,89.5 Z"/></g>
<g><path style="opacity:0.97" fill="#000000" d="M 764.5,53.5 C 791.748,51.4635 813.414,61.2968 829.5,83C 819.167,89.8333 808.833,96.6667 798.5,103.5C 785.8,90.2053 771.466,88.0386 755.5,97C 740.757,109.975 738.591,124.808 749,141.5C 765.621,157.706 781.954,157.372 798,140.5C 808.333,147.167 818.667,153.833 829,160.5C 825.413,167.439 820.246,173.272 813.5,178C 792.573,191.578 770.24,194.244 746.5,186C 712.821,168.472 699.655,140.972 707,103.5C 716.474,75.5161 735.641,58.8494 764.5,53.5 Z"/></g>
<g><path style="opacity:0.976" fill="#000000" d="M 997.5,53.5 C 1032.17,51.9053 1056.34,66.9053 1070,98.5C 1079.79,132.803 1070.29,160.303 1041.5,181C 1020.47,192.113 998.806,193.446 976.5,185C 946.028,168.557 933.195,143.057 938,108.5C 946.244,77.4161 966.077,59.0828 997.5,53.5 Z M 998.5,91.5 C 1020.79,90.1321 1033.46,100.465 1036.5,122.5C 1033.82,140.509 1023.49,150.843 1005.5,153.5C 983.99,150.467 973.824,138.134 975,116.5C 978.607,104.063 986.441,95.7296 998.5,91.5 Z"/></g>
<g><path style="opacity:0.969" fill="#000000" d="M 565.5,56.5 C 578.167,56.5 590.833,56.5 603.5,56.5C 603.041,85.5422 603.541,114.542 605,143.5C 609.078,152.72 616.245,157.386 626.5,157.5C 637.415,156.751 644.248,151.085 647,140.5C 648.448,112.537 648.948,84.537 648.5,56.5C 661.167,56.5 673.833,56.5 686.5,56.5C 686.5,100.167 686.5,143.833 686.5,187.5C 673.833,187.5 661.167,187.5 648.5,187.5C 648.664,184.813 648.497,182.146 648,179.5C 627.583,193.659 606.75,194.159 585.5,181C 572.973,170.445 566.473,156.945 566,140.5C 565.5,112.502 565.333,84.502 565.5,56.5 Z"/></g>
<g><path style="opacity:0.959" fill="#a7e2f3" d="M 302.5,208.5 C 308.518,195.483 305.851,184.65 294.5,176C 285.301,171.087 276.301,171.42 267.5,177C 256.346,184.655 246.68,193.822 238.5,204.5C 237.427,198.885 237.26,193.218 238,187.5C 243.187,169.661 255.021,159.994 273.5,158.5C 302.485,162.102 314.818,178.435 310.5,207.5C 307.833,207.833 305.167,208.167 302.5,208.5 Z"/></g>
<g><path style="opacity:0.999" fill="#fbfdfe" d="M 153.5,174.5 C 167.699,174.066 171.699,180.233 165.5,193C 153.821,197.982 147.988,194.149 148,181.5C 148.967,178.379 150.8,176.046 153.5,174.5 Z"/></g>
<g><path style="opacity:0.984" fill="#a8e2f3" d="M 183.5,232.5 C 166.347,239.329 148.68,244.329 130.5,247.5C 129.735,247.077 128.902,246.743 128,246.5C 113.75,248.478 99.5832,249.811 85.5,250.5C 59.9056,249.867 38.9056,239.867 22.5,220.5C 53.0009,232.189 83.0009,231.023 112.5,217C 138.806,210.892 162.473,216.058 183.5,232.5 Z"/></g>
<g><path style="opacity:0.824" fill="#000000" d="M 827.5,220.5 C 831.741,219.909 833.407,221.742 832.5,226C 832.804,230.227 831.137,233.393 827.5,235.5C 823.919,233.556 823.585,231.056 826.5,228C 824.867,225.133 825.2,222.633 827.5,220.5 Z"/></g>
<g><path style="opacity:0.87" fill="#000000" d="M 540.5,221.5 C 546.303,220.99 551.303,222.656 555.5,226.5C 554.376,227.914 553.376,229.414 552.5,231C 548.321,229.773 543.988,229.44 539.5,230C 532.833,236 532.833,242 539.5,248C 543.337,248.761 547.004,248.261 550.5,246.5C 555.369,248.294 555.702,250.794 551.5,254C 536.748,259.463 528.415,254.463 526.5,239C 526.58,229.427 531.247,223.593 540.5,221.5 Z"/></g>
<g><path style="opacity:0.89" fill="#000000" d="M 574.5,221.5 C 592.734,222.957 598.568,232.29 592,249.5C 582.333,258.833 572.667,258.833 563,249.5C 556.749,235.699 560.582,226.365 574.5,221.5 Z M 573.5,229.5 C 583.09,227.924 587.256,231.924 586,241.5C 584.154,247.995 579.988,250.162 573.5,248C 566.939,241.844 566.939,235.677 573.5,229.5 Z"/></g>
<g><path style="opacity:0.861" fill="#000000" d="M 699.5,221.5 C 705.303,220.99 710.303,222.656 714.5,226.5C 713.872,228.258 712.872,229.758 711.5,231C 707.321,229.773 702.988,229.44 698.5,230C 693.167,236 693.167,242 698.5,248C 702.337,248.761 706.004,248.261 709.5,246.5C 713.84,247.57 714.84,249.737 712.5,253C 697.155,260.163 688.155,255.496 685.5,239C 685.6,229.409 690.267,223.576 699.5,221.5 Z"/></g>
<g><path style="opacity:0.884" fill="#000000" d="M 763.5,221.5 C 779.454,221.945 785.954,229.945 783,245.5C 779.807,252.52 774.307,256.187 766.5,256.5C 752.366,254.59 746.866,246.59 750,232.5C 752.616,226.372 757.116,222.706 763.5,221.5 Z M 762.5,229.5 C 772.09,227.924 776.256,231.924 775,241.5C 773.154,247.995 768.988,250.162 762.5,248C 755.968,241.79 755.968,235.624 762.5,229.5 Z"/></g>
<g><path style="opacity:0.872" fill="#000000" d="M 847.5,221.5 C 852.711,221.016 857.378,222.349 861.5,225.5C 859.423,230.99 855.923,231.99 851,228.5C 848.03,229.022 847.196,230.522 848.5,233C 853.403,234.398 857.569,236.898 861,240.5C 862.215,253.609 856.382,258.442 843.5,255C 841.156,254.163 839.156,252.829 837.5,251C 838.647,248.822 840.313,247.322 842.5,246.5C 845.066,247.368 847.566,248.368 850,249.5C 853.184,248.594 854.017,246.761 852.5,244C 849.911,242.803 847.244,241.803 844.5,241C 839.777,237.746 838.277,233.246 840,227.5C 842.109,224.878 844.609,222.878 847.5,221.5 Z"/></g>
<g><path style="opacity:0.864" fill="#000000" d="M 894.5,221.5 C 900.303,220.99 905.303,222.656 909.5,226.5C 908.872,228.258 907.872,229.758 906.5,231C 902.321,229.773 897.988,229.44 893.5,230C 886.833,236 886.833,242 893.5,248C 897.337,248.761 901.004,248.261 904.5,246.5C 910.577,248.377 910.911,250.877 905.5,254C 890.776,259.476 882.442,254.476 880.5,239C 880.6,229.409 885.267,223.576 894.5,221.5 Z"/></g>
<g><path style="opacity:0.879" fill="#000000" d="M 966.5,221.5 C 979.12,220.787 986.12,226.621 987.5,239C 986.358,249.476 980.524,255.309 970,256.5C 958.808,255.975 952.975,250.141 952.5,239C 952.651,229.366 957.318,223.533 966.5,221.5 Z M 965.5,229.5 C 973.558,227.843 977.891,231.01 978.5,239C 978.509,244.862 975.676,248.029 970,248.5C 967.186,248.592 964.853,247.592 963,245.5C 960.453,239.558 961.287,234.225 965.5,229.5 Z"/></g>
<g><path style="opacity:0.861" fill="#000000" d="M 1025.5,221.5 C 1031.3,220.99 1036.3,222.656 1040.5,226.5C 1039.87,228.258 1038.87,229.758 1037.5,231C 1033.65,229.836 1029.65,229.502 1025.5,230C 1023.33,230.833 1021.83,232.333 1021,234.5C 1019.15,246.828 1023.99,250.828 1035.5,246.5C 1042.19,249.705 1041.86,252.539 1034.5,255C 1017.65,257.815 1010.15,250.648 1012,233.5C 1014.2,226.798 1018.7,222.798 1025.5,221.5 Z"/></g>
<g><path style="opacity:0.874" fill="#000000" d="M 413.5,222.5 C 422.5,222.5 431.5,222.5 440.5,222.5C 440.5,224.833 440.5,227.167 440.5,229.5C 437.5,229.5 434.5,229.5 431.5,229.5C 431.5,238.167 431.5,246.833 431.5,255.5C 428.5,255.5 425.5,255.5 422.5,255.5C 422.5,246.833 422.5,238.167 422.5,229.5C 419.5,229.5 416.5,229.5 413.5,229.5C 413.5,227.167 413.5,224.833 413.5,222.5 Z"/></g>
<g><path style="opacity:0.877" fill="#000000" d="M 446.5,222.5 C 449.5,222.5 452.5,222.5 455.5,222.5C 455.5,226.833 455.5,231.167 455.5,235.5C 459.5,235.5 463.5,235.5 467.5,235.5C 467.5,231.167 467.5,226.833 467.5,222.5C 470.5,222.5 473.5,222.5 476.5,222.5C 476.5,233.5 476.5,244.5 476.5,255.5C 473.5,255.5 470.5,255.5 467.5,255.5C 467.5,250.833 467.5,246.167 467.5,241.5C 463.5,241.5 459.5,241.5 455.5,241.5C 455.5,246.167 455.5,250.833 455.5,255.5C 452.5,255.5 449.5,255.5 446.5,255.5C 446.5,244.5 446.5,233.5 446.5,222.5 Z"/></g>
<g><path style="opacity:0.918" fill="#000000" d="M 485.5,222.5 C 492.833,222.5 500.167,222.5 507.5,222.5C 507.5,224.5 507.5,226.5 507.5,228.5C 502.833,228.5 498.167,228.5 493.5,228.5C 493.5,230.833 493.5,233.167 493.5,235.5C 497.167,235.5 500.833,235.5 504.5,235.5C 504.5,237.833 504.5,240.167 504.5,242.5C 500.833,242.5 497.167,242.5 493.5,242.5C 493.5,244.5 493.5,246.5 493.5,248.5C 498.167,248.5 502.833,248.5 507.5,248.5C 507.5,250.833 507.5,253.167 507.5,255.5C 500.167,255.5 492.833,255.5 485.5,255.5C 485.5,244.5 485.5,233.5 485.5,222.5 Z"/></g>
<g><path style="opacity:0.945" fill="#000000" d="M 602.5,222.5 C 605.167,222.5 607.833,222.5 610.5,222.5C 610.5,231.167 610.5,239.833 610.5,248.5C 614.5,248.5 618.5,248.5 622.5,248.5C 622.5,250.833 622.5,253.167 622.5,255.5C 615.833,255.5 609.167,255.5 602.5,255.5C 602.5,244.5 602.5,233.5 602.5,222.5 Z"/></g>
<g><path style="opacity:0.885" fill="#000000" d="M 629.5,222.5 C 632.5,222.5 635.5,222.5 638.5,222.5C 638.5,231.167 638.5,239.833 638.5,248.5C 642.5,248.5 646.5,248.5 650.5,248.5C 650.5,250.833 650.5,253.167 650.5,255.5C 643.5,255.5 636.5,255.5 629.5,255.5C 629.5,244.5 629.5,233.5 629.5,222.5 Z"/></g>
<g><path style="opacity:0.896" fill="#000000" d="M 657.5,222.5 C 664.833,222.5 672.167,222.5 679.5,222.5C 679.5,224.5 679.5,226.5 679.5,228.5C 675.167,228.5 670.833,228.5 666.5,228.5C 666.5,230.833 666.5,233.167 666.5,235.5C 669.833,235.5 673.167,235.5 676.5,235.5C 676.5,237.833 676.5,240.167 676.5,242.5C 673.167,242.5 669.833,242.5 666.5,242.5C 666.5,244.5 666.5,246.5 666.5,248.5C 670.833,248.5 675.167,248.5 679.5,248.5C 679.5,250.833 679.5,253.167 679.5,255.5C 672.167,255.5 664.833,255.5 657.5,255.5C 657.5,244.5 657.5,233.5 657.5,222.5 Z"/></g>
<g><path style="opacity:0.874" fill="#000000" d="M 718.5,222.5 C 727.5,222.5 736.5,222.5 745.5,222.5C 745.5,224.833 745.5,227.167 745.5,229.5C 742.5,229.5 739.5,229.5 736.5,229.5C 736.5,238.167 736.5,246.833 736.5,255.5C 733.5,255.5 730.5,255.5 727.5,255.5C 727.5,246.833 727.5,238.167 727.5,229.5C 724.5,229.5 721.5,229.5 718.5,229.5C 718.5,227.167 718.5,224.833 718.5,222.5 Z"/></g>
<g><path style="opacity:0.931" fill="#000000" d="M 791.5,222.5 C 797.509,222.334 803.509,222.501 809.5,223C 815.169,225.815 817.002,230.315 815,236.5C 813.878,238.624 812.378,240.457 810.5,242C 813.541,245.912 816.208,250.079 818.5,254.5C 815.167,255.833 811.833,255.833 808.5,254.5C 806.5,251.167 804.5,247.833 802.5,244.5C 801.675,243.614 800.675,243.281 799.5,243.5C 799.5,247.5 799.5,251.5 799.5,255.5C 796.833,255.5 794.167,255.5 791.5,255.5C 791.5,244.5 791.5,233.5 791.5,222.5 Z M 799.5,228.5 C 803.377,228.054 806.044,229.554 807.5,233C 806.224,236.808 803.558,238.308 799.5,237.5C 799.5,234.5 799.5,231.5 799.5,228.5 Z"/></g>
<g><path style="opacity:0.877" fill="#000000" d="M 915.5,222.5 C 918.5,222.5 921.5,222.5 924.5,222.5C 924.5,226.833 924.5,231.167 924.5,235.5C 928.5,235.5 932.5,235.5 936.5,235.5C 936.5,231.167 936.5,226.833 936.5,222.5C 939.5,222.5 942.5,222.5 945.5,222.5C 945.5,233.5 945.5,244.5 945.5,255.5C 942.5,255.5 939.5,255.5 936.5,255.5C 936.5,250.833 936.5,246.167 936.5,241.5C 932.5,241.5 928.5,241.5 924.5,241.5C 924.5,246.167 924.5,250.833 924.5,255.5C 921.5,255.5 918.5,255.5 915.5,255.5C 915.5,244.5 915.5,233.5 915.5,222.5 Z"/></g>
<g><path style="opacity:0.962" fill="#000000" d="M 995.5,222.5 C 998.167,222.5 1000.83,222.5 1003.5,222.5C 1003.5,233.5 1003.5,244.5 1003.5,255.5C 1000.83,255.5 998.167,255.5 995.5,255.5C 995.5,244.5 995.5,233.5 995.5,222.5 Z"/></g>
<g><path style="opacity:0.92" fill="#000000" d="M 1047.5,222.5 C 1054.83,222.5 1062.17,222.5 1069.5,222.5C 1069.5,224.5 1069.5,226.5 1069.5,228.5C 1064.83,228.5 1060.17,228.5 1055.5,228.5C 1055.5,230.833 1055.5,233.167 1055.5,235.5C 1058.83,235.5 1062.17,235.5 1065.5,235.5C 1065.5,237.833 1065.5,240.167 1065.5,242.5C 1062.17,242.5 1058.83,242.5 1055.5,242.5C 1055.5,244.5 1055.5,246.5 1055.5,248.5C 1060.17,248.5 1064.83,248.5 1069.5,248.5C 1069.5,250.833 1069.5,253.167 1069.5,255.5C 1062.17,255.5 1054.83,255.5 1047.5,255.5C 1047.5,244.5 1047.5,233.5 1047.5,222.5 Z"/></g>
<g><path style="opacity:0.954" fill="#28a4da" d="M 130.5,247.5 C 135.734,255.574 141.567,263.241 148,270.5C 148.864,275.969 146.531,278.635 141,278.5C 122.789,275.64 106.289,268.806 91.5,258C 88.9061,255.914 86.9061,253.414 85.5,250.5C 99.5832,249.811 113.75,248.478 128,246.5C 128.902,246.743 129.735,247.077 130.5,247.5 Z"/></g>
</svg>
