<?xml version="1.0" encoding="UTF-8"?>
<!DOCTYPE svg PUBLIC "-//W3C//DTD SVG 1.1//EN" "http://www.w3.org/Graphics/SVG/1.1/DTD/svg11.dtd">
<svg xmlns="http://www.w3.org/2000/svg" version="1.1" width="1081px" height="300px" style="shape-rendering:geometricPrecision; text-rendering:geometricPrecision; image-rendering:optimizeQuality; fill-rule:evenodd; clip-rule:evenodd" xmlns:xlink="http://www.w3.org/1999/xlink">
<g><path style="opacity:0.992" fill="#28a4da" d="M 302.5,208.5 C 305.096,207.735 307.763,207.401 310.5,207.5C 314.832,187.343 308.165,172.176 290.5,162C 264.77,153.782 247.27,162.282 238,187.5C 237.183,193.016 237.349,198.35 238.5,203.5C 243.141,217.115 249.641,229.781 258,241.5C 258.959,245.421 257.792,248.588 254.5,251C 229.087,251.231 205.42,245.064 183.5,232.5C 163.823,216.924 141.49,211.424 116.5,216C 105.59,219.956 94.5903,223.622 83.5,227C 62.5699,230.107 42.2365,227.941 22.5,220.5C 9.25376,203.535 3.75376,184.202 6,162.5C 16.5067,89.0026 56.6733,39.8359 126.5,15C 195.668,-3.58567 255.502,12.2477 306,62.5C 348.749,112.225 361.416,168.892 344,232.5C 337.829,255.034 325.995,273.868 308.5,289C 304.393,293.25 300.226,293.417 296,289.5C 295.833,288.333 295.667,287.167 295.5,286C 298.861,273.193 301.195,260.193 302.5,247C 302.549,239.376 298.882,236.043 291.5,237C 284.782,239.445 278.282,242.278 272,245.5C 265.164,243.521 263.831,239.521 268,233.5C 275.689,219.987 287.189,211.654 302.5,208.5 Z"/></g>
<g><path style="opacity:0.979" fill="#28a4da" d="M 893.5,14.5 C 895.482,28.1267 896.149,42.1267 895.5,56.5C 904.833,56.5 914.167,56.5 923.5,56.5C 923.5,67.8333 923.5,79.1667 923.5,90.5C 914.167,90.5 904.833,90.5 895.5,90.5C 895.066,109.214 895.566,127.88 897,146.5C 898.48,149.663 900.98,151.496 904.5,152C 910.825,152.5 917.158,152.666 923.5,152.5C 923.5,164.167 923.5,175.833 923.5,187.5C 911.137,188.817 898.804,188.65 886.5,187C 870.435,183.602 861.268,173.768 859,157.5C 858.5,135.169 858.333,112.836 858.5,90.5C 850.833,90.5 843.167,90.5 835.5,90.5C 835.5,79.1667 835.5,67.8333 835.5,56.5C 843.167,56.5 850.833,56.5 858.5,56.5C 858.168,46.4778 858.501,36.4778 859.5,26.5C 871.007,22.6664 882.34,18.6664 893.5,14.5 Z"/></g>
<g><path style="opacity:0.973" fill="#28a4da" d="M 456.5,53.5 C 474.408,51.4117 490.742,55.4117 505.5,65.5C 506.484,62.5719 506.817,59.5719 506.5,56.5C 519.167,56.5 531.833,56.5 544.5,56.5C 544.5,100.167 544.5,143.833 544.5,187.5C 531.833,187.5 519.167,187.5 506.5,187.5C 506.665,184.482 506.498,181.482 506,178.5C 486.568,191.113 465.735,193.947 443.5,187C 421.221,178.287 408.055,162.12 404,138.5C 398.457,110.136 405.957,85.9694 426.5,66C 435.578,59.3702 445.578,55.2035 456.5,53.5 Z M 470.5,89.5 C 498.781,91.93 509.947,106.93 504,134.5C 494.063,152.484 479.23,158.317 459.5,152C 443.891,144.282 437.725,131.782 441,114.5C 445.276,99.4652 455.11,91.1319 470.5,89.5 Z"/></g>
<g><path style="opacity:0.97" fill="#28a4da" d="M 764.5,53.5 C 791.736,51.4569 813.402,61.2903 829.5,83C 819.167,89.8333 808.833,96.6667 798.5,103.5C 785.813,90.2055 771.48,88.0389 755.5,97C 740.757,109.975 738.591,124.808 749,141.5C 760.871,153.561 774.371,155.728 789.5,148C 792.63,145.872 795.463,143.372 798,140.5C 808.795,147.141 819.295,154.141 829.5,161.5C 806.987,189.715 778.654,197.549 744.5,185C 712.152,167.129 699.652,139.962 707,103.5C 716.428,75.5688 735.594,58.9021 764.5,53.5 Z"/></g>
<g><path style="opacity:0.975" fill="#28a4da" d="M 996.5,53.5 C 1030.02,51.6696 1054.19,65.6696 1069,95.5C 1080.46,130.79 1071.29,159.29 1041.5,181C 1024.9,190.432 1007.23,193.099 988.5,189C 955.865,178.683 938.532,156.349 936.5,122C 939.723,84.2868 959.723,61.4535 996.5,53.5 Z M 998.5,91.5 C 1016.24,89.7779 1028.4,97.1112 1035,113.5C 1038.46,132.744 1030.96,145.578 1012.5,152C 987.007,153.839 974.507,142.006 975,116.5C 978.607,104.063 986.441,95.7296 998.5,91.5 Z"/></g>
<g><path style="opacity:0.969" fill="#28a4da" d="M 565.5,56.5 C 578.167,56.5 590.833,56.5 603.5,56.5C 603.041,85.5422 603.541,114.542 605,143.5C 611.385,155.416 621.219,159.583 634.5,156C 641.256,152.911 645.423,147.745 647,140.5C 648.448,112.537 648.948,84.537 648.5,56.5C 661.167,56.5 673.833,56.5 686.5,56.5C 686.5,100.167 686.5,143.833 686.5,187.5C 673.833,187.5 661.167,187.5 648.5,187.5C 648.664,184.813 648.497,182.146 648,179.5C 627.578,193.66 606.744,194.16 585.5,181C 572.973,170.445 566.473,156.945 566,140.5C 565.5,112.502 565.333,84.502 565.5,56.5 Z"/></g>
<g><path style="opacity:0.958" fill="#a7e2f3" d="M 302.5,208.5 C 308.518,195.483 305.851,184.65 294.5,176C 285.314,171.085 276.314,171.418 267.5,177C 256.713,184.621 247.046,193.454 238.5,203.5C 237.349,198.35 237.183,193.016 238,187.5C 247.27,162.282 264.77,153.782 290.5,162C 308.165,172.176 314.832,187.343 310.5,207.5C 307.763,207.401 305.096,207.735 302.5,208.5 Z"/></g>
<g><path style="opacity:1" fill="#fcfdfe" d="M 153.5,174.5 C 164.49,172.992 169.324,177.658 168,188.5C 165.225,194.099 160.725,196.265 154.5,195C 148.892,192.182 146.725,187.682 148,181.5C 148.967,178.379 150.8,176.046 153.5,174.5 Z"/></g>
<g><path style="opacity:0.983" fill="#a8e2f3" d="M 183.5,232.5 C 166.347,239.329 148.68,244.329 130.5,247.5C 129.584,247.018 128.584,246.685 127.5,246.5C 113.404,248.395 99.4043,249.728 85.5,250.5C 59.8969,249.863 38.8969,239.863 22.5,220.5C 42.2365,227.941 62.5699,230.107 83.5,227C 94.5903,223.622 105.59,219.956 116.5,216C 141.49,211.424 163.823,216.924 183.5,232.5 Z"/></g>
<g><path style="opacity:0.813" fill="#28a4da" d="M 830.5,219.5 C 831.222,219.918 831.722,220.584 832,221.5C 833.688,227.311 832.188,231.978 827.5,235.5C 823.919,233.556 823.585,231.056 826.5,228C 824.625,223.505 825.959,220.672 830.5,219.5 Z"/></g>
<g><path style="opacity:0.874" fill="#28a4da" d="M 539.5,221.5 C 545.666,220.779 550.999,222.445 555.5,226.5C 554.376,227.914 553.376,229.414 552.5,231C 548.321,229.773 543.988,229.44 539.5,230C 532.863,235.946 532.863,241.946 539.5,248C 543.337,248.761 547.004,248.261 550.5,246.5C 555.369,248.294 555.702,250.794 551.5,254C 545.518,257.316 539.518,257.316 533.5,254C 525.979,246.657 524.479,238.157 529,228.5C 531.998,225.262 535.498,222.929 539.5,221.5 Z"/></g>
<g><path style="opacity:0.889" fill="#28a4da" d="M 573.5,221.5 C 592.405,222.296 598.572,231.63 592,249.5C 582.333,258.833 572.667,258.833 563,249.5C 556.808,236.254 560.308,226.921 573.5,221.5 Z M 577.5,228.5 C 585.439,231.111 587.939,236.445 585,244.5C 576.88,251.041 571.38,249.208 568.5,239C 569.259,233.418 572.259,229.918 577.5,228.5 Z"/></g>
<g><path style="opacity:0.867" fill="#28a4da" d="M 698.5,221.5 C 704.666,220.779 709.999,222.445 714.5,226.5C 713.872,228.258 712.872,229.758 711.5,231C 707.321,229.773 702.988,229.44 698.5,230C 694.741,233.743 693.574,238.243 695,243.5C 696.396,246.784 698.896,248.451 702.5,248.5C 704.916,248.125 707.25,247.459 709.5,246.5C 715.577,248.377 715.911,250.877 710.5,254C 692.773,258.954 684.606,252.121 686,233.5C 688.085,227.246 692.252,223.246 698.5,221.5 Z"/></g>
<g><path style="opacity:0.887" fill="#28a4da" d="M 762.5,221.5 C 775.303,220.47 782.636,226.304 784.5,239C 783.304,249.529 777.471,255.363 767,256.5C 753.024,254.585 747.358,246.585 750,232.5C 752.505,226.822 756.671,223.155 762.5,221.5 Z M 766.5,228.5 C 774.439,231.111 776.939,236.445 774,244.5C 765.88,251.041 760.38,249.208 757.5,239C 758.259,233.418 761.259,229.918 766.5,228.5 Z"/></g>
<g><path style="opacity:0.869" fill="#28a4da" d="M 847.5,221.5 C 852.711,221.016 857.378,222.349 861.5,225.5C 859.423,230.99 855.923,231.99 851,228.5C 848.03,229.022 847.196,230.522 848.5,233C 852.286,234.393 855.952,236.059 859.5,238C 863.519,252.316 858.186,257.983 843.5,255C 841.156,254.163 839.156,252.829 837.5,251C 838.647,248.822 840.313,247.322 842.5,246.5C 845.913,248.434 849.413,248.768 853,247.5C 853.684,246.216 853.517,245.049 852.5,244C 848.714,242.607 845.048,240.941 841.5,239C 837.322,230.797 839.322,224.964 847.5,221.5 Z"/></g>
<g><path style="opacity:0.868" fill="#28a4da" d="M 893.5,221.5 C 899.666,220.779 904.999,222.445 909.5,226.5C 908.872,228.258 907.872,229.758 906.5,231C 902.321,229.773 897.988,229.44 893.5,230C 887.84,235.539 887.507,241.205 892.5,247C 896.553,248.939 900.553,248.773 904.5,246.5C 910.577,248.377 910.911,250.877 905.5,254C 887.773,258.954 879.606,252.121 881,233.5C 883.085,227.246 887.252,223.246 893.5,221.5 Z"/></g>
<g><path style="opacity:0.889" fill="#28a4da" d="M 966.5,221.5 C 979.12,220.787 986.12,226.621 987.5,239C 986.354,249.479 980.521,255.312 970,256.5C 953.348,252.86 948.682,243.194 956,227.5C 959.069,224.554 962.569,222.554 966.5,221.5 Z M 969.5,228.5 C 978.843,231.603 981.009,237.603 976,246.5C 967.562,250.699 962.729,248.199 961.5,239C 961.431,233.253 964.098,229.753 969.5,228.5 Z"/></g>
<g><path style="opacity:0.864" fill="#28a4da" d="M 1024.5,221.5 C 1030.67,220.779 1036,222.445 1040.5,226.5C 1039.87,228.258 1038.87,229.758 1037.5,231C 1033.32,229.773 1028.99,229.44 1024.5,230C 1020.74,233.743 1019.57,238.243 1021,243.5C 1022.4,246.784 1024.9,248.451 1028.5,248.5C 1030.92,248.125 1033.25,247.459 1035.5,246.5C 1042.19,249.705 1041.86,252.539 1034.5,255C 1017.68,257.855 1010.18,250.689 1012,233.5C 1014.09,227.246 1018.25,223.246 1024.5,221.5 Z"/></g>
<g><path style="opacity:0.874" fill="#28a4da" d="M 413.5,222.5 C 422.5,222.5 431.5,222.5 440.5,222.5C 440.5,224.833 440.5,227.167 440.5,229.5C 437.5,229.5 434.5,229.5 431.5,229.5C 431.5,238.167 431.5,246.833 431.5,255.5C 428.5,255.5 425.5,255.5 422.5,255.5C 422.5,246.833 422.5,238.167 422.5,229.5C 419.5,229.5 416.5,229.5 413.5,229.5C 413.5,227.167 413.5,224.833 413.5,222.5 Z"/></g>
<g><path style="opacity:0.882" fill="#28a4da" d="M 446.5,222.5 C 449.5,222.5 452.5,222.5 455.5,222.5C 455.5,226.833 455.5,231.167 455.5,235.5C 459.5,235.5 463.5,235.5 467.5,235.5C 467.5,231.167 467.5,226.833 467.5,222.5C 470.5,222.5 473.5,222.5 476.5,222.5C 476.5,233.5 476.5,244.5 476.5,255.5C 473.5,255.5 470.5,255.5 467.5,255.5C 467.5,250.833 467.5,246.167 467.5,241.5C 463.5,241.5 459.5,241.5 455.5,241.5C 455.5,246.167 455.5,250.833 455.5,255.5C 452.5,255.5 449.5,255.5 446.5,255.5C 446.5,244.5 446.5,233.5 446.5,222.5 Z"/></g>
<g><path style="opacity:0.923" fill="#28a4da" d="M 485.5,222.5 C 492.833,222.5 500.167,222.5 507.5,222.5C 507.5,224.5 507.5,226.5 507.5,228.5C 502.833,228.5 498.167,228.5 493.5,228.5C 493.5,230.833 493.5,233.167 493.5,235.5C 497.167,235.5 500.833,235.5 504.5,235.5C 504.5,237.833 504.5,240.167 504.5,242.5C 500.833,242.5 497.167,242.5 493.5,242.5C 493.5,244.5 493.5,246.5 493.5,248.5C 498.167,248.5 502.833,248.5 507.5,248.5C 507.5,250.833 507.5,253.167 507.5,255.5C 500.167,255.5 492.833,255.5 485.5,255.5C 485.5,244.5 485.5,233.5 485.5,222.5 Z"/></g>
<g><path style="opacity:0.945" fill="#28a4da" d="M 602.5,222.5 C 605.167,222.5 607.833,222.5 610.5,222.5C 610.5,231.167 610.5,239.833 610.5,248.5C 614.5,248.5 618.5,248.5 622.5,248.5C 622.5,250.833 622.5,253.167 622.5,255.5C 615.833,255.5 609.167,255.5 602.5,255.5C 602.5,244.5 602.5,233.5 602.5,222.5 Z"/></g>
<g><path style="opacity:0.885" fill="#28a4da" d="M 629.5,222.5 C 632.5,222.5 635.5,222.5 638.5,222.5C 638.5,231.167 638.5,239.833 638.5,248.5C 642.5,248.5 646.5,248.5 650.5,248.5C 650.5,250.833 650.5,253.167 650.5,255.5C 643.5,255.5 636.5,255.5 629.5,255.5C 629.5,244.5 629.5,233.5 629.5,222.5 Z"/></g>
<g><path style="opacity:0.901" fill="#28a4da" d="M 657.5,222.5 C 664.833,222.5 672.167,222.5 679.5,222.5C 679.5,224.5 679.5,226.5 679.5,228.5C 675.167,228.5 670.833,228.5 666.5,228.5C 666.5,230.833 666.5,233.167 666.5,235.5C 669.833,235.5 673.167,235.5 676.5,235.5C 676.5,237.833 676.5,240.167 676.5,242.5C 673.167,242.5 669.833,242.5 666.5,242.5C 666.5,244.5 666.5,246.5 666.5,248.5C 670.833,248.5 675.167,248.5 679.5,248.5C 679.5,250.833 679.5,253.167 679.5,255.5C 672.167,255.5 664.833,255.5 657.5,255.5C 657.5,244.5 657.5,233.5 657.5,222.5 Z"/></g>
<g><path style="opacity:0.874" fill="#28a4da" d="M 718.5,222.5 C 727.5,222.5 736.5,222.5 745.5,222.5C 745.5,224.833 745.5,227.167 745.5,229.5C 742.5,229.5 739.5,229.5 736.5,229.5C 736.5,238.167 736.5,246.833 736.5,255.5C 733.5,255.5 730.5,255.5 727.5,255.5C 727.5,246.833 727.5,238.167 727.5,229.5C 724.5,229.5 721.5,229.5 718.5,229.5C 718.5,227.167 718.5,224.833 718.5,222.5 Z"/></g>
<g><path style="opacity:0.93" fill="#28a4da" d="M 791.5,222.5 C 797.509,222.334 803.509,222.501 809.5,223C 815.169,225.815 817.002,230.315 815,236.5C 813.878,238.624 812.378,240.457 810.5,242C 813.541,245.912 816.208,250.079 818.5,254.5C 815.167,255.833 811.833,255.833 808.5,254.5C 806.5,251.167 804.5,247.833 802.5,244.5C 801.675,243.614 800.675,243.281 799.5,243.5C 799.5,247.5 799.5,251.5 799.5,255.5C 796.833,255.5 794.167,255.5 791.5,255.5C 791.5,244.5 791.5,233.5 791.5,222.5 Z M 799.5,228.5 C 803.558,227.692 806.224,229.192 807.5,233C 806.176,236.814 803.509,238.314 799.5,237.5C 799.5,234.5 799.5,231.5 799.5,228.5 Z"/></g>
<g><path style="opacity:0.882" fill="#28a4da" d="M 915.5,222.5 C 918.5,222.5 921.5,222.5 924.5,222.5C 924.5,226.833 924.5,231.167 924.5,235.5C 928.5,235.5 932.5,235.5 936.5,235.5C 936.5,231.167 936.5,226.833 936.5,222.5C 939.5,222.5 942.5,222.5 945.5,222.5C 945.5,233.5 945.5,244.5 945.5,255.5C 942.5,255.5 939.5,255.5 936.5,255.5C 936.5,250.833 936.5,246.167 936.5,241.5C 932.5,241.5 928.5,241.5 924.5,241.5C 924.5,246.167 924.5,250.833 924.5,255.5C 921.5,255.5 918.5,255.5 915.5,255.5C 915.5,244.5 915.5,233.5 915.5,222.5 Z"/></g>
<g><path style="opacity:0.962" fill="#28a4da" d="M 995.5,222.5 C 998.167,222.5 1000.83,222.5 1003.5,222.5C 1003.5,233.5 1003.5,244.5 1003.5,255.5C 1000.83,255.5 998.167,255.5 995.5,255.5C 995.5,244.5 995.5,233.5 995.5,222.5 Z"/></g>
<g><path style="opacity:0.925" fill="#28a4da" d="M 1047.5,222.5 C 1054.83,222.5 1062.17,222.5 1069.5,222.5C 1069.5,224.5 1069.5,226.5 1069.5,228.5C 1064.83,228.5 1060.17,228.5 1055.5,228.5C 1055.5,230.833 1055.5,233.167 1055.5,235.5C 1058.83,235.5 1062.17,235.5 1065.5,235.5C 1065.5,237.833 1065.5,240.167 1065.5,242.5C 1062.17,242.5 1058.83,242.5 1055.5,242.5C 1055.5,244.5 1055.5,246.5 1055.5,248.5C 1060.17,248.5 1064.83,248.5 1069.5,248.5C 1069.5,250.833 1069.5,253.167 1069.5,255.5C 1062.17,255.5 1054.83,255.5 1047.5,255.5C 1047.5,244.5 1047.5,233.5 1047.5,222.5 Z"/></g>
<g><path style="opacity:0.952" fill="#28a4da" d="M 130.5,247.5 C 135.734,255.574 141.567,263.241 148,270.5C 148.864,275.969 146.531,278.635 141,278.5C 122.789,275.64 106.289,268.806 91.5,258C 88.9061,255.914 86.9061,253.414 85.5,250.5C 99.4043,249.728 113.404,248.395 127.5,246.5C 128.584,246.685 129.584,247.018 130.5,247.5 Z"/></g>
</svg>
