<?xml version="1.0" encoding="UTF-8"?>
<!DOCTYPE svg PUBLIC "-//W3C//DTD SVG 1.1//EN" "http://www.w3.org/Graphics/SVG/1.1/DTD/svg11.dtd">
<svg xmlns="http://www.w3.org/2000/svg" version="1.1" width="1081px" height="300px" style="shape-rendering:geometricPrecision; text-rendering:geometricPrecision; image-rendering:optimizeQuality; fill-rule:evenodd; clip-rule:evenodd" xmlns:xlink="http://www.w3.org/1999/xlink">
<g><path style="opacity:0.992" fill="#fefefe" d="M 302.5,208.5 C 305.096,207.735 307.763,207.401 310.5,207.5C 314.845,186.36 307.512,170.86 288.5,161C 265.41,154.244 248.91,161.744 239,183.5C 237.353,190.188 237.186,196.855 238.5,203.5C 243.149,217.131 249.649,229.798 258,241.5C 258.894,248.275 255.894,251.608 249,251.5C 225.701,249.897 203.867,243.563 183.5,232.5C 172.626,223.136 159.959,217.303 145.5,215C 137.167,214.333 128.833,214.333 120.5,215C 108.746,218.377 97.0789,222.043 85.5,226C 63.9908,229.908 42.9908,228.075 22.5,220.5C 9.42611,203.431 3.92611,184.098 6,162.5C 12.879,106.682 39.7124,63.5151 86.5,33C 129.685,7.35071 175.685,0.684039 224.5,13C 289.988,33.4882 331.155,76.9882 348,143.5C 356.237,184.713 350.903,224.046 332,261.5C 324.332,274.334 314.165,284.668 301.5,292.5C 297.406,291.984 295.406,289.651 295.5,285.5C 298.5,274.332 300.667,262.998 302,251.5C 304.853,240.965 301.02,236.132 290.5,237C 284.274,239.696 278.107,242.53 272,245.5C 268.5,244.667 266.333,242.5 265.5,239C 272.422,222.213 284.755,212.047 302.5,208.5 Z"/></g>
<g><path style="opacity:0.979" fill="#fefffe" d="M 892.5,14.5 C 893.5,14.5 894.5,14.5 895.5,14.5C 895.5,28.5 895.5,42.5 895.5,56.5C 904.833,56.5 914.167,56.5 923.5,56.5C 923.5,67.8333 923.5,79.1667 923.5,90.5C 914.167,90.5 904.833,90.5 895.5,90.5C 895.066,109.214 895.566,127.88 897,146.5C 899.051,149.553 901.885,151.386 905.5,152C 911.416,152.807 917.25,152.641 923,151.5C 923.833,163.181 923.666,174.848 922.5,186.5C 907.282,189.68 892.282,188.846 877.5,184C 866.296,178.78 860.129,169.947 859,157.5C 858.5,135.169 858.333,112.836 858.5,90.5C 850.833,90.5 843.167,90.5 835.5,90.5C 835.5,79.1667 835.5,67.8333 835.5,56.5C 843.167,56.5 850.833,56.5 858.5,56.5C 858.334,46.4944 858.5,36.4944 859,26.5C 870.286,22.5733 881.453,18.5733 892.5,14.5 Z"/></g>
<g><path style="opacity:0.977" fill="#fefffe" d="M 466.5,52.5 C 481.019,52.754 494.185,57.0874 506,65.5C 506.498,62.5184 506.665,59.5184 506.5,56.5C 519.167,56.5 531.833,56.5 544.5,56.5C 544.5,99.8333 544.5,143.167 544.5,186.5C 531.833,186.5 519.167,186.5 506.5,186.5C 506.813,183.753 506.48,181.086 505.5,178.5C 479.974,194.303 454.307,194.469 428.5,179C 410.671,164.332 402.004,145.332 402.5,122C 401.757,93.7973 413.423,72.7973 437.5,59C 446.943,55.2145 456.61,53.0478 466.5,52.5 Z M 467.5,89.5 C 487.686,88.3209 500.519,97.3209 506,116.5C 507.499,137.327 497.999,149.827 477.5,154C 458.822,155.418 446.655,147.251 441,129.5C 438.145,108.168 446.978,94.8345 467.5,89.5 Z"/></g>
<g><path style="opacity:0.971" fill="#fefffe" d="M 762.5,53.5 C 790.105,50.9778 812.438,60.4778 829.5,82C 819.087,89.2903 808.587,96.4569 798,103.5C 784.027,88.6928 768.86,87.1928 752.5,99C 741.434,110.814 739.601,123.98 747,138.5C 763.462,156.419 780.629,157.086 798.5,140.5C 808.969,147.137 819.302,153.97 829.5,161C 808.179,188.436 780.846,196.77 747.5,186C 711.497,167.815 698.33,138.982 708,99.5C 718.004,74.4251 736.171,59.0917 762.5,53.5 Z"/></g>
<g><path style="opacity:0.975" fill="#fefffe" d="M 994.5,53.5 C 1035.87,51.0596 1062.04,69.7263 1073,109.5C 1077.07,143.862 1063.91,169.028 1033.5,185C 1001.27,196.901 973.77,190.067 951,164.5C 932.965,138.123 931.965,111.123 948,83.5C 959.693,67.572 975.193,57.572 994.5,53.5 Z M 1003.5,90.5 C 1022.79,92.2921 1033.79,102.792 1036.5,122C 1033.25,143.918 1020.58,153.918 998.5,152C 979.716,145.266 972.216,132.1 976,112.5C 981.191,100.138 990.357,92.8043 1003.5,90.5 Z"/></g>
<g><path style="opacity:0.972" fill="#fefffe" d="M 565.5,56.5 C 578.167,56.5 590.833,56.5 603.5,56.5C 603.042,85.2089 603.542,113.876 605,142.5C 608.872,152.034 616.038,157.034 626.5,157.5C 637.432,156.732 644.265,151.065 647,140.5C 648.448,112.537 648.948,84.537 648.5,56.5C 661.167,56.5 673.833,56.5 686.5,56.5C 686.5,99.8333 686.5,143.167 686.5,186.5C 673.833,186.5 661.167,186.5 648.5,186.5C 648.808,184.076 648.474,181.743 647.5,179.5C 626.695,193.918 605.695,194.085 584.5,180C 572.548,169.594 566.382,156.428 566,140.5C 565.5,112.502 565.333,84.502 565.5,56.5 Z"/></g>
<g><path style="opacity:0.958" fill="#d1d1d1" d="M 302.5,208.5 C 307.965,196.592 305.965,186.092 296.5,177C 283.872,170.024 272.205,171.358 261.5,181C 253.302,188.032 245.635,195.532 238.5,203.5C 237.186,196.855 237.353,190.188 239,183.5C 248.91,161.744 265.41,154.244 288.5,161C 307.512,170.86 314.845,186.36 310.5,207.5C 307.763,207.401 305.096,207.735 302.5,208.5 Z"/></g>
<g><path style="opacity:0.999" fill="#070707" d="M 155.5,173.5 C 166.736,174.228 170.57,179.895 167,190.5C 161,197.167 155,197.167 149,190.5C 145.979,182.715 148.146,177.049 155.5,173.5 Z"/></g>
<g><path style="opacity:0.982" fill="#d1d1d1" d="M 183.5,232.5 C 166.377,239.208 148.71,243.874 130.5,246.5C 115.218,248.208 99.885,249.208 84.5,249.5C 59.1923,249.51 38.5256,239.843 22.5,220.5C 42.9908,228.075 63.9908,229.908 85.5,226C 97.0789,222.043 108.746,218.377 120.5,215C 128.833,214.333 137.167,214.333 145.5,215C 159.959,217.303 172.626,223.136 183.5,232.5 Z"/></g>
<g><path style="opacity:0.832" fill="#fefffe" d="M 829.5,219.5 C 830.75,219.577 831.583,220.244 832,221.5C 832.667,224.5 832.667,227.5 832,230.5C 831.128,232.613 829.628,233.946 827.5,234.5C 825.734,234.566 824.734,233.732 824.5,232C 826.459,229.314 826.792,226.481 825.5,223.5C 825.667,222.833 825.833,222.167 826,221.5C 827.302,220.915 828.469,220.249 829.5,219.5 Z"/></g>
<g><path style="opacity:0.856" fill="#fefffe" d="M 413.5,221.5 C 422.5,221.5 431.5,221.5 440.5,221.5C 440.5,223.833 440.5,226.167 440.5,228.5C 437.5,228.5 434.5,228.5 431.5,228.5C 431.5,237.5 431.5,246.5 431.5,255.5C 428.5,255.5 425.5,255.5 422.5,255.5C 422.5,246.5 422.5,237.5 422.5,228.5C 419.5,228.5 416.5,228.5 413.5,228.5C 413.5,226.167 413.5,223.833 413.5,221.5 Z"/></g>
<g><path style="opacity:0.859" fill="#fefffe" d="M 446.5,221.5 C 449.5,221.5 452.5,221.5 455.5,221.5C 455.5,226.167 455.5,230.833 455.5,235.5C 459.5,235.5 463.5,235.5 467.5,235.5C 467.5,230.833 467.5,226.167 467.5,221.5C 470.5,221.5 473.5,221.5 476.5,221.5C 476.5,232.833 476.5,244.167 476.5,255.5C 473.5,255.5 470.5,255.5 467.5,255.5C 467.5,250.833 467.5,246.167 467.5,241.5C 463.5,241.5 459.5,241.5 455.5,241.5C 455.5,246.167 455.5,250.833 455.5,255.5C 452.5,255.5 449.5,255.5 446.5,255.5C 446.5,244.167 446.5,232.833 446.5,221.5 Z"/></g>
<g><path style="opacity:0.904" fill="#fefffe" d="M 485.5,221.5 C 492.833,221.5 500.167,221.5 507.5,221.5C 507.5,223.833 507.5,226.167 507.5,228.5C 502.833,228.5 498.167,228.5 493.5,228.5C 493.5,230.833 493.5,233.167 493.5,235.5C 497.167,235.5 500.833,235.5 504.5,235.5C 504.5,237.5 504.5,239.5 504.5,241.5C 500.833,241.5 497.167,241.5 493.5,241.5C 493.5,243.833 493.5,246.167 493.5,248.5C 498.167,248.5 502.833,248.5 507.5,248.5C 507.5,250.833 507.5,253.167 507.5,255.5C 500.167,255.5 492.833,255.5 485.5,255.5C 485.5,244.167 485.5,232.833 485.5,221.5 Z"/></g>
<g><path style="opacity:0.881" fill="#fefffe" d="M 538.5,221.5 C 543.742,221.023 548.742,221.856 553.5,224C 554.357,224.689 555.023,225.522 555.5,226.5C 554.185,228.316 552.685,229.983 551,231.5C 542.152,226.506 536.652,229.006 534.5,239C 536.848,248.677 542.182,250.844 550.5,245.5C 556.071,249.664 555.404,252.831 548.5,255C 531.502,257.001 524.335,249.501 527,232.5C 529.437,227.226 533.271,223.56 538.5,221.5 Z"/></g>
<g><path style="opacity:0.896" fill="#fefffe" d="M 572.5,221.5 C 590.024,220.212 597.19,228.212 594,245.5C 589.136,254.466 581.636,257.633 571.5,255C 561.699,250.651 558.199,243.151 561,232.5C 563.437,227.226 567.271,223.56 572.5,221.5 Z M 575.5,228.5 C 583.715,228.901 587.215,233.234 586,241.5C 583.472,248.181 578.972,250.014 572.5,247C 567.911,242.232 567.411,237.065 571,231.5C 572.652,230.601 574.152,229.601 575.5,228.5 Z"/></g>
<g><path style="opacity:0.924" fill="#fefffe" d="M 602.5,221.5 C 605.167,221.5 607.833,221.5 610.5,221.5C 610.5,230.5 610.5,239.5 610.5,248.5C 614.5,248.5 618.5,248.5 622.5,248.5C 622.5,250.833 622.5,253.167 622.5,255.5C 615.833,255.5 609.167,255.5 602.5,255.5C 602.5,244.167 602.5,232.833 602.5,221.5 Z"/></g>
<g><path style="opacity:0.865" fill="#fefffe" d="M 629.5,221.5 C 632.5,221.5 635.5,221.5 638.5,221.5C 638.5,230.5 638.5,239.5 638.5,248.5C 642.5,248.5 646.5,248.5 650.5,248.5C 650.5,250.833 650.5,253.167 650.5,255.5C 643.5,255.5 636.5,255.5 629.5,255.5C 629.5,244.167 629.5,232.833 629.5,221.5 Z"/></g>
<g><path style="opacity:0.881" fill="#fefffe" d="M 657.5,221.5 C 664.833,221.5 672.167,221.5 679.5,221.5C 679.5,223.833 679.5,226.167 679.5,228.5C 675.167,228.5 670.833,228.5 666.5,228.5C 666.5,230.833 666.5,233.167 666.5,235.5C 669.833,235.5 673.167,235.5 676.5,235.5C 676.5,237.5 676.5,239.5 676.5,241.5C 673.167,241.5 669.833,241.5 666.5,241.5C 666.5,243.833 666.5,246.167 666.5,248.5C 670.833,248.5 675.167,248.5 679.5,248.5C 679.5,250.833 679.5,253.167 679.5,255.5C 672.167,255.5 664.833,255.5 657.5,255.5C 657.5,244.167 657.5,232.833 657.5,221.5 Z"/></g>
<g><path style="opacity:0.873" fill="#fefffe" d="M 697.5,221.5 C 702.742,221.023 707.742,221.856 712.5,224C 713.357,224.689 714.023,225.522 714.5,226.5C 713.459,228.585 711.959,230.252 710,231.5C 704.305,227.007 699.305,227.674 695,233.5C 692.966,247.155 698.133,251.321 710.5,246C 711.833,247.333 713.167,248.667 714.5,250C 713.167,251.333 711.833,252.667 710.5,254C 692.053,258.553 683.886,251.386 686,232.5C 688.437,227.226 692.271,223.56 697.5,221.5 Z"/></g>
<g><path style="opacity:0.856" fill="#fefffe" d="M 718.5,221.5 C 727.5,221.5 736.5,221.5 745.5,221.5C 745.5,223.833 745.5,226.167 745.5,228.5C 742.5,228.5 739.5,228.5 736.5,228.5C 736.5,237.5 736.5,246.5 736.5,255.5C 733.5,255.5 730.5,255.5 727.5,255.5C 727.5,246.5 727.5,237.5 727.5,228.5C 724.5,228.5 721.5,228.5 718.5,228.5C 718.5,226.167 718.5,223.833 718.5,221.5 Z"/></g>
<g><path style="opacity:0.892" fill="#fefffe" d="M 761.5,221.5 C 779.071,220.349 786.238,228.349 783,245.5C 778.136,254.466 770.636,257.633 760.5,255C 750.992,250.477 747.492,242.977 750,232.5C 752.437,227.226 756.271,223.56 761.5,221.5 Z M 764.5,228.5 C 770.463,227.965 773.963,230.632 775,236.5C 775.433,246.403 770.933,249.903 761.5,247C 756.038,239.699 757.038,233.533 764.5,228.5 Z"/></g>
<g><path style="opacity:0.906" fill="#fefffe" d="M 791.5,221.5 C 797.898,221.243 804.231,221.743 810.5,223C 812.667,223.833 814.167,225.333 815,227.5C 816.688,233.311 815.188,237.978 810.5,241.5C 813.417,245.666 816.084,249.999 818.5,254.5C 815.554,255.655 812.554,255.821 809.5,255C 806.707,251.919 804.54,248.419 803,244.5C 801.989,243.663 800.822,243.33 799.5,243.5C 799.5,247.5 799.5,251.5 799.5,255.5C 796.833,255.5 794.167,255.5 791.5,255.5C 791.5,244.167 791.5,232.833 791.5,221.5 Z M 799.5,228.5 C 803.367,227.775 806.034,229.108 807.5,232.5C 806.183,236.166 803.517,237.832 799.5,237.5C 799.5,234.5 799.5,231.5 799.5,228.5 Z"/></g>
<g><path style="opacity:0.873" fill="#fefffe" d="M 846.5,221.5 C 849.518,221.335 852.518,221.502 855.5,222C 861.952,222.882 862.952,225.549 858.5,230C 855.968,230.003 853.468,229.503 851,228.5C 847.715,228.7 846.882,230.2 848.5,233C 851.833,234.333 855.167,235.667 858.5,237C 862.5,242.333 862.5,247.667 858.5,253C 851.041,256.754 844.041,256.087 837.5,251C 838.257,249.488 839.257,248.154 840.5,247C 843.812,246.462 846.979,246.962 850,248.5C 853.935,247.689 854.435,245.856 851.5,243C 846.802,242.238 842.968,240.071 840,236.5C 837.865,229.45 840.032,224.45 846.5,221.5 Z"/></g>
<g><path style="opacity:0.873" fill="#fefffe" d="M 892.5,221.5 C 897.742,221.023 902.742,221.856 907.5,224C 908.357,224.689 909.023,225.522 909.5,226.5C 908.459,228.585 906.959,230.252 905,231.5C 899.305,227.007 894.305,227.674 890,233.5C 887.966,247.155 893.133,251.321 905.5,246C 906.833,247.333 908.167,248.667 909.5,250C 908.167,251.333 906.833,252.667 905.5,254C 887.053,258.553 878.886,251.386 881,232.5C 883.437,227.226 887.271,223.56 892.5,221.5 Z"/></g>
<g><path style="opacity:0.859" fill="#fefffe" d="M 915.5,221.5 C 918.5,221.5 921.5,221.5 924.5,221.5C 924.5,226.167 924.5,230.833 924.5,235.5C 928.5,235.5 932.5,235.5 936.5,235.5C 936.5,230.833 936.5,226.167 936.5,221.5C 939.5,221.5 942.5,221.5 945.5,221.5C 945.5,232.833 945.5,244.167 945.5,255.5C 942.5,255.5 939.5,255.5 936.5,255.5C 936.5,250.833 936.5,246.167 936.5,241.5C 932.5,241.5 928.5,241.5 924.5,241.5C 924.5,246.167 924.5,250.833 924.5,255.5C 921.5,255.5 918.5,255.5 915.5,255.5C 915.5,244.167 915.5,232.833 915.5,221.5 Z"/></g>
<g><path style="opacity:0.882" fill="#fefffe" d="M 964.5,221.5 C 982.634,220.465 989.801,228.798 986,246.5C 980.955,254.409 973.788,257.242 964.5,255C 953.457,250.233 949.957,242.066 954,230.5C 956.505,226.189 960.005,223.189 964.5,221.5 Z M 967.5,228.5 C 977.549,229.586 980.716,234.919 977,244.5C 971.138,250.194 966.138,249.527 962,242.5C 960.268,236.314 962.101,231.647 967.5,228.5 Z"/></g>
<g><path style="opacity:0.934" fill="#fefffe" d="M 995.5,221.5 C 998.167,221.5 1000.83,221.5 1003.5,221.5C 1003.5,232.833 1003.5,244.167 1003.5,255.5C 1000.83,255.5 998.167,255.5 995.5,255.5C 995.5,244.167 995.5,232.833 995.5,221.5 Z"/></g>
<g><path style="opacity:0.874" fill="#fefffe" d="M 1023.5,221.5 C 1028.74,221.023 1033.74,221.856 1038.5,224C 1039.36,224.689 1040.02,225.522 1040.5,226.5C 1039.46,228.585 1037.96,230.252 1036,231.5C 1029.8,226.801 1024.8,227.801 1021,234.5C 1019.58,247.526 1024.75,251.359 1036.5,246C 1037.83,247.333 1039.17,248.667 1040.5,250C 1039.17,251.333 1037.83,252.667 1036.5,254C 1016.69,258.189 1008.86,250.356 1013,230.5C 1015.49,226.168 1018.99,223.168 1023.5,221.5 Z"/></g>
<g><path style="opacity:0.904" fill="#fefffe" d="M 1047.5,221.5 C 1054.83,221.5 1062.17,221.5 1069.5,221.5C 1069.5,223.833 1069.5,226.167 1069.5,228.5C 1064.83,228.5 1060.17,228.5 1055.5,228.5C 1055.5,230.833 1055.5,233.167 1055.5,235.5C 1058.83,235.5 1062.17,235.5 1065.5,235.5C 1065.5,237.5 1065.5,239.5 1065.5,241.5C 1062.17,241.5 1058.83,241.5 1055.5,241.5C 1055.5,243.833 1055.5,246.167 1055.5,248.5C 1060.17,248.5 1064.83,248.5 1069.5,248.5C 1069.5,250.833 1069.5,253.167 1069.5,255.5C 1062.17,255.5 1054.83,255.5 1047.5,255.5C 1047.5,244.167 1047.5,232.833 1047.5,221.5 Z"/></g>
<g><path style="opacity:0.954" fill="#fefefe" d="M 130.5,246.5 C 131.128,249.09 132.295,251.423 134,253.5C 138.428,259.351 143.094,265.017 148,270.5C 148.905,275.697 146.739,278.364 141.5,278.5C 124.412,275.752 108.746,269.586 94.5,260C 90.9626,256.631 87.6293,253.131 84.5,249.5C 99.885,249.208 115.218,248.208 130.5,246.5 Z"/></g>
</svg>
